<svg xmlns="http://www.w3.org/2000/svg" viewBox="0 0 768 652"><defs><style>.cls-1{fill:#f4ae4a;}.cls-2{fill:#ff9623;}.cls-3{fill:#fc9cb5;}.cls-4{fill:#d00000;}.cls-5{fill:#f7ba2c;}.cls-6{fill:#ea5459;}.cls-7{fill:#ff6929;}.cls-8{fill:#f18743;}</style></defs><g id="Layer_2" data-name="Layer 2"><g id="Desert"><g id="desert--mountain"><polygon class="cls-1" points="0.26 373.5 0 374 0 652 768 652 768 373.5 0.26 373.5"/><path class="cls-2" d="M768,312.5H33.31l-1.42,1.81a50.46,50.46,0,0,0-5.05,7.85L.26,373.5H768Z"/><path class="cls-3" d="M768,273.5H60.88l-.19.5a50,50,0,0,1-7.31,12.9L33.31,312.5H768Z"/><polygon class="cls-4" points="768 254.5 68.19 254.5 60.88 273.5 768 273.5 768 254.5"/><polygon class="cls-5" points="768 188.5 126.32 188.5 103.65 207.5 768 207.5 768 188.5"/><path class="cls-6" d="M768,113.5H359.61l-6.22,9.71a50,50,0,0,1-56.54,20.88L248.3,129.43A50,50,0,0,0,208,134.51L149.29,170a49.83,49.83,0,0,0-6.24,4.46l-16.73,14H768Z"/><path class="cls-7" d="M768,0,682.85,17a50.33,50.33,0,0,1-9.8,1H530.41a50,50,0,0,0-16.36,2.75L408.38,57.33a50,50,0,0,0-25.74,20.26l-23,35.91H768Z"/><path class="cls-8" d="M768,207.5H103.65L87.91,220.7a49.87,49.87,0,0,0-14.55,20.37L68.19,254.5H768Z"/></g></g></g></svg>