<svg xmlns="http://www.w3.org/2000/svg" viewBox="0 0 247.5 470"><defs><style>.cls-1{fill:#80ed99;stroke:#57cc99;stroke-miterlimit:10;stroke-width:5px;}.cls-2{fill:none;}.cls-3{fill:#57cc99;}</style></defs><g id="Layer_2" data-name="Layer 2"><g id="Desert"><g id="desert--cactus"><path class="cls-1" d="M216.5,60.5h0A28.5,28.5,0,0,0,188,89v90.5a29,29,0,0,1-28.5,29V38A35.5,35.5,0,0,0,124,2.5h0A35.5,35.5,0,0,0,88.5,38V247.5a29,29,0,0,1-29-29V128a28.5,28.5,0,0,0-57,0v94.5a86,86,0,0,0,86,86h0v159h71v-198a86,86,0,0,0,85.5-86V89A28.5,28.5,0,0,0,216.5,60.5Z"/><path class="cls-2" d="M243.5,86.88a2.5,2.5,0,0,1-5,0V75.15A2.5,2.5,0,0,1,240,72.86a28.47,28.47,0,0,0-23.15-12.35,2.47,2.47,0,0,1-3.51.17,28.26,28.26,0,0,0-8.83,2.47v1.71a2.5,2.5,0,0,1-4.75,1.08,28.61,28.61,0,0,0-8.28,9.42,2.85,2.85,0,0,1,0,.29V87.38a2.5,2.5,0,0,1-2.5,2.5,2.56,2.56,0,0,1-1-.21v7.15a2.39,2.39,0,0,1,1-.21,2.5,2.5,0,0,1,2.5,2.5v11.73a2.5,2.5,0,0,1-2.5,2.5,2.56,2.56,0,0,1-1-.21v7.15a2.39,2.39,0,0,1,1-.21,2.5,2.5,0,0,1,2.5,2.5V134.3a2.5,2.5,0,0,1-2.5,2.5,2.56,2.56,0,0,1-1-.21v7.15a2.39,2.39,0,0,1,1-.21,2.5,2.5,0,0,1,2.5,2.5v11.73a2.5,2.5,0,0,1-2.5,2.5,2.56,2.56,0,0,1-1-.21v7.15a2.39,2.39,0,0,1,1-.21,2.5,2.5,0,0,1,2.5,2.5v11.73a2.5,2.5,0,0,1-2.5,2.5,2.47,2.47,0,0,1-1.26-.36A28.91,28.91,0,0,1,178.5,201v5.23a2.5,2.5,0,0,1-5,0V204.6a28.88,28.88,0,0,1-14,3.89V38A35.5,35.5,0,0,0,124,2.5h0A35.49,35.49,0,0,0,88.82,33.3,2.46,2.46,0,0,1,89.5,35v6a2.5,2.5,0,0,1-1,2v7.94a2.48,2.48,0,0,1,1,2V64.83a2.51,2.51,0,0,1-1,2v7.93a2.51,2.51,0,0,1,1,2V88.66a2.51,2.51,0,0,1-1,2v7.93a2.51,2.51,0,0,1,1,2v11.92a2.48,2.48,0,0,1-1,2v7.94a2.5,2.5,0,0,1,1,2v11.91a2.49,2.49,0,0,1-1,2v7.94a2.5,2.5,0,0,1,1,2v11.91a2.5,2.5,0,0,1-1,2v7.94a2.49,2.49,0,0,1,1,2V184a2.5,2.5,0,0,1-1,2v7.94a2.49,2.49,0,0,1,1,2V207.8a2.5,2.5,0,0,1-1,2v7.94a2.48,2.48,0,0,1,1,2v11.92a2.51,2.51,0,0,1-1,2v7.93a2.51,2.51,0,0,1,1,2v11.92a2.5,2.5,0,0,1-5,0v-8.24a29,29,0,0,1-21-14v.94a2.5,2.5,0,0,1-5,0V222.41a2.48,2.48,0,0,1,1.07-2c0-.61-.07-1.23-.07-1.86v-5.84a2.48,2.48,0,0,1-1-2V199a2.49,2.49,0,0,1,1-2V189.2a2.48,2.48,0,0,1-1-2V175.49a2.49,2.49,0,0,1,1-2v-7.75a2.51,2.51,0,0,1-1-2V152a2.49,2.49,0,0,1,1-2v-7.75a2.51,2.51,0,0,1-1-2V128.57a2.49,2.49,0,0,1,1-2,28.36,28.36,0,0,0-9-19.38v11.11a2.5,2.5,0,0,1-5,0V106.61a2.48,2.48,0,0,1,1.42-2.25,28.44,28.44,0,0,0-9.51-4.13,2.59,2.59,0,0,1,.09.63v12a2.5,2.5,0,0,1-5,0v-12a2.46,2.46,0,0,1,.37-1.29c-.62,0-1.24-.07-1.87-.07a28.49,28.49,0,0,0-6,.63,2.47,2.47,0,0,1,.46,1.44v11.92a2.5,2.5,0,1,1-5,0V101.57s0,0,0-.07a28.46,28.46,0,0,0-8.09,4.9,2.49,2.49,0,0,1,.08.61v11.72a2.5,2.5,0,1,1-5,0v-6.85A28.37,28.37,0,0,0,2.5,128v94.5a85.77,85.77,0,0,0,5,28.92v-3.81a2.5,2.5,0,0,1,5,0v11.71a2.52,2.52,0,0,1-.81,1.84,85.79,85.79,0,0,0,8.81,14v-6.75a2.5,2.5,0,0,1,5,0v11.92a2.59,2.59,0,0,1-.09.63,86.13,86.13,0,0,0,9.72,9,2.5,2.5,0,0,1,2.24,1.74A88,88,0,0,0,45.5,297v-2.69a2.5,2.5,0,0,1,5,0v5.37a86.13,86.13,0,0,0,8,3.46V292.78a2.5,2.5,0,0,1,5,0v11.73a2.4,2.4,0,0,1,0,.28,85.27,85.27,0,0,0,8.75,2.15,2.46,2.46,0,0,1-.72-1.75V293.47a2.5,2.5,0,0,1,5,0v11.72a2.5,2.5,0,0,1-1.44,2.26A86.34,86.34,0,0,0,88.5,308.5h0V313a2.5,2.5,0,0,1,1,2v11.91a2.5,2.5,0,0,1-1,2v7.94a2.5,2.5,0,0,1,1,2v11.91a2.5,2.5,0,0,1-1,2v7.94a2.49,2.49,0,0,1,1,2V374.6a2.51,2.51,0,0,1-1,2v7.93a2.51,2.51,0,0,1,1,2v11.92a2.51,2.51,0,0,1-1,2v7.93a2.51,2.51,0,0,1,1,2v11.92a2.51,2.51,0,0,1-1,2v7.93a2.51,2.51,0,0,1,1,2v11.91a2.49,2.49,0,0,1-1,2V456a2.5,2.5,0,0,1,1,2v6a2.5,2.5,0,0,1-1,2v1.51h71v-198c.34,0,.67,0,1,0v-7a2.5,2.5,0,0,1,5,0v6.76q4-.3,8-1v-3.43a2.5,2.5,0,0,1,5,0v2.42q4.08-.94,8-2.27v-1.65a2.49,2.49,0,0,1,5-.2,85.85,85.85,0,0,0,21.3-12.54,2.51,2.51,0,0,1-.28-1.12V237.54a2.5,2.5,0,1,1,5,0v9a85.53,85.53,0,0,0,8-8.48v-1.52A2.5,2.5,0,0,1,228,234a2.35,2.35,0,0,1,.54.07,86.05,86.05,0,0,0,10-17.76v-.41a2.49,2.49,0,0,1,.92-1.93c.92-2.43,1.74-4.93,2.44-7.47a2.46,2.46,0,0,1-3.36-2.33V192.45a2.5,2.5,0,0,1,5,0v7A86.42,86.42,0,0,0,245,183.5V89a28.36,28.36,0,0,0-1.5-9.12Zm-231,149a2.5,2.5,0,0,1-5,0V224.18a2.5,2.5,0,0,1,5,0Zm0-23.43a2.5,2.5,0,0,1-5,0V200.74a2.5,2.5,0,0,1,5,0Zm0-23.43a2.5,2.5,0,0,1-5,0V177.31a2.5,2.5,0,0,1,5,0Zm0-23.44a2.5,2.5,0,0,1-5,0V153.88a2.5,2.5,0,0,1,5,0Zm0-23.43a2.5,2.5,0,0,1-5,0V130.45a2.5,2.5,0,0,1,5,0Zm13,114.3a2.5,2.5,0,0,1-5,0V244.54a2.5,2.5,0,1,1,5,0Zm0-23.83a2.5,2.5,0,0,1-5,0V220.71a2.5,2.5,0,0,1,5,0Zm0-23.83a2.5,2.5,0,0,1-5,0V196.89a2.5,2.5,0,0,1,5,0Zm0-23.83a2.5,2.5,0,0,1-5,0V173.06a2.5,2.5,0,0,1,5,0Zm0-23.83a2.5,2.5,0,0,1-5,0V149.23a2.5,2.5,0,0,1,5,0Zm0-23.83a2.5,2.5,0,0,1-5,0V125.4a2.5,2.5,0,0,1,5,0Zm12,143.12a2.5,2.5,0,0,1-5,0v-12a2.5,2.5,0,0,1,5,0Zm0-23.94a2.5,2.5,0,0,1-5,0v-12a2.5,2.5,0,0,1,5,0Zm0-24a2.5,2.5,0,0,1-5,0v-12a2.5,2.5,0,0,1,5,0Zm0-23.94a2.5,2.5,0,0,1-5,0v-12a2.5,2.5,0,0,1,5,0Zm0-23.94a2.5,2.5,0,0,1-5,0v-12a2.5,2.5,0,0,1,5,0Zm0-23.95a2.5,2.5,0,0,1-5,0v-12a2.5,2.5,0,0,1,5,0Zm0-23.94a2.5,2.5,0,0,1-5,0v-12a2.5,2.5,0,0,1,5,0Zm13,145.78a2.5,2.5,0,0,1-5,0V270.82a2.5,2.5,0,0,1,5,0Zm0-23.46a2.5,2.5,0,0,1-5,0V247.36a2.5,2.5,0,0,1,5,0Zm0-23.46a2.5,2.5,0,0,1-5,0V223.91a2.5,2.5,0,1,1,5,0Zm0-23.45a2.5,2.5,0,0,1-5,0V200.45a2.5,2.5,0,0,1,5,0Zm0-23.46a2.5,2.5,0,0,1-5,0V177a2.5,2.5,0,0,1,5,0Zm0-23.46a2.5,2.5,0,0,1-5,0V153.53a2.5,2.5,0,0,1,5,0Zm0-23.46a2.5,2.5,0,0,1-5,0V130.07a2.5,2.5,0,0,1,5,0Zm13,139.25a2.5,2.5,0,0,1-5,0V269.32a2.5,2.5,0,0,1,5,0Zm0-23.46a2.5,2.5,0,0,1-5,0V245.86a2.5,2.5,0,0,1,5,0Zm13,24.17a2.5,2.5,0,0,1-5,0V270a2.5,2.5,0,0,1,5,0Zm0-23.44a2.5,2.5,0,0,1-5,0V246.61a2.5,2.5,0,0,1,5,0Zm13,44.79a2.5,2.5,0,0,1-5,0V291.2a2.5,2.5,0,0,1,5,0Zm0-23.82a2.5,2.5,0,0,1-5,0V267.37a2.5,2.5,0,0,1,5,0ZM100.5,460a2.5,2.5,0,0,1-5,0v-6a2.5,2.5,0,0,1,5,0Zm0-18a2.5,2.5,0,0,1-5,0v-12a2.5,2.5,0,1,1,5,0Zm0-23.94a2.5,2.5,0,0,1-5,0v-12a2.5,2.5,0,0,1,5,0Zm0-23.95a2.5,2.5,0,0,1-5,0v-12a2.5,2.5,0,0,1,5,0Zm0-23.94a2.5,2.5,0,0,1-5,0v-12a2.5,2.5,0,0,1,5,0Zm0-23.94a2.5,2.5,0,0,1-5,0v-12a2.5,2.5,0,0,1,5,0Zm0-23.95a2.5,2.5,0,0,1-5,0v-12a2.5,2.5,0,0,1,5,0Zm0-23.94a2.5,2.5,0,0,1-5,0v-12a2.5,2.5,0,0,1,5,0Zm0-23.94a2.5,2.5,0,0,1-5,0v-12a2.5,2.5,0,0,1,5,0Zm0-23.94a2.5,2.5,0,0,1-5,0v-12a2.5,2.5,0,0,1,5,0Zm0-24a2.5,2.5,0,0,1-5,0v-12a2.5,2.5,0,0,1,5,0Zm0-23.94a2.5,2.5,0,1,1-5,0v-12a2.5,2.5,0,0,1,5,0Zm0-23.94a2.5,2.5,0,0,1-5,0v-12a2.5,2.5,0,0,1,5,0Zm0-23.95a2.5,2.5,0,0,1-5,0v-12a2.5,2.5,0,0,1,5,0Zm0-23.94a2.5,2.5,0,0,1-5,0v-12a2.5,2.5,0,0,1,5,0Zm0-23.94a2.5,2.5,0,0,1-5,0v-12a2.5,2.5,0,0,1,5,0Zm0-23.94a2.5,2.5,0,0,1-5,0v-12a2.5,2.5,0,0,1,5,0Zm0-24a2.5,2.5,0,0,1-5,0V47a2.5,2.5,0,0,1,5,0Zm0-23.94a2.5,2.5,0,0,1-5,0V29a2.5,2.5,0,0,1,5,0Zm13,423.5a2.5,2.5,0,0,1-5,0v-6a2.5,2.5,0,0,1,5,0Zm0-17.73a2.5,2.5,0,0,1-5,0V429a2.5,2.5,0,1,1,5,0Zm0-23.46a2.5,2.5,0,0,1-5,0V405.58a2.5,2.5,0,1,1,5,0Zm0-23.46a2.5,2.5,0,0,1-5,0V382.12a2.5,2.5,0,0,1,5,0Zm0-23.46a2.5,2.5,0,0,1-5,0V358.66a2.5,2.5,0,0,1,5,0Zm0-23.46a2.5,2.5,0,0,1-5,0V335.2a2.5,2.5,0,0,1,5,0Zm0-23.46a2.5,2.5,0,0,1-5,0V311.74a2.5,2.5,0,0,1,5,0Zm0-23.46a2.5,2.5,0,0,1-5,0V288.28a2.5,2.5,0,0,1,5,0Zm0-23.46a2.5,2.5,0,0,1-5,0V264.82a2.5,2.5,0,0,1,5,0Zm0-23.46a2.5,2.5,0,1,1-5,0V241.36a2.5,2.5,0,0,1,5,0Zm0-23.46a2.5,2.5,0,0,1-5,0V217.91a2.5,2.5,0,1,1,5,0Zm0-23.45a2.5,2.5,0,0,1-5,0V194.45a2.5,2.5,0,0,1,5,0Zm0-23.46a2.5,2.5,0,1,1-5,0V171a2.5,2.5,0,0,1,5,0Zm0-23.46a2.5,2.5,0,0,1-5,0V147.53a2.5,2.5,0,1,1,5,0Zm0-23.46a2.5,2.5,0,0,1-5,0V124.07a2.5,2.5,0,0,1,5,0Zm0-23.46a2.5,2.5,0,0,1-5,0V100.61a2.5,2.5,0,0,1,5,0Zm0-23.46a2.5,2.5,0,0,1-5,0V77.15a2.5,2.5,0,0,1,5,0Zm0-23.46a2.5,2.5,0,1,1-5,0V53.69a2.5,2.5,0,0,1,5,0Zm0-23.46a2.5,2.5,0,1,1-5,0V30.23a2.5,2.5,0,1,1,5,0Zm0-23.46a2.5,2.5,0,0,1-5,0v-6a2.5,2.5,0,0,1,5,0Zm13,438.5a2.5,2.5,0,0,1-5,0v-6a2.5,2.5,0,0,1,5,0Zm0-17.73a2.5,2.5,0,0,1-5,0V427.54a2.5,2.5,0,1,1,5,0Zm0-23.46a2.5,2.5,0,0,1-5,0V404.08a2.5,2.5,0,1,1,5,0Zm0-23.46a2.5,2.5,0,0,1-5,0V380.62a2.5,2.5,0,0,1,5,0Zm0-23.46a2.5,2.5,0,0,1-5,0V357.16a2.5,2.5,0,0,1,5,0Zm0-23.46a2.5,2.5,0,0,1-5,0V333.7a2.5,2.5,0,0,1,5,0Zm0-23.46a2.5,2.5,0,0,1-5,0V310.24a2.5,2.5,0,0,1,5,0Zm0-23.46a2.5,2.5,0,0,1-5,0V286.78a2.5,2.5,0,0,1,5,0Zm0-23.46a2.5,2.5,0,0,1-5,0V263.32a2.5,2.5,0,0,1,5,0Zm0-23.46a2.5,2.5,0,1,1-5,0V239.86a2.5,2.5,0,0,1,5,0Zm0-23.46a2.5,2.5,0,0,1-5,0V216.41a2.5,2.5,0,1,1,5,0Zm0-23.45a2.5,2.5,0,0,1-5,0V193a2.5,2.5,0,0,1,5,0Zm0-23.46a2.5,2.5,0,1,1-5,0V169.49a2.5,2.5,0,0,1,5,0Zm0-23.46a2.5,2.5,0,0,1-5,0V146a2.5,2.5,0,1,1,5,0Zm0-23.46a2.5,2.5,0,0,1-5,0V122.57a2.5,2.5,0,0,1,5,0Zm0-23.46a2.5,2.5,0,0,1-5,0V99.11a2.5,2.5,0,0,1,5,0Zm0-23.46a2.5,2.5,0,0,1-5,0V75.65a2.5,2.5,0,0,1,5,0Zm0-23.46a2.5,2.5,0,1,1-5,0V52.19a2.5,2.5,0,0,1,5,0Zm0-23.46a2.5,2.5,0,1,1-5,0V28.73a2.5,2.5,0,1,1,5,0Zm0-23.46a2.5,2.5,0,0,1-5,0V11a2.5,2.5,0,0,1,5,0Zm13,440.5a2.5,2.5,0,0,1-5,0v-6a2.5,2.5,0,0,1,5,0Zm0-17.72a2.5,2.5,0,0,1-5,0V428.07a2.5,2.5,0,1,1,5,0Zm0-23.43a2.5,2.5,0,0,1-5,0V404.63a2.5,2.5,0,0,1,5,0Zm0-23.43a2.5,2.5,0,1,1-5,0V381.2a2.5,2.5,0,0,1,5,0Zm0-23.43a2.5,2.5,0,0,1-5,0V357.77a2.5,2.5,0,0,1,5,0Zm0-23.44a2.5,2.5,0,0,1-5,0V334.34a2.5,2.5,0,0,1,5,0Zm0-23.43a2.5,2.5,0,0,1-5,0V310.91a2.5,2.5,0,0,1,5,0Zm0-23.43a2.5,2.5,0,0,1-5,0V287.47a2.5,2.5,0,0,1,5,0Zm0-23.43a2.5,2.5,0,0,1-5,0V264a2.5,2.5,0,0,1,5,0Zm0-23.44a2.5,2.5,0,0,1-5,0V240.61a2.5,2.5,0,0,1,5,0Zm0-23.43a2.5,2.5,0,0,1-5,0V217.18a2.5,2.5,0,0,1,5,0Zm0-23.43a2.5,2.5,0,1,1-5,0V193.74a2.5,2.5,0,0,1,5,0Zm0-23.43a2.5,2.5,0,0,1-5,0V170.31a2.5,2.5,0,0,1,5,0Zm0-23.44a2.5,2.5,0,1,1-5,0V146.88a2.5,2.5,0,0,1,5,0Zm0-23.43a2.5,2.5,0,0,1-5,0V123.45a2.5,2.5,0,1,1,5,0Zm0-23.43a2.5,2.5,0,1,1-5,0V100a2.5,2.5,0,1,1,5,0Zm0-23.43a2.5,2.5,0,1,1-5,0V76.58a2.5,2.5,0,1,1,5,0Zm0-23.44a2.5,2.5,0,1,1-5,0V53.15a2.5,2.5,0,0,1,5,0Zm0-23.43a2.5,2.5,0,1,1-5,0V29.72a2.5,2.5,0,0,1,5,0Zm0-23.43a2.5,2.5,0,0,1-5,0V12a2.5,2.5,0,0,1,5,0Zm13,440a2.5,2.5,0,0,1-5,0v-6a2.5,2.5,0,0,1,5,0Zm0-17.92a2.5,2.5,0,0,1-5,0V428.17a2.5,2.5,0,0,1,5,0Zm0-23.82a2.5,2.5,0,0,1-5,0V404.34a2.5,2.5,0,1,1,5,0Zm0-23.83a2.5,2.5,0,1,1-5,0V380.51a2.5,2.5,0,0,1,5,0Zm0-23.83a2.5,2.5,0,0,1-5,0V356.69a2.5,2.5,0,0,1,5,0Zm0-23.83a2.5,2.5,0,0,1-5,0V332.86a2.5,2.5,0,0,1,5,0Zm0-23.83a2.5,2.5,0,0,1-5,0V309a2.5,2.5,0,0,1,5,0Zm0-23.83a2.5,2.5,0,0,1-5,0V285.2a2.5,2.5,0,0,1,5,0Zm0-23.82a2.5,2.5,0,0,1-5,0V261.37a2.5,2.5,0,0,1,5,0Zm0-23.83a2.5,2.5,0,1,1-5,0V237.54a2.5,2.5,0,1,1,5,0Zm0-23.83a2.5,2.5,0,0,1-5,0V213.71a2.5,2.5,0,0,1,5,0Zm0-23.83a2.5,2.5,0,0,1-5,0V189.89a2.5,2.5,0,0,1,5,0Zm0-23.83a2.5,2.5,0,1,1-5,0V166.06a2.5,2.5,0,0,1,5,0Zm0-23.83a2.5,2.5,0,0,1-5,0V142.23a2.5,2.5,0,0,1,5,0Zm0-23.83a2.5,2.5,0,0,1-5,0V118.4a2.5,2.5,0,1,1,5,0Zm0-23.82a2.5,2.5,0,1,1-5,0V94.57a2.5,2.5,0,0,1,5,0Zm0-23.83a2.5,2.5,0,0,1-5,0V70.74a2.5,2.5,0,0,1,5,0Zm0-23.83a2.5,2.5,0,0,1-5,0V46.91a2.5,2.5,0,0,1,5,0Zm0-23.83a2.5,2.5,0,0,1-5,0V29a2.5,2.5,0,0,1,5,0Zm13,215.49a2.5,2.5,0,0,1-5,0v-12a2.5,2.5,0,0,1,5,0Zm0-24a2.5,2.5,0,0,1-5,0v-12a2.5,2.5,0,0,1,5,0Zm13,26.55a2.5,2.5,0,1,1-5,0V241.36a2.5,2.5,0,0,1,5,0Zm0-23.46a2.5,2.5,0,0,1-5,0V217.91a2.5,2.5,0,1,1,5,0Zm13,22a2.5,2.5,0,1,1-5,0V239.86a2.5,2.5,0,0,1,5,0Zm0-23.46a2.5,2.5,0,0,1-5,0V216.41a2.5,2.5,0,1,1,5,0Zm0-23.45a2.5,2.5,0,0,1-5,0V193a2.5,2.5,0,0,1,5,0Zm13,47.64a2.5,2.5,0,0,1-5,0V240.61a2.5,2.5,0,0,1,5,0Zm0-23.43a2.5,2.5,0,0,1-5,0V217.18a2.5,2.5,0,0,1,5,0Zm0-23.43a2.5,2.5,0,1,1-5,0V193.74a2.5,2.5,0,0,1,5,0Zm0-23.43a2.5,2.5,0,0,1-5,0V170.31a2.5,2.5,0,0,1,5,0Zm0-23.44a2.5,2.5,0,1,1-5,0V146.88a2.5,2.5,0,0,1,5,0Zm0-23.43a2.5,2.5,0,0,1-5,0V123.45a2.5,2.5,0,1,1,5,0Zm0-23.43a2.5,2.5,0,1,1-5,0V100a2.5,2.5,0,1,1,5,0Zm0-23.43a2.5,2.5,0,1,1-5,0V76.58a2.5,2.5,0,1,1,5,0Zm13,137.33a2.5,2.5,0,0,1-5,0V213.71a2.5,2.5,0,0,1,5,0Zm0-23.83a2.5,2.5,0,0,1-5,0V189.89a2.5,2.5,0,0,1,5,0Zm0-23.83a2.5,2.5,0,1,1-5,0V166.06a2.5,2.5,0,0,1,5,0Zm0-23.83a2.5,2.5,0,0,1-5,0V142.23a2.5,2.5,0,0,1,5,0Zm0-23.83a2.5,2.5,0,0,1-5,0V118.4a2.5,2.5,0,1,1,5,0Zm0-23.82a2.5,2.5,0,1,1-5,0V94.57a2.5,2.5,0,0,1,5,0Zm0-23.83a2.5,2.5,0,0,1-5,0V70.74a2.5,2.5,0,0,1,5,0Zm13,141.88a2.5,2.5,0,0,1-5,0v-12a2.5,2.5,0,0,1,5,0Zm0-23.94a2.5,2.5,0,1,1-5,0v-12a2.5,2.5,0,0,1,5,0Zm0-23.94a2.5,2.5,0,0,1-5,0v-12a2.5,2.5,0,0,1,5,0Zm0-23.95a2.5,2.5,0,1,1-5,0v-12a2.5,2.5,0,0,1,5,0Zm0-23.94a2.5,2.5,0,0,1-5,0v-12a2.5,2.5,0,0,1,5,0Zm0-23.94a2.5,2.5,0,0,1-5,0v-12a2.5,2.5,0,0,1,5,0Zm0-23.94a2.5,2.5,0,0,1-5,0v-12a2.5,2.5,0,1,1,5,0Zm13,99.83a2.5,2.5,0,1,1-5,0V169a2.5,2.5,0,0,1,5,0Zm0-23.46a2.5,2.5,0,0,1-5,0V145.53a2.5,2.5,0,1,1,5,0Zm0-23.46a2.5,2.5,0,0,1-5,0V122.07a2.5,2.5,0,0,1,5,0Zm0-23.46a2.5,2.5,0,1,1-5,0V98.61a2.5,2.5,0,0,1,5,0Z"/><path class="cls-3" d="M124,8.5a2.5,2.5,0,0,0-2.5,2.5v6a2.5,2.5,0,0,0,5,0V11A2.5,2.5,0,0,0,124,8.5Z"/><path class="cls-3" d="M124,284.28a2.5,2.5,0,0,0-2.5,2.5v11.73a2.5,2.5,0,0,0,5,0V286.78A2.5,2.5,0,0,0,124,284.28Z"/><path class="cls-3" d="M124,260.82a2.5,2.5,0,0,0-2.5,2.5v11.73a2.5,2.5,0,0,0,5,0V263.32A2.5,2.5,0,0,0,124,260.82Z"/><path class="cls-3" d="M124,307.74a2.5,2.5,0,0,0-2.5,2.5V322a2.5,2.5,0,0,0,5,0V310.24A2.5,2.5,0,0,0,124,307.74Z"/><path class="cls-3" d="M124,237.36a2.5,2.5,0,0,0-2.5,2.5v11.73a2.5,2.5,0,1,0,5,0V239.86A2.5,2.5,0,0,0,124,237.36Z"/><path class="cls-3" d="M124,213.91a2.49,2.49,0,0,0-2.5,2.5v11.72a2.5,2.5,0,0,0,5,0V216.41A2.49,2.49,0,0,0,124,213.91Z"/><path class="cls-3" d="M124,401.58a2.5,2.5,0,0,0-2.5,2.5v11.73a2.5,2.5,0,0,0,5,0V404.08A2.5,2.5,0,0,0,124,401.58Z"/><path class="cls-3" d="M124,425a2.5,2.5,0,0,0-2.5,2.5v11.73a2.5,2.5,0,0,0,5,0V427.54A2.5,2.5,0,0,0,124,425Z"/><path class="cls-3" d="M124,378.12a2.5,2.5,0,0,0-2.5,2.5v11.73a2.5,2.5,0,0,0,5,0V380.62A2.5,2.5,0,0,0,124,378.12Z"/><path class="cls-3" d="M124,354.66a2.5,2.5,0,0,0-2.5,2.5v11.73a2.5,2.5,0,0,0,5,0V357.16A2.5,2.5,0,0,0,124,354.66Z"/><path class="cls-3" d="M124,331.2a2.5,2.5,0,0,0-2.5,2.5v11.73a2.5,2.5,0,0,0,5,0V333.7A2.5,2.5,0,0,0,124,331.2Z"/><path class="cls-3" d="M124,96.61a2.5,2.5,0,0,0-2.5,2.5v11.73a2.5,2.5,0,0,0,5,0V99.11A2.5,2.5,0,0,0,124,96.61Z"/><path class="cls-3" d="M124,49.69a2.5,2.5,0,0,0-2.5,2.5V63.92a2.5,2.5,0,1,0,5,0V52.19A2.5,2.5,0,0,0,124,49.69Z"/><path class="cls-3" d="M124,190.45a2.49,2.49,0,0,0-2.5,2.5v11.73a2.5,2.5,0,0,0,5,0V193A2.49,2.49,0,0,0,124,190.45Z"/><path class="cls-3" d="M124,26.23a2.5,2.5,0,0,0-2.5,2.5V40.46a2.5,2.5,0,1,0,5,0V28.73A2.5,2.5,0,0,0,124,26.23Z"/><path class="cls-3" d="M124,73.15a2.5,2.5,0,0,0-2.5,2.5V87.38a2.5,2.5,0,0,0,5,0V75.65A2.5,2.5,0,0,0,124,73.15Z"/><path class="cls-3" d="M124,120.07a2.5,2.5,0,0,0-2.5,2.5V134.3a2.5,2.5,0,0,0,5,0V122.57A2.5,2.5,0,0,0,124,120.07Z"/><path class="cls-3" d="M124,143.53a2.5,2.5,0,0,0-2.5,2.5v11.73a2.5,2.5,0,0,0,5,0V146A2.5,2.5,0,0,0,124,143.53Z"/><path class="cls-3" d="M124,167a2.5,2.5,0,0,0-2.5,2.5v11.73a2.5,2.5,0,1,0,5,0V169.49A2.5,2.5,0,0,0,124,167Z"/><path class="cls-3" d="M124,448.5a2.5,2.5,0,0,0-2.5,2.5v6a2.5,2.5,0,0,0,5,0v-6A2.5,2.5,0,0,0,124,448.5Z"/><path class="cls-3" d="M111,10a2.5,2.5,0,0,0-2.5,2.5v6a2.5,2.5,0,0,0,5,0v-6A2.5,2.5,0,0,0,111,10Z"/><path class="cls-3" d="M111,51.19a2.5,2.5,0,0,0-2.5,2.5V65.42a2.5,2.5,0,1,0,5,0V53.69A2.5,2.5,0,0,0,111,51.19Z"/><path class="cls-3" d="M111,27.73a2.5,2.5,0,0,0-2.5,2.5V42a2.5,2.5,0,1,0,5,0V30.23A2.5,2.5,0,0,0,111,27.73Z"/><path class="cls-3" d="M111,215.41a2.49,2.49,0,0,0-2.5,2.5v11.72a2.5,2.5,0,0,0,5,0V217.91A2.49,2.49,0,0,0,111,215.41Z"/><path class="cls-3" d="M111,74.65a2.5,2.5,0,0,0-2.5,2.5V88.88a2.5,2.5,0,0,0,5,0V77.15A2.5,2.5,0,0,0,111,74.65Z"/><path class="cls-3" d="M111,192a2.49,2.49,0,0,0-2.5,2.5v11.73a2.5,2.5,0,0,0,5,0V194.45A2.49,2.49,0,0,0,111,192Z"/><path class="cls-3" d="M111,238.86a2.5,2.5,0,0,0-2.5,2.5v11.73a2.5,2.5,0,1,0,5,0V241.36A2.5,2.5,0,0,0,111,238.86Z"/><path class="cls-3" d="M111,262.32a2.5,2.5,0,0,0-2.5,2.5v11.73a2.5,2.5,0,0,0,5,0V264.82A2.5,2.5,0,0,0,111,262.32Z"/><path class="cls-3" d="M111,98.11a2.5,2.5,0,0,0-2.5,2.5v11.73a2.5,2.5,0,0,0,5,0V100.61A2.5,2.5,0,0,0,111,98.11Z"/><path class="cls-3" d="M111,121.57a2.5,2.5,0,0,0-2.5,2.5V135.8a2.5,2.5,0,0,0,5,0V124.07A2.5,2.5,0,0,0,111,121.57Z"/><path class="cls-3" d="M111,168.49a2.5,2.5,0,0,0-2.5,2.5v11.73a2.5,2.5,0,1,0,5,0V171A2.5,2.5,0,0,0,111,168.49Z"/><path class="cls-3" d="M111,285.78a2.5,2.5,0,0,0-2.5,2.5V300a2.5,2.5,0,0,0,5,0V288.28A2.5,2.5,0,0,0,111,285.78Z"/><path class="cls-3" d="M111,145a2.5,2.5,0,0,0-2.5,2.5v11.73a2.5,2.5,0,0,0,5,0V147.53A2.5,2.5,0,0,0,111,145Z"/><path class="cls-3" d="M111,403.08a2.5,2.5,0,0,0-2.5,2.5v11.73a2.5,2.5,0,0,0,5,0V405.58A2.5,2.5,0,0,0,111,403.08Z"/><path class="cls-3" d="M111,426.54a2.5,2.5,0,0,0-2.5,2.5v11.73a2.5,2.5,0,0,0,5,0V429A2.5,2.5,0,0,0,111,426.54Z"/><path class="cls-3" d="M111,379.62a2.5,2.5,0,0,0-2.5,2.5v11.73a2.5,2.5,0,0,0,5,0V382.12A2.5,2.5,0,0,0,111,379.62Z"/><path class="cls-3" d="M111,309.24a2.5,2.5,0,0,0-2.5,2.5v11.73a2.5,2.5,0,0,0,5,0V311.74A2.5,2.5,0,0,0,111,309.24Z"/><path class="cls-3" d="M111,356.16a2.5,2.5,0,0,0-2.5,2.5v11.73a2.5,2.5,0,0,0,5,0V358.66A2.5,2.5,0,0,0,111,356.16Z"/><path class="cls-3" d="M111,332.7a2.5,2.5,0,0,0-2.5,2.5v11.73a2.5,2.5,0,0,0,5,0V335.2A2.5,2.5,0,0,0,111,332.7Z"/><path class="cls-3" d="M111,450a2.5,2.5,0,0,0-2.5,2.5v6a2.5,2.5,0,0,0,5,0v-6A2.5,2.5,0,0,0,111,450Z"/><path class="cls-3" d="M98,26.5A2.5,2.5,0,0,0,95.5,29v6a2.5,2.5,0,0,0,5,0V29A2.5,2.5,0,0,0,98,26.5Z"/><path class="cls-3" d="M98,260a2.5,2.5,0,0,0-2.5,2.5v12a2.5,2.5,0,0,0,5,0v-12A2.5,2.5,0,0,0,98,260Z"/><path class="cls-3" d="M98,307.84a2.5,2.5,0,0,0-2.5,2.5v12a2.5,2.5,0,0,0,5,0v-12A2.5,2.5,0,0,0,98,307.84Z"/><path class="cls-3" d="M98,283.9a2.5,2.5,0,0,0-2.5,2.5v12a2.5,2.5,0,0,0,5,0v-12A2.5,2.5,0,0,0,98,283.9Z"/><path class="cls-3" d="M98,236a2.5,2.5,0,0,0-2.5,2.5v12a2.5,2.5,0,0,0,5,0v-12A2.5,2.5,0,0,0,98,236Z"/><path class="cls-3" d="M98,331.79a2.5,2.5,0,0,0-2.5,2.5v12a2.5,2.5,0,0,0,5,0v-12A2.5,2.5,0,0,0,98,331.79Z"/><path class="cls-3" d="M98,212.07a2.5,2.5,0,0,0-2.5,2.5v12a2.5,2.5,0,0,0,5,0v-12A2.5,2.5,0,0,0,98,212.07Z"/><path class="cls-3" d="M98,403.61a2.5,2.5,0,0,0-2.5,2.5v12a2.5,2.5,0,0,0,5,0v-12A2.5,2.5,0,0,0,98,403.61Z"/><path class="cls-3" d="M98,379.67a2.5,2.5,0,0,0-2.5,2.5v12a2.5,2.5,0,0,0,5,0v-12A2.5,2.5,0,0,0,98,379.67Z"/><path class="cls-3" d="M98,427.56a2.5,2.5,0,0,0-2.5,2.5v12a2.5,2.5,0,0,0,5,0v-12A2.5,2.5,0,0,0,98,427.56Z"/><path class="cls-3" d="M98,188.13a2.5,2.5,0,0,0-2.5,2.5v12a2.5,2.5,0,1,0,5,0v-12A2.5,2.5,0,0,0,98,188.13Z"/><path class="cls-3" d="M98,92.36a2.5,2.5,0,0,0-2.5,2.5v12a2.5,2.5,0,0,0,5,0v-12A2.5,2.5,0,0,0,98,92.36Z"/><path class="cls-3" d="M98,140.24a2.5,2.5,0,0,0-2.5,2.5v12a2.5,2.5,0,0,0,5,0v-12A2.5,2.5,0,0,0,98,140.24Z"/><path class="cls-3" d="M98,116.3a2.5,2.5,0,0,0-2.5,2.5v12a2.5,2.5,0,0,0,5,0v-12A2.5,2.5,0,0,0,98,116.3Z"/><path class="cls-3" d="M98,164.19a2.49,2.49,0,0,0-2.5,2.5v12a2.5,2.5,0,0,0,5,0v-12A2.49,2.49,0,0,0,98,164.19Z"/><path class="cls-3" d="M98,44.47A2.5,2.5,0,0,0,95.5,47v12a2.5,2.5,0,0,0,5,0V47A2.5,2.5,0,0,0,98,44.47Z"/><path class="cls-3" d="M98,68.41a2.5,2.5,0,0,0-2.5,2.5v12a2.5,2.5,0,0,0,5,0v-12A2.5,2.5,0,0,0,98,68.41Z"/><path class="cls-3" d="M98,355.73a2.5,2.5,0,0,0-2.5,2.5v12a2.5,2.5,0,0,0,5,0v-12A2.5,2.5,0,0,0,98,355.73Z"/><path class="cls-3" d="M98,451.5a2.5,2.5,0,0,0-2.5,2.5v6a2.5,2.5,0,0,0,5,0v-6A2.5,2.5,0,0,0,98,451.5Z"/><path class="cls-3" d="M137,9.5a2.5,2.5,0,0,0-2.5,2.5v6a2.5,2.5,0,0,0,5,0V12A2.5,2.5,0,0,0,137,9.5Z"/><path class="cls-3" d="M137,261.54a2.5,2.5,0,0,0-2.5,2.5v11.72a2.5,2.5,0,0,0,5,0V264A2.5,2.5,0,0,0,137,261.54Z"/><path class="cls-3" d="M137,285a2.5,2.5,0,0,0-2.5,2.5v11.72a2.5,2.5,0,0,0,5,0V287.47A2.5,2.5,0,0,0,137,285Z"/><path class="cls-3" d="M137,308.41a2.49,2.49,0,0,0-2.5,2.5v11.71a2.5,2.5,0,0,0,5,0V310.91A2.49,2.49,0,0,0,137,308.41Z"/><path class="cls-3" d="M137,355.27a2.5,2.5,0,0,0-2.5,2.5v11.72a2.5,2.5,0,0,0,5,0V357.77A2.5,2.5,0,0,0,137,355.27Z"/><path class="cls-3" d="M137,402.13a2.5,2.5,0,0,0-2.5,2.5v11.72a2.5,2.5,0,0,0,5,0V404.63A2.5,2.5,0,0,0,137,402.13Z"/><path class="cls-3" d="M137,378.7a2.5,2.5,0,0,0-2.5,2.5v11.72a2.5,2.5,0,1,0,5,0V381.2A2.5,2.5,0,0,0,137,378.7Z"/><path class="cls-3" d="M137,238.11a2.5,2.5,0,0,0-2.5,2.5v11.71a2.5,2.5,0,0,0,5,0V240.61A2.5,2.5,0,0,0,137,238.11Z"/><path class="cls-3" d="M137,167.81a2.5,2.5,0,0,0-2.5,2.5V182a2.5,2.5,0,0,0,5,0V170.31A2.5,2.5,0,0,0,137,167.81Z"/><path class="cls-3" d="M137,97.51a2.5,2.5,0,0,0-2.5,2.5v11.72a2.5,2.5,0,1,0,5,0V100A2.5,2.5,0,0,0,137,97.51Z"/><path class="cls-3" d="M137,121a2.49,2.49,0,0,0-2.5,2.5v11.71a2.5,2.5,0,0,0,5,0V123.45A2.49,2.49,0,0,0,137,121Z"/><path class="cls-3" d="M137,27.22a2.5,2.5,0,0,0-2.5,2.5V41.43a2.5,2.5,0,1,0,5,0V29.72A2.5,2.5,0,0,0,137,27.22Z"/><path class="cls-3" d="M137,191.24a2.5,2.5,0,0,0-2.5,2.5v11.72a2.5,2.5,0,1,0,5,0V193.74A2.5,2.5,0,0,0,137,191.24Z"/><path class="cls-3" d="M137,214.68a2.49,2.49,0,0,0-2.5,2.5v11.71a2.5,2.5,0,0,0,5,0V217.18A2.49,2.49,0,0,0,137,214.68Z"/><path class="cls-3" d="M137,425.57a2.5,2.5,0,0,0-2.5,2.5v11.71a2.5,2.5,0,0,0,5,0V428.07A2.5,2.5,0,0,0,137,425.57Z"/><path class="cls-3" d="M137,50.65a2.5,2.5,0,0,0-2.5,2.5V64.86a2.5,2.5,0,1,0,5,0V53.15A2.5,2.5,0,0,0,137,50.65Z"/><path class="cls-3" d="M137,74.08a2.5,2.5,0,0,0-2.5,2.5V88.3a2.5,2.5,0,1,0,5,0V76.58A2.5,2.5,0,0,0,137,74.08Z"/><path class="cls-3" d="M137,331.84a2.5,2.5,0,0,0-2.5,2.5v11.71a2.5,2.5,0,0,0,5,0V334.34A2.5,2.5,0,0,0,137,331.84Z"/><path class="cls-3" d="M137,144.38a2.5,2.5,0,0,0-2.5,2.5v11.71a2.5,2.5,0,1,0,5,0V146.88A2.5,2.5,0,0,0,137,144.38Z"/><path class="cls-3" d="M137,449a2.5,2.5,0,0,0-2.5,2.5v6a2.5,2.5,0,0,0,5,0v-6A2.5,2.5,0,0,0,137,449Z"/><path class="cls-3" d="M150,26.5a2.5,2.5,0,0,0-2.5,2.5v6a2.5,2.5,0,0,0,5,0V29A2.5,2.5,0,0,0,150,26.5Z"/><path class="cls-3" d="M150,330.36a2.5,2.5,0,0,0-2.5,2.5v11.91a2.5,2.5,0,0,0,5,0V332.86A2.5,2.5,0,0,0,150,330.36Z"/><path class="cls-3" d="M150,401.84a2.5,2.5,0,0,0-2.5,2.5v11.92a2.5,2.5,0,0,0,5,0V404.34A2.5,2.5,0,0,0,150,401.84Z"/><path class="cls-3" d="M150,258.87a2.5,2.5,0,0,0-2.5,2.5v11.92a2.5,2.5,0,0,0,5,0V261.37A2.5,2.5,0,0,0,150,258.87Z"/><path class="cls-3" d="M150,235a2.5,2.5,0,0,0-2.5,2.5v11.92a2.5,2.5,0,1,0,5,0V237.54A2.5,2.5,0,0,0,150,235Z"/><path class="cls-3" d="M150,425.67a2.5,2.5,0,0,0-2.5,2.5v11.91a2.5,2.5,0,0,0,5,0V428.17A2.5,2.5,0,0,0,150,425.67Z"/><path class="cls-3" d="M150,378a2.5,2.5,0,0,0-2.5,2.5v11.92a2.5,2.5,0,1,0,5,0V380.51A2.5,2.5,0,0,0,150,378Z"/><path class="cls-3" d="M150,354.19a2.49,2.49,0,0,0-2.5,2.5V368.6a2.5,2.5,0,0,0,5,0V356.69A2.49,2.49,0,0,0,150,354.19Z"/><path class="cls-3" d="M150,306.53a2.5,2.5,0,0,0-2.5,2.5v11.91a2.5,2.5,0,0,0,5,0V309A2.5,2.5,0,0,0,150,306.53Z"/><path class="cls-3" d="M150,282.7a2.5,2.5,0,0,0-2.5,2.5v11.91a2.5,2.5,0,0,0,5,0V285.2A2.5,2.5,0,0,0,150,282.7Z"/><path class="cls-3" d="M150,211.21a2.5,2.5,0,0,0-2.5,2.5v11.92a2.5,2.5,0,0,0,5,0V213.71A2.5,2.5,0,0,0,150,211.21Z"/><path class="cls-3" d="M150,68.24a2.5,2.5,0,0,0-2.5,2.5V82.66a2.5,2.5,0,0,0,5,0V70.74A2.5,2.5,0,0,0,150,68.24Z"/><path class="cls-3" d="M150,44.41a2.5,2.5,0,0,0-2.5,2.5V58.83a2.5,2.5,0,0,0,5,0V46.91A2.5,2.5,0,0,0,150,44.41Z"/><path class="cls-3" d="M150,92.07a2.5,2.5,0,0,0-2.5,2.5v11.92a2.5,2.5,0,1,0,5,0V94.57A2.5,2.5,0,0,0,150,92.07Z"/><path class="cls-3" d="M150,115.9a2.5,2.5,0,0,0-2.5,2.5v11.91a2.5,2.5,0,0,0,5,0V118.4A2.5,2.5,0,0,0,150,115.9Z"/><path class="cls-3" d="M150,163.56a2.5,2.5,0,0,0-2.5,2.5V178a2.5,2.5,0,1,0,5,0V166.06A2.5,2.5,0,0,0,150,163.56Z"/><path class="cls-3" d="M150,187.39a2.49,2.49,0,0,0-2.5,2.5V201.8a2.5,2.5,0,0,0,5,0V189.89A2.49,2.49,0,0,0,150,187.39Z"/><path class="cls-3" d="M150,139.73a2.5,2.5,0,0,0-2.5,2.5v11.91a2.5,2.5,0,0,0,5,0V142.23A2.5,2.5,0,0,0,150,139.73Z"/><path class="cls-3" d="M150,449.5a2.5,2.5,0,0,0-2.5,2.5v6a2.5,2.5,0,0,0,5,0v-6A2.5,2.5,0,0,0,150,449.5Z"/><path class="cls-3" d="M189,213.91a2.49,2.49,0,0,0-2.5,2.5v11.72a2.5,2.5,0,0,0,5,0V216.41A2.49,2.49,0,0,0,189,213.91Z"/><path class="cls-3" d="M189,237.36a2.5,2.5,0,0,0-2.5,2.5v11.73a2.5,2.5,0,1,0,5,0V239.86A2.5,2.5,0,0,0,189,237.36Z"/><path class="cls-3" d="M191.5,134.3V122.57a2.5,2.5,0,0,0-2.5-2.5,2.39,2.39,0,0,0-1,.21v16.31a2.56,2.56,0,0,0,1,.21A2.5,2.5,0,0,0,191.5,134.3Z"/><path class="cls-3" d="M191.5,110.84V99.11a2.5,2.5,0,0,0-2.5-2.5,2.39,2.39,0,0,0-1,.21v16.31a2.56,2.56,0,0,0,1,.21A2.5,2.5,0,0,0,191.5,110.84Z"/><path class="cls-3" d="M189,260.82a2.5,2.5,0,0,0-2.5,2.5V265c1.68-.57,3.34-1.18,5-1.85A2.5,2.5,0,0,0,189,260.82Z"/><path class="cls-3" d="M191.5,157.76V146a2.5,2.5,0,0,0-2.5-2.5,2.39,2.39,0,0,0-1,.21v16.31a2.56,2.56,0,0,0,1,.21A2.5,2.5,0,0,0,191.5,157.76Z"/><path class="cls-3" d="M191.5,87.38V75.65a2.85,2.85,0,0,0,0-.29A28.4,28.4,0,0,0,188,89v.67a2.56,2.56,0,0,0,1,.21A2.5,2.5,0,0,0,191.5,87.38Z"/><path class="cls-3" d="M191.5,181.22V169.49A2.5,2.5,0,0,0,189,167a2.39,2.39,0,0,0-1,.21v12.3a28.87,28.87,0,0,1-.26,3.86,2.47,2.47,0,0,0,1.26.36A2.5,2.5,0,0,0,191.5,181.22Z"/><path class="cls-3" d="M189,190.45a2.49,2.49,0,0,0-2.5,2.5v11.73a2.5,2.5,0,0,0,5,0V193A2.49,2.49,0,0,0,189,190.45Z"/><path class="cls-3" d="M176,262.32a2.5,2.5,0,0,0-2.5,2.5v3.43c1.68-.28,3.35-.63,5-1v-2.42A2.5,2.5,0,0,0,176,262.32Z"/><path class="cls-3" d="M176,208.68a2.5,2.5,0,0,0,2.5-2.5V201a29,29,0,0,1-5,3.65v1.58A2.5,2.5,0,0,0,176,208.68Z"/><path class="cls-3" d="M176,238.86a2.5,2.5,0,0,0-2.5,2.5v11.73a2.5,2.5,0,1,0,5,0V241.36A2.5,2.5,0,0,0,176,238.86Z"/><path class="cls-3" d="M176,215.41a2.49,2.49,0,0,0-2.5,2.5v11.72a2.5,2.5,0,0,0,5,0V217.91A2.49,2.49,0,0,0,176,215.41Z"/><path class="cls-3" d="M163,260a2.5,2.5,0,0,0-2.5,2.5v7c1.68,0,3.35-.12,5-.24v-6.76A2.5,2.5,0,0,0,163,260Z"/><path class="cls-3" d="M163,212.07a2.5,2.5,0,0,0-2.5,2.5v12a2.5,2.5,0,0,0,5,0v-12A2.5,2.5,0,0,0,163,212.07Z"/><path class="cls-3" d="M163,236a2.5,2.5,0,0,0-2.5,2.5v12a2.5,2.5,0,0,0,5,0v-12A2.5,2.5,0,0,0,163,236Z"/><path class="cls-3" d="M202,238.11a2.5,2.5,0,0,0-2.5,2.5v11.71a2.5,2.5,0,0,0,5,0V240.61A2.5,2.5,0,0,0,202,238.11Z"/><path class="cls-3" d="M202,67.36a2.49,2.49,0,0,0,2.5-2.5V63.15a28.86,28.86,0,0,0-4.75,2.79A2.5,2.5,0,0,0,202,67.36Z"/><path class="cls-3" d="M202,121a2.49,2.49,0,0,0-2.5,2.5v11.71a2.5,2.5,0,0,0,5,0V123.45A2.49,2.49,0,0,0,202,121Z"/><path class="cls-3" d="M202,214.68a2.49,2.49,0,0,0-2.5,2.5v11.71a2.5,2.5,0,0,0,5,0V217.18A2.49,2.49,0,0,0,202,214.68Z"/><path class="cls-3" d="M202,144.38a2.5,2.5,0,0,0-2.5,2.5v11.71a2.5,2.5,0,1,0,5,0V146.88A2.5,2.5,0,0,0,202,144.38Z"/><path class="cls-3" d="M202,191.24a2.5,2.5,0,0,0-2.5,2.5v11.72a2.5,2.5,0,1,0,5,0V193.74A2.5,2.5,0,0,0,202,191.24Z"/><path class="cls-3" d="M202,74.08a2.5,2.5,0,0,0-2.5,2.5V88.3a2.5,2.5,0,1,0,5,0V76.58A2.5,2.5,0,0,0,202,74.08Z"/><path class="cls-3" d="M202,97.51a2.5,2.5,0,0,0-2.5,2.5v11.72a2.5,2.5,0,1,0,5,0V100A2.5,2.5,0,0,0,202,97.51Z"/><path class="cls-3" d="M202,167.81a2.5,2.5,0,0,0-2.5,2.5V182a2.5,2.5,0,0,0,5,0V170.31A2.5,2.5,0,0,0,202,167.81Z"/><path class="cls-3" d="M216.84,60.51h-.34a27.68,27.68,0,0,0-3.17.18,2.47,2.47,0,0,0,3.51-.17Z"/><path class="cls-3" d="M215,92.07a2.5,2.5,0,0,0-2.5,2.5v11.92a2.5,2.5,0,1,0,5,0V94.57A2.5,2.5,0,0,0,215,92.07Z"/><path class="cls-3" d="M215,139.73a2.5,2.5,0,0,0-2.5,2.5v11.91a2.5,2.5,0,0,0,5,0V142.23A2.5,2.5,0,0,0,215,139.73Z"/><path class="cls-3" d="M215,211.21a2.5,2.5,0,0,0-2.5,2.5v11.92a2.5,2.5,0,0,0,5,0V213.71A2.5,2.5,0,0,0,215,211.21Z"/><path class="cls-3" d="M215,115.9a2.5,2.5,0,0,0-2.5,2.5v11.91a2.5,2.5,0,0,0,5,0V118.4A2.5,2.5,0,0,0,215,115.9Z"/><path class="cls-3" d="M215,235a2.5,2.5,0,0,0-2.5,2.5v11.92a2.51,2.51,0,0,0,.28,1.12c1.62-1.3,3.2-2.65,4.72-4.07v-9A2.5,2.5,0,0,0,215,235Z"/><path class="cls-3" d="M215,68.24a2.5,2.5,0,0,0-2.5,2.5V82.66a2.5,2.5,0,0,0,5,0V70.74A2.5,2.5,0,0,0,215,68.24Z"/><path class="cls-3" d="M215,187.39a2.49,2.49,0,0,0-2.5,2.5V201.8a2.5,2.5,0,0,0,5,0V189.89A2.49,2.49,0,0,0,215,187.39Z"/><path class="cls-3" d="M215,163.56a2.5,2.5,0,0,0-2.5,2.5V178a2.5,2.5,0,1,0,5,0V166.06A2.5,2.5,0,0,0,215,163.56Z"/><path class="cls-3" d="M241,96.11a2.5,2.5,0,0,0-2.5,2.5v11.73a2.5,2.5,0,1,0,5,0V98.61A2.5,2.5,0,0,0,241,96.11Z"/><path class="cls-3" d="M238.5,215.91v.41c.32-.77.62-1.55.92-2.34A2.49,2.49,0,0,0,238.5,215.91Z"/><path class="cls-3" d="M241,190a2.49,2.49,0,0,0-2.5,2.5v11.73a2.46,2.46,0,0,0,3.36,2.33c.64-2.31,1.19-4.67,1.64-7.06v-7A2.49,2.49,0,0,0,241,190Z"/><path class="cls-3" d="M241,166.49a2.5,2.5,0,0,0-2.5,2.5v11.73a2.5,2.5,0,1,0,5,0V169A2.5,2.5,0,0,0,241,166.49Z"/><path class="cls-3" d="M241,143a2.5,2.5,0,0,0-2.5,2.5v11.73a2.5,2.5,0,0,0,5,0V145.53A2.5,2.5,0,0,0,241,143Z"/><path class="cls-3" d="M238.5,75.15V86.88a2.5,2.5,0,0,0,5,0v-7a28.48,28.48,0,0,0-3.51-7A2.5,2.5,0,0,0,238.5,75.15Z"/><path class="cls-3" d="M241,119.57a2.5,2.5,0,0,0-2.5,2.5V133.8a2.5,2.5,0,0,0,5,0V122.07A2.5,2.5,0,0,0,241,119.57Z"/><path class="cls-3" d="M228,162.19a2.49,2.49,0,0,0-2.5,2.5v12a2.5,2.5,0,0,0,5,0v-12A2.49,2.49,0,0,0,228,162.19Z"/><path class="cls-3" d="M228,186.13a2.5,2.5,0,0,0-2.5,2.5v12a2.5,2.5,0,1,0,5,0v-12A2.5,2.5,0,0,0,228,186.13Z"/><path class="cls-3" d="M228,138.24a2.5,2.5,0,0,0-2.5,2.5v12a2.5,2.5,0,1,0,5,0v-12A2.5,2.5,0,0,0,228,138.24Z"/><path class="cls-3" d="M225.5,236.51V238c1.05-1.28,2.06-2.61,3-3.95A2.35,2.35,0,0,0,228,234,2.5,2.5,0,0,0,225.5,236.51Z"/><path class="cls-3" d="M228,90.36a2.5,2.5,0,0,0-2.5,2.5v12a2.5,2.5,0,0,0,5,0v-12A2.5,2.5,0,0,0,228,90.36Z"/><path class="cls-3" d="M228,114.3a2.5,2.5,0,0,0-2.5,2.5v12a2.5,2.5,0,0,0,5,0v-12A2.5,2.5,0,0,0,228,114.3Z"/><path class="cls-3" d="M228,210.07a2.5,2.5,0,0,0-2.5,2.5v12a2.5,2.5,0,0,0,5,0v-12A2.5,2.5,0,0,0,228,210.07Z"/><path class="cls-3" d="M228,66.41a2.5,2.5,0,0,0-2.5,2.5v12a2.5,2.5,0,0,0,5,0v-12A2.5,2.5,0,0,0,228,66.41Z"/><path class="cls-3" d="M58.5,199v11.73a2.48,2.48,0,0,0,1,2V197A2.49,2.49,0,0,0,58.5,199Z"/><path class="cls-3" d="M58.5,152v11.73a2.51,2.51,0,0,0,1,2V150A2.49,2.49,0,0,0,58.5,152Z"/><path class="cls-3" d="M58.5,175.49v11.73a2.48,2.48,0,0,0,1,2V173.5A2.49,2.49,0,0,0,58.5,175.49Z"/><path class="cls-3" d="M58.5,128.57V140.3a2.51,2.51,0,0,0,1,2V128c0-.47,0-.93,0-1.39A2.49,2.49,0,0,0,58.5,128.57Z"/><path class="cls-3" d="M63.5,292.78a2.5,2.5,0,0,0-5,0v10.33q2.45.92,5,1.68a2.4,2.4,0,0,0,0-.28Z"/><path class="cls-3" d="M61,266.82a2.5,2.5,0,0,0-2.5,2.5v11.73a2.5,2.5,0,0,0,5,0V269.32A2.5,2.5,0,0,0,61,266.82Z"/><path class="cls-3" d="M61,243.36a2.5,2.5,0,0,0-2.5,2.5v11.73a2.5,2.5,0,0,0,5,0V245.86A2.5,2.5,0,0,0,61,243.36Z"/><path class="cls-3" d="M58.5,222.41v11.72a2.5,2.5,0,0,0,5,0v-.94a28.75,28.75,0,0,1-3.93-12.83A2.48,2.48,0,0,0,58.5,222.41Z"/><path class="cls-3" d="M48,151a2.5,2.5,0,0,0-2.5,2.5v11.73a2.5,2.5,0,0,0,5,0V153.53A2.5,2.5,0,0,0,48,151Z"/><path class="cls-3" d="M45.5,106.61v11.73a2.5,2.5,0,0,0,5,0V107.23a28.31,28.31,0,0,0-3.58-2.87A2.48,2.48,0,0,0,45.5,106.61Z"/><path class="cls-3" d="M48,268.32a2.5,2.5,0,0,0-2.5,2.5v11.73a2.5,2.5,0,0,0,5,0V270.82A2.5,2.5,0,0,0,48,268.32Z"/><path class="cls-3" d="M48,244.86a2.5,2.5,0,0,0-2.5,2.5v11.73a2.5,2.5,0,0,0,5,0V247.36A2.5,2.5,0,0,0,48,244.86Z"/><path class="cls-3" d="M48,221.41a2.49,2.49,0,0,0-2.5,2.5v11.72a2.5,2.5,0,0,0,5,0V223.91A2.49,2.49,0,0,0,48,221.41Z"/><path class="cls-3" d="M48,291.78a2.5,2.5,0,0,0-2.5,2.5V297c1.64.94,3.3,1.84,5,2.68v-5.37A2.5,2.5,0,0,0,48,291.78Z"/><path class="cls-3" d="M48,198a2.49,2.49,0,0,0-2.5,2.5v11.73a2.5,2.5,0,0,0,5,0V200.45A2.49,2.49,0,0,0,48,198Z"/><path class="cls-3" d="M48,127.57a2.5,2.5,0,0,0-2.5,2.5V141.8a2.5,2.5,0,0,0,5,0V130.07A2.5,2.5,0,0,0,48,127.57Z"/><path class="cls-3" d="M48,174.49a2.5,2.5,0,0,0-2.5,2.5v11.73a2.5,2.5,0,0,0,5,0V177A2.5,2.5,0,0,0,48,174.49Z"/><path class="cls-3" d="M35,242a2.5,2.5,0,0,0-2.5,2.5v12a2.5,2.5,0,0,0,5,0v-12A2.5,2.5,0,0,0,35,242Z"/><path class="cls-3" d="M35,170.19a2.49,2.49,0,0,0-2.5,2.5v12a2.5,2.5,0,0,0,5,0v-12A2.49,2.49,0,0,0,35,170.19Z"/><path class="cls-3" d="M35.13,289.91c.74.59,1.48,1.18,2.24,1.74A2.5,2.5,0,0,0,35.13,289.91Z"/><path class="cls-3" d="M35,194.13a2.5,2.5,0,0,0-2.5,2.5v12a2.5,2.5,0,0,0,5,0v-12A2.5,2.5,0,0,0,35,194.13Z"/><path class="cls-3" d="M35,218.07a2.5,2.5,0,0,0-2.5,2.5v12a2.5,2.5,0,0,0,5,0v-12A2.5,2.5,0,0,0,35,218.07Z"/><path class="cls-3" d="M35,122.3a2.5,2.5,0,0,0-2.5,2.5v12a2.5,2.5,0,0,0,5,0v-12A2.5,2.5,0,0,0,35,122.3Z"/><path class="cls-3" d="M35,266a2.5,2.5,0,0,0-2.5,2.5v12a2.5,2.5,0,0,0,5,0v-12A2.5,2.5,0,0,0,35,266Z"/><path class="cls-3" d="M35,146.24a2.5,2.5,0,0,0-2.5,2.5v12a2.5,2.5,0,0,0,5,0v-12A2.5,2.5,0,0,0,35,146.24Z"/><path class="cls-3" d="M32.5,112.83a2.5,2.5,0,0,0,5,0v-12a2.59,2.59,0,0,0-.09-.63,28.22,28.22,0,0,0-4.54-.66,2.46,2.46,0,0,0-.37,1.29Z"/><path class="cls-3" d="M74,244.11a2.5,2.5,0,0,0-2.5,2.5v11.71a2.5,2.5,0,0,0,5,0V246.61A2.5,2.5,0,0,0,74,244.11Z"/><path class="cls-3" d="M74,267.54a2.5,2.5,0,0,0-2.5,2.5v11.72a2.5,2.5,0,0,0,5,0V270A2.5,2.5,0,0,0,74,267.54Z"/><path class="cls-3" d="M76.5,305.19V293.47a2.5,2.5,0,0,0-5,0v11.72a2.46,2.46,0,0,0,.72,1.75c.94.18,1.88.36,2.84.51A2.5,2.5,0,0,0,76.5,305.19Z"/><path class="cls-3" d="M89.5,41V35a2.46,2.46,0,0,0-.68-1.7A36.37,36.37,0,0,0,88.5,38v5A2.5,2.5,0,0,0,89.5,41Z"/><path class="cls-3" d="M89.5,184V172.06a2.49,2.49,0,0,0-1-2V186A2.5,2.5,0,0,0,89.5,184Z"/><path class="cls-3" d="M89.5,446.08V434.17a2.51,2.51,0,0,0-1-2v15.89A2.49,2.49,0,0,0,89.5,446.08Z"/><path class="cls-3" d="M87,264.87a2.5,2.5,0,0,0-2.5,2.5v11.92a2.5,2.5,0,0,0,5,0V267.37A2.5,2.5,0,0,0,87,264.87Z"/><path class="cls-3" d="M89.5,231.63V219.71a2.48,2.48,0,0,0-1-2v15.89A2.51,2.51,0,0,0,89.5,231.63Z"/><path class="cls-3" d="M89.5,422.26V410.34a2.51,2.51,0,0,0-1-2v15.9A2.51,2.51,0,0,0,89.5,422.26Z"/><path class="cls-3" d="M87,288.7a2.5,2.5,0,0,0-2.5,2.5v11.91a2.5,2.5,0,0,0,5,0V291.2A2.5,2.5,0,0,0,87,288.7Z"/><path class="cls-3" d="M89.5,350.77V338.86a2.5,2.5,0,0,0-1-2v15.89A2.5,2.5,0,0,0,89.5,350.77Z"/><path class="cls-3" d="M89.5,374.6V362.69a2.49,2.49,0,0,0-1-2v15.89A2.51,2.51,0,0,0,89.5,374.6Z"/><path class="cls-3" d="M89.5,398.43V386.51a2.51,2.51,0,0,0-1-2v15.9A2.51,2.51,0,0,0,89.5,398.43Z"/><path class="cls-3" d="M89.5,64.83V52.91a2.48,2.48,0,0,0-1-2V66.82A2.51,2.51,0,0,0,89.5,64.83Z"/><path class="cls-3" d="M89.5,326.94V315a2.5,2.5,0,0,0-1-2v15.89A2.5,2.5,0,0,0,89.5,326.94Z"/><path class="cls-3" d="M89.5,88.66V76.74a2.51,2.51,0,0,0-1-2v15.9A2.51,2.51,0,0,0,89.5,88.66Z"/><path class="cls-3" d="M89.5,112.49V100.57a2.51,2.51,0,0,0-1-2v15.89A2.48,2.48,0,0,0,89.5,112.49Z"/><path class="cls-3" d="M89.5,160.14V148.23a2.5,2.5,0,0,0-1-2v15.89A2.5,2.5,0,0,0,89.5,160.14Z"/><path class="cls-3" d="M89.5,207.8V195.89a2.49,2.49,0,0,0-1-2v15.89A2.5,2.5,0,0,0,89.5,207.8Z"/><path class="cls-3" d="M87,258a2.5,2.5,0,0,0,2.5-2.5V243.54a2.51,2.51,0,0,0-1-2v5.95a29.31,29.31,0,0,1-4-.28v8.24A2.5,2.5,0,0,0,87,258Z"/><path class="cls-3" d="M89.5,136.31V124.4a2.5,2.5,0,0,0-1-2V138.3A2.49,2.49,0,0,0,89.5,136.31Z"/><path class="cls-3" d="M89.5,464v-6a2.5,2.5,0,0,0-1-2v10A2.5,2.5,0,0,0,89.5,464Z"/><path class="cls-3" d="M10,198.24a2.5,2.5,0,0,0-2.5,2.5v11.72a2.5,2.5,0,0,0,5,0V200.74A2.5,2.5,0,0,0,10,198.24Z"/><path class="cls-3" d="M10,174.81a2.5,2.5,0,0,0-2.5,2.5V189a2.5,2.5,0,0,0,5,0V177.31A2.5,2.5,0,0,0,10,174.81Z"/><path class="cls-3" d="M12.5,259.32V247.61a2.5,2.5,0,0,0-5,0v3.81a85,85,0,0,0,4.19,9.74A2.52,2.52,0,0,0,12.5,259.32Z"/><path class="cls-3" d="M10,151.38a2.5,2.5,0,0,0-2.5,2.5v11.71a2.5,2.5,0,0,0,5,0V153.88A2.5,2.5,0,0,0,10,151.38Z"/><path class="cls-3" d="M10,128a2.49,2.49,0,0,0-2.5,2.5v11.71a2.5,2.5,0,0,0,5,0V130.45A2.49,2.49,0,0,0,10,128Z"/><path class="cls-3" d="M10,121.23a2.5,2.5,0,0,0,2.5-2.5V107a2.49,2.49,0,0,0-.08-.61,28.8,28.8,0,0,0-4.92,5.48v6.85A2.5,2.5,0,0,0,10,121.23Z"/><path class="cls-3" d="M10,221.68a2.49,2.49,0,0,0-2.5,2.5v11.71a2.5,2.5,0,0,0,5,0V224.18A2.49,2.49,0,0,0,10,221.68Z"/><path class="cls-3" d="M23,218.21a2.5,2.5,0,0,0-2.5,2.5v11.92a2.5,2.5,0,0,0,5,0V220.71A2.5,2.5,0,0,0,23,218.21Z"/><path class="cls-3" d="M23,194.39a2.49,2.49,0,0,0-2.5,2.5V208.8a2.5,2.5,0,0,0,5,0V196.89A2.49,2.49,0,0,0,23,194.39Z"/><path class="cls-3" d="M23,146.73a2.5,2.5,0,0,0-2.5,2.5v11.91a2.5,2.5,0,0,0,5,0V149.23A2.5,2.5,0,0,0,23,146.73Z"/><path class="cls-3" d="M23,170.56a2.5,2.5,0,0,0-2.5,2.5V185a2.5,2.5,0,0,0,5,0V173.06A2.5,2.5,0,0,0,23,170.56Z"/><path class="cls-3" d="M23,122.9a2.5,2.5,0,0,0-2.5,2.5v11.91a2.5,2.5,0,0,0,5,0V125.4A2.5,2.5,0,0,0,23,122.9Z"/><path class="cls-3" d="M23,242a2.5,2.5,0,0,0-2.5,2.5v11.92a2.5,2.5,0,0,0,5,0V244.54A2.5,2.5,0,0,0,23,242Z"/><path class="cls-3" d="M20.5,113.49a2.5,2.5,0,1,0,5,0V101.57a2.47,2.47,0,0,0-.46-1.44,28.28,28.28,0,0,0-4.53,1.37s0,0,0,.07Z"/><path class="cls-3" d="M25.5,268.37a2.5,2.5,0,0,0-5,0v6.75c1.55,2,3.19,3.94,4.91,5.8a2.59,2.59,0,0,0,.09-.63Z"/></g></g></g></svg>