<svg xmlns="http://www.w3.org/2000/svg" viewBox="0 0 242.5 465"><defs><style>.cls-1{fill:#756d45;}</style></defs><g id="Layer_2" data-name="Layer 2"><g id="Desert_copy" data-name="Desert copy"><g id="desert--cactus"><path class="cls-1" d="M214,58h0a28.5,28.5,0,0,0-28.5,28.5V177A29,29,0,0,1,157,206V35.5A35.5,35.5,0,0,0,121.5,0h0A35.5,35.5,0,0,0,86,35.5V245a29,29,0,0,1-29-29V125.5a28.5,28.5,0,0,0-57,0V220a86,86,0,0,0,86,86h0V465h71V267a86,86,0,0,0,85.5-86V86.5A28.5,28.5,0,0,0,214,58Z"/></g></g></g></svg>