<svg xmlns="http://www.w3.org/2000/svg" viewBox="0 0 79 78.23"><defs><style>.cls-1{fill:#cebf9f;}</style></defs><g id="Layer_2" data-name="Layer 2"><g id="Desert_copy" data-name="Desert copy"><g id="desert--tumblewed"><path class="cls-1" d="M79,39.11c0,1.82-4.11,3.32-4.36,5.06s3.27,4.38,2.77,6.08-4.87,2-5.61,3.61,1.9,5.12.93,6.61-5.23.55-6.4,1.89.39,5.44-1,6.61-5.17-1-6.68,0-1.15,5.33-2.78,6.07-4.68-2.37-6.4-1.86-2.6,4.77-4.39,5-3.81-3.61-5.62-3.61-3.88,3.86-5.62,3.61-2.69-4.54-4.39-5-4.79,2.6-6.4,1.86S21.8,70,20.31,69,15,70.13,13.63,69s.21-5.26-1-6.61S7.24,62,6.27,60.47s1.67-5,.93-6.61S2.1,52,1.59,50.25s3-4.29,2.77-6.08S0,40.93,0,39.11s4.11-3.31,4.36-5S1.09,29.68,1.59,28s4.87-2,5.61-3.62-1.9-5.11-.93-6.61,5.23-.54,6.4-1.88-.39-5.44,1-6.61,5.17,1,6.68,0,1.15-5.32,2.78-6.06S27.77,5.55,29.49,5s2.6-4.77,4.39-5,3.81,3.6,5.62,3.6S43.38-.24,45.12,0s2.69,4.54,4.39,5,4.79-2.6,6.4-1.86,1.29,5.1,2.78,6.07,5.33-1.15,6.68,0-.21,5.26,1,6.61,5.43.38,6.4,1.89-1.67,5-.93,6.61,5.1,1.89,5.61,3.61-3,4.29-2.77,6.08S79,37.3,79,39.11Z"/></g></g></g></svg>