<svg xmlns="http://www.w3.org/2000/svg" viewBox="0 0 82 81.23"><defs><style>.cls-1{fill:#d9ae61;}.cls-2{fill:none;stroke:#d68c45;stroke-miterlimit:10;stroke-width:3px;}</style></defs><g id="Layer_2" data-name="Layer 2"><g id="Desert"><g id="desert--tumblewed"><path class="cls-1" d="M80.5,40.61c0,1.82-4.11,3.32-4.36,5.06s3.27,4.38,2.77,6.08-4.87,2-5.61,3.61,1.9,5.12.93,6.61-5.23.55-6.4,1.89.39,5.44-1,6.61-5.17-1-6.68,0S59,75.81,57.41,76.55s-4.68-2.37-6.4-1.86-2.6,4.77-4.39,5S42.81,76.11,41,76.11,37.12,80,35.38,79.72s-2.69-4.54-4.39-5-4.79,2.6-6.4,1.86-1.29-5.1-2.78-6.07-5.33,1.15-6.68,0,.21-5.26-1-6.61S8.74,63.48,7.77,62s1.67-5,.93-6.61-5.1-1.89-5.61-3.61,3-4.29,2.77-6.08S1.5,42.43,1.5,40.61s4.11-3.31,4.36-5-3.27-4.38-2.77-6.08,4.87-2,5.61-3.62-1.9-5.11-.93-6.61,5.23-.54,6.4-1.88-.39-5.44,1-6.61,5.17,1,6.68,0S23,5.42,24.59,4.68,29.27,7.05,31,6.54s2.6-4.77,4.39-5,3.81,3.6,5.62,3.6,3.88-3.85,5.62-3.6,2.69,4.54,4.39,5,4.79-2.6,6.4-1.86,1.29,5.1,2.78,6.07,5.33-1.15,6.68,0-.21,5.26,1,6.61,5.43.38,6.4,1.89-1.67,5-.93,6.61,5.1,1.89,5.61,3.61-3,4.29-2.77,6.08S80.5,38.8,80.5,40.61Z"/><path class="cls-2" d="M80.5,40.61c0,1.82-4.11,3.32-4.36,5.06s3.27,4.38,2.77,6.08-4.87,2-5.61,3.61,1.9,5.12.93,6.61-5.23.55-6.4,1.89.39,5.44-1,6.61-5.17-1-6.68,0S59,75.81,57.41,76.55s-4.68-2.37-6.4-1.86-2.6,4.77-4.39,5S42.81,76.11,41,76.11,37.12,80,35.38,79.72s-2.69-4.54-4.39-5-4.79,2.6-6.4,1.86-1.29-5.1-2.78-6.07-5.33,1.15-6.68,0,.21-5.26-1-6.61S8.74,63.48,7.77,62s1.67-5,.93-6.61-5.1-1.89-5.61-3.61,3-4.29,2.77-6.08S1.5,42.43,1.5,40.61s4.11-3.31,4.36-5-3.27-4.38-2.77-6.08,4.87-2,5.61-3.62-1.9-5.11-.93-6.61,5.23-.54,6.4-1.88-.39-5.44,1-6.61,5.17,1,6.68,0S23,5.42,24.59,4.68,29.27,7.05,31,6.54s2.6-4.77,4.39-5,3.81,3.6,5.62,3.6,3.88-3.85,5.62-3.6,2.69,4.54,4.39,5,4.79-2.6,6.4-1.86,1.29,5.1,2.78,6.07,5.33-1.15,6.68,0-.21,5.26,1,6.61,5.43.38,6.4,1.89-1.67,5-.93,6.61,5.1,1.89,5.61,3.61-3,4.29-2.77,6.08S80.5,38.8,80.5,40.61Z"/></g></g></g></svg>