<svg xmlns="http://www.w3.org/2000/svg" viewBox="0 0 548.44 288.65"><defs><style>.cls-1{fill:#d6a300;}.cls-2{fill:#e7be32;}.cls-3{fill:#ffe04d;}.cls-4{fill:#ae9102;}.cls-5{fill:#cd9c19;}.cls-6{fill:#0a0202;}</style></defs><g id="Layer_2" data-name="Layer 2"><g id="Layer_2-2" data-name="Layer 2"><g id="Banana"><path class="cls-1" d="M545.16,54.36c-7.83,17.81-15.81,36.29-15.65,55.74.1,11.75,5.17,22.61,7.36,34.31,2.32,12.36-1.32,25.54-5.44,37.25-4.39,12.5-16.6,23.91-26.26,33-20.41,19.17-44.17,36.19-70,47-14.9,6.23-22.92,10-38.79,13.08-14.94,2.87-29.88,7.75-44.82,10.62-11.69,2.24-31.39,3.3-44.39,3.3-27,0-50.13-3-77-6-36.43-4-78-15-100.63-23.36-17-6.29-38.67-11.53-54.37-20.64-8.64-5-23.19-13.78-31-20-11.52-9.19-18-14-26-23.59-3.12-3.72-8.54-5.75-13.19-10-2.49-2.26-5.19-5-4.94-8.37.17-2.39,1.83-4.42,2.24-6.77.37-2.18-.36-4.38-.41-6.58s1-4.8,3.16-5.17c-.71-1.93-.93-3.8.16-5.53s1.65-.87,3.37-1.49c3-1.09,7.88-1.2,11.63-1.51,5.17-.44,10.92.92,16,2,2.72.57,5.45,1.44,8.14,1.07,14.86-2.07,29.49-4.86,44.68-4.38,15.63.5,72.65,14.89,83.18,17.31,38.65,8.85,73.43,15.32,113.08,15.07,23-.14,45.85-3.36,68.51-7.24,12.34-2.11,26.56-6.77,38.41-10.83,27.87-9.55,49.67-25.85,72.74-44.17,6.4-5.09,13.85-8.22,19.69-13.93,3.1-3,5-8.23,7.68-11.67C504,77.64,509.75,58.49,512.2,39.4,522,46.44,533.34,52,545.16,54.36Z"/><path class="cls-2" d="M529.51,110.1c.1,11.75,5.17,22.61,7.36,34.31,2.32,12.36-1.32,25.54-5.44,37.25-4.39,12.5-16.6,23.91-26.26,33-20.41,19.17-44.17,36.19-70,47-14.9,6.23-22.92,10-38.79,13.08-14.94,2.87-29.88,7.75-44.82,10.62-11.69,2.24-31.39,3.3-44.39,3.3-27,0-50.13-3-77-6-36.43-4-78-15-100.63-23.36-17-6.29-38.67-11.53-54.37-20.64-8.64-5-23.19-13.78-31-20-11.52-9.19-18-14-26-23.59-3.12-3.72-8.54-5.75-13.19-10-2.49-2.26-5.19-5-4.94-8.37,16.54,12.44,33.36,24.74,49.9,37.18a165.5,165.5,0,0,0,15.13,10.53,142.31,142.31,0,0,0,16.4,8.05,507,507,0,0,0,84.82,28.07c14.32,3.37,28.85,8.33,43.49,9.74q47.7,4.58,95.57,6.68c9.51.42,19.06.76,28.52-.24,12.24-1.28,24.13-4.78,35.94-8.26,27.71-8.17,55.65-16.44,81-30.28a99.77,99.77,0,0,0,19.55-13.34c9.87-9,16.77-20.7,23.51-32.22,9.81-16.77,19.86-34.24,21.71-53.59,1.26-13.17-1.38-26.6,1-39.61.73-4,2.9-8.66,6.94-8.71,2.94,0,5.32,2.68,5.93,5.56S529.49,107.17,529.51,110.1Z"/><path class="cls-3" d="M492.28,92.88c-2.65,3.44-5,8.73-8.11,11.77-5.83,5.71-12.86,8.74-19.26,13.83C441.84,136.8,420,153.1,392.17,162.65c-11.85,4.06-26.07,8.72-38.41,10.83-22.66,3.88-45.52,7.1-68.51,7.24-39.65.25-74.43-6.22-113.08-15.07-10.53-2.42-67.55-16.81-83.18-17.31-15.19-.48-29.82,2.31-44.68,4.38-2.69.37-5.42-.5-8.14-1.07-5.08-1.08-10.83-2.44-16-2-3.75.31-8.61.42-11.63,1.51-1.72.62-2.22-.33-3.37,1.49s-.87,3.6-.16,5.53c23.5,4.4,47.52,8.43,71.25,11.36,7.27.9,14.56,1.73,21.88,2.09,6.62.33,13.35.29,19.68,2.25,3.62,1.13,7,2.88,10.58,4.19,8.93,3.29,18.7,3.75,27.65,7,46.14,16.72,95.73,21.83,144.8,22.23a156,156,0,0,0,25.57-1.41,150.19,150.19,0,0,0,24.19-6.4c33.69-11.3,66.1-27,94.49-48.37,16.86-12.69,29.54-28.54,41.07-45.47C488.91,101.63,489.29,96.9,492.28,92.88Z"/><path class="cls-4" d="M492.28,92.88C504,77.64,509.75,58.49,512.2,39.4c9.77,7,21.14,12.62,33,15-7.83,17.81-15.81,36.29-15.65,55.74l-16.34,1.55-24-3Z"/><path class="cls-5" d="M547.17,24.65c.24-1.55,1.57-4.48,1.21-6-.8-3.31-3.88-5.47-6.74-7.32l-11.12-7.2C527.37,2.09,524,0,520.22,0s-7,2.15-9.43,4.91-4,6.14-5.48,9.46c-1,2.22-2,2.84-2.14,5.28s2.89,3.77,5,5,4.39,2,6,4-1.65,7.46-2,10c-1.35,10,28.05,23.72,33,16,1.48-2.31-4.66-6.75-3.35-10.43C544.3,37.29,546.05,32,547.17,24.65Z"/><path class="cls-6" d="M9.41,161.05a3.18,3.18,0,0,1,.64,1.22,3.19,3.19,0,0,1-.5,2,6.88,6.88,0,0,1-1.61,2.36c-.78.65-1.84,1-2.5,1.72a3.38,3.38,0,0,0,0,4A8.82,8.82,0,0,0,8.71,175a13.62,13.62,0,0,1,3.5,2.38,9.61,9.61,0,0,1,2.1,5.94,3,3,0,0,1-.12,1.34,2.22,2.22,0,0,1-2.71,1.05A5.81,5.81,0,0,1,9,183.8a19,19,0,0,1-4.5-7.36,2.37,2.37,0,0,0-.43-1,.7.7,0,0,0-1-.12,1,1,0,0,0-.23.56l-.57,3c-.08.42-.33,1-.75.87a.65.65,0,0,1-.31-.18,3.83,3.83,0,0,1-1-3.43,7.61,7.61,0,0,1,1.61-3.33A10.52,10.52,0,0,0,3,171.22c1.44-3-1.27-6.71.07-9.73a1.63,1.63,0,0,1,.53-.71,4.78,4.78,0,0,1,.62-.26,2.1,2.1,0,0,0,1.24-2.05c-.09-1.13-1.07-2-1.4-3.06a3.19,3.19,0,0,1,.82-3.08,4.15,4.15,0,0,1,3-1.17.6.6,0,0,1,.43.13.57.57,0,0,1,.11.41,9,9,0,0,1-.93,3.11C6.46,157.51,7.88,159,9.41,161.05Z"/></g></g></g></svg>