<svg xmlns="http://www.w3.org/2000/svg" viewBox="0 0 554.44 294.65"><defs><style>.cls-1{fill:#fff;}.cls-2{fill:#d6a300;}.cls-3{fill:#e7be32;}.cls-4{fill:#ffe04d;}.cls-5{fill:#ae9102;}.cls-6{fill:#cd9c19;}.cls-7{fill:#0a0202;}</style></defs><g id="Layer_2" data-name="Layer 2"><g id="Layer_2-2" data-name="Layer 2"><path class="cls-1" d="M310.17,293.15c-23.82,0-45-2.4-67.47-4.93l-9.7-1.08c-36.78-4.07-78.13-15-101-23.44-5.17-1.91-10.67-3.7-16.51-5.58-13.29-4.31-27-8.76-38.09-15.18-6.56-3.8-22.74-13.39-31.19-20.12l-3.07-2.45C33.32,212.56,27.37,207.84,20,199a27.4,27.4,0,0,0-6.26-4.87,49.84,49.84,0,0,1-6.79-5c-2-1.82-5.75-5.22-5.43-9.59a12.38,12.38,0,0,1,1.28-4.17,12,12,0,0,0,1-2.75,12,12,0,0,0-.16-3.6,23.11,23.11,0,0,1-.27-2.69c-.06-2.36.89-4.91,2.82-6.09,0-.08,0-.16,0-.25a5.19,5.19,0,0,1-.54-1.19,4.66,4.66,0,0,1,1.18-4.57,5.66,5.66,0,0,1,4-1.62,2.5,2.5,0,0,1,.4,0c2.6-.89,6.25-1.14,9.48-1.37l2.37-.17c.69-.06,1.43-.09,2.18-.09a64.75,64.75,0,0,1,13.15,1.88l1.1.24,1.57.35a22,22,0,0,0,4.9.78,8.42,8.42,0,0,0,1.15-.08c2.71-.37,5.4-.78,8.1-1.18,10.81-1.6,22-3.26,33.28-3.26,1.18,0,2.37,0,3.56.06,13.22.41,54.9,10.47,74.93,15.3,3.84.92,6.81,1.64,8.53,2,40.54,9.29,73.17,15,110.58,15h2.16c23.81-.14,47.87-3.73,68.27-7.22,11.79-2,25.31-6.37,38.17-10.77,27.63-9.47,49.09-25.5,72.3-43.93a97.23,97.23,0,0,1,8.31-5.72,62.54,62.54,0,0,0,10.83-8,34.84,34.84,0,0,0,4.75-6.69A56.55,56.55,0,0,1,494.09,95c10.15-13.14,16.73-30.73,19.55-52.28a7.11,7.11,0,0,1,0-1.24,18.94,18.94,0,0,1,1.13-3.65c.56-1.47,1.71-4.55,1.18-5.21a10.42,10.42,0,0,0-3.75-2.66c-.6-.3-1.21-.62-1.82-1l-.82-.46c-2.16-1.2-5.12-2.85-4.93-5.93a8.33,8.33,0,0,1,1.41-4.19,15.77,15.77,0,0,0,.86-1.62c1.56-3.37,3.16-6.86,5.71-9.81,3-3.42,6.82-5.4,10.56-5.43,4.38,0,8.12,2.42,11.13,4.37l11.12,7.2c3.23,2.1,6.47,4.46,7.38,8.23.33,1.39-.2,3.11-.71,4.78a17.29,17.29,0,0,0-.48,1.79c-1.16,7.61-3,13-5.42,19.86-.44,1.25.74,3.09,1.78,4.71,1.3,2,2.64,4.12,1.42,6a2.48,2.48,0,0,1-.28.36C542.5,74,535,91.13,534.11,109.06l-.07,2.19c0,.61,0,1.23,0,1.84.07,7.16,2,13.91,4.06,21.07,1.2,4.2,2.45,8.54,3.28,13,2.41,12.85-1.43,26.43-5.5,38-4.49,12.76-16.67,24.2-26.45,33.39l-.2.19C486.51,240.05,462.81,256,438.75,266l-4.4,1.85c-12.23,5.16-20.3,8.56-34.69,11.33-7.42,1.42-15,3.38-22.31,5.28s-15,3.89-22.51,5.33C343,292.11,323.35,293.15,310.17,293.15Z"/><path d="M523.29,3c3.73,0,7.1,2.1,10.23,4.13l11.12,7.2c2.86,1.85,5.94,4,6.74,7.32.37,1.52-1,4.45-1.21,6-1.12,7.34-2.87,12.64-5.35,19.57-1.31,3.68,4.83,8.12,3.35,10.43-.09.13-.2.24-.3.37-7.18,16.34-14.39,33.25-15.26,51q0,1-.06,1.8c0,.77,0,1.55,0,2.32.1,11.75,5.17,22.61,7.36,34.31,2.32,12.36-1.32,25.54-5.44,37.25-4.39,12.5-16.6,23.91-26.26,33-20.4,19.17-44.17,36.19-70,47-14.9,6.23-22.92,10-38.79,13.08-14.94,2.87-29.88,7.75-44.82,10.62-11.69,2.24-31.39,3.3-44.39,3.3-27,0-50.13-3-77-6-36.42-4-78-15-100.63-23.36-17-6.29-38.67-11.53-54.37-20.64-8.64-5-23.19-13.78-31-20-11.52-9.19-18-14-26-23.59-3.12-3.72-8.54-5.76-13.19-10-2.49-2.26-5.19-5-4.94-8.37.17-2.39,1.83-4.42,2.24-6.78.37-2.17-.36-4.37-.41-6.57s1-4.8,3.16-5.17a10.1,10.1,0,0,1-.47-1.68A5.22,5.22,0,0,1,7,158.41a3.19,3.19,0,0,1,.82-3.08,4.17,4.17,0,0,1,3-1.17h.07a.61.61,0,0,1,.37.1l.3-.1c3-1.09,7.88-1.2,11.63-1.51.68-.06,1.37-.09,2.06-.09,4.61,0,9.53,1.15,13.94,2.09A33.54,33.54,0,0,0,46,155.81a10.35,10.35,0,0,0,1.36-.09c13.71-1.91,27.23-4.43,41.17-4.43,1.17,0,2.34,0,3.51.05,15.63.5,72.65,14.89,83.18,17.31,37.94,8.69,72.16,15.08,110.91,15.08h2.17c23-.14,45.85-3.36,68.51-7.24,12.34-2.11,26.56-6.77,38.41-10.83,27.87-9.55,49.67-25.85,72.74-44.17,6.4-5.09,13.43-8.12,19.26-13.83,3.1-3,5.46-8.33,8.11-11.77,11.69-15.15,17.4-34.17,19.87-53.15a4.87,4.87,0,0,1,0-1.08c.35-2.55,3.59-8,2-10s-3.76-2.7-6-4-5.15-2.56-5-5,1.12-3.06,2.14-5.28c1.52-3.32,3.08-6.7,5.48-9.46S519.57,3,523.22,3h.07m0-3h-.09c-4.18,0-8.43,2.2-11.68,6-2.69,3.11-4.42,6.86-5.94,10.17a14.48,14.48,0,0,1-.8,1.48,9.8,9.8,0,0,0-1.6,4.86c-.25,4,3.47,6.09,5.69,7.33l.79.45c.66.39,1.29.71,1.9,1a10.14,10.14,0,0,1,3.05,2,18.73,18.73,0,0,1-1.2,4,19.54,19.54,0,0,0-1.21,4,7.76,7.76,0,0,0-.06,1.38c-2.8,21.22-9.27,38.52-19.23,51.43a52,52,0,0,0-3.32,5.06,34.4,34.4,0,0,1-4.52,6.39,62.12,62.12,0,0,1-10.58,7.82,96,96,0,0,0-8.45,5.81c-23.1,18.34-44.45,34.29-71.84,43.68-12.8,4.38-26.26,8.72-37.94,10.72-20.34,3.47-44.33,7.05-68,7.19h-2.15c-37.27,0-69.81-5.74-110.24-15-1.71-.39-4.71-1.11-8.52-2-20.08-4.84-61.86-14.92-75.23-15.34-1.18,0-2.4-.06-3.61-.06-11.41,0-22.64,1.67-33.5,3.28-2.65.39-5.39.8-8.09,1.18a7,7,0,0,1-.94.06,21.15,21.15,0,0,1-4.56-.74l-1.6-.36-1.1-.23a65.59,65.59,0,0,0-13.46-1.92c-.79,0-1.57,0-2.31.1l-2.34.17A43.91,43.91,0,0,0,11,151.16H10.8a7.14,7.14,0,0,0-5.11,2.07,6.18,6.18,0,0,0-1.55,6.06c.06.19.12.37.19.54a9,9,0,0,0-2.48,6.59,25.14,25.14,0,0,0,.29,2.86,11.09,11.09,0,0,1,.16,3.13,11,11,0,0,1-.87,2.4A13.84,13.84,0,0,0,0,179.48c-.37,5.09,3.72,8.81,5.92,10.81a51.28,51.28,0,0,0,7,5.12A26,26,0,0,1,18.85,200c7.47,8.93,13.8,13.95,23.38,21.56L45.3,224c8.22,6.55,23.18,15.5,31.36,20.25,11.2,6.5,25,11,38.39,15.3,5.82,1.89,11.31,3.67,16.45,5.56,22.93,8.47,64.43,19.45,101.34,23.53l9.68,1.08c22.49,2.54,43.74,4.94,67.65,4.94,13.25,0,33-1,45-3.36,7.56-1.45,15.2-3.43,22.59-5.35s14.85-3.84,22.23-5.26c14.53-2.79,22.67-6.22,35-11.41l4.4-1.86c24.23-10.14,48.08-26.14,70.89-47.58l.21-.19c9.9-9.3,22.22-20.88,26.83-34,4.14-11.77,8-25.59,5.56-38.79-.84-4.51-2.1-8.88-3.31-13.12-2-7.05-3.94-13.71-4-20.66,0-.58,0-1.16,0-1.74v-.49l.05-1.4v-.34c.86-17.57,8.25-34.51,14.83-49.49a4.28,4.28,0,0,0,.26-.36c1.73-2.7-.09-5.55-1.42-7.63-.55-.85-1.83-2.84-1.63-3.4,2.46-6.9,4.3-12.39,5.49-20.13a16.1,16.1,0,0,1,.43-1.58c.54-1.77,1.16-3.79.72-5.58-1-4.3-4.53-6.87-8-9.13l-5-3.25-6.1-3.95C532.15,2.67,528,0,523.29,0Z"/><g id="Banana"><path class="cls-2" d="M548.16,57.36c-7.83,17.81-15.81,36.29-15.65,55.74.1,11.75,5.17,22.61,7.36,34.31,2.32,12.36-1.32,25.54-5.44,37.25-4.39,12.5-16.6,23.91-26.26,33-20.4,19.17-44.17,36.19-70,47-14.9,6.23-22.92,10-38.79,13.08-14.94,2.87-29.88,7.75-44.82,10.62-11.69,2.24-31.39,3.3-44.39,3.3-27,0-50.13-3-77-6-36.42-4-78-15-100.63-23.36-17-6.29-38.67-11.53-54.37-20.64-8.64-5-23.19-13.78-31-20-11.52-9.19-18-14-26-23.59-3.12-3.72-8.54-5.76-13.19-10-2.49-2.26-5.19-5-4.94-8.37.17-2.39,1.83-4.42,2.24-6.78.37-2.17-.36-4.37-.41-6.57s1-4.8,3.16-5.17c-.71-1.93-.93-3.8.16-5.53s1.65-.87,3.37-1.49c3-1.09,7.88-1.2,11.63-1.51,5.17-.44,10.92.92,16,2,2.72.57,5.45,1.44,8.14,1.07,14.86-2.07,29.49-4.86,44.68-4.38,15.63.5,72.65,14.89,83.18,17.31,38.65,8.85,73.43,15.32,113.08,15.07,23-.14,45.85-3.36,68.51-7.24,12.34-2.11,26.56-6.77,38.41-10.83,27.87-9.55,49.67-25.85,72.74-44.17,6.4-5.09,13.85-8.22,19.69-13.93,3.1-3,5-8.23,7.68-11.67C507,80.64,512.75,61.49,515.2,42.4,525,49.44,536.34,55,548.16,57.36Z"/><path class="cls-3" d="M532.51,113.1c.1,11.75,5.17,22.61,7.36,34.31,2.32,12.36-1.32,25.54-5.44,37.25-4.39,12.5-16.6,23.91-26.26,33-20.4,19.17-44.17,36.19-70,47-14.9,6.23-22.92,10-38.79,13.08-14.94,2.87-29.88,7.75-44.82,10.62-11.69,2.24-31.39,3.3-44.39,3.3-27,0-50.13-3-77-6-36.42-4-78-15-100.63-23.36-17-6.29-38.67-11.53-54.37-20.64-8.64-5-23.19-13.78-31-20-11.52-9.19-18-14-26-23.59-3.12-3.72-8.54-5.76-13.19-10-2.49-2.26-5.19-5-4.94-8.37,16.54,12.44,33.36,24.74,49.9,37.18a165.5,165.5,0,0,0,15.13,10.53,142.31,142.31,0,0,0,16.4,8.05,507.25,507.25,0,0,0,84.82,28.07c14.32,3.37,28.85,8.33,43.5,9.74q47.68,4.58,95.57,6.68c9.5.42,19.05.76,28.51-.24,12.24-1.28,24.13-4.78,35.94-8.26,27.71-8.17,55.65-16.44,81-30.28a99.77,99.77,0,0,0,19.55-13.34c9.87-9,16.77-20.7,23.51-32.22,9.81-16.77,19.86-34.24,21.71-53.59,1.26-13.17-1.38-26.6,1-39.61.73-4,2.9-8.66,6.94-8.71,2.94,0,5.32,2.68,5.93,5.56S532.49,110.17,532.51,113.1Z"/><path class="cls-4" d="M495.28,95.88c-2.65,3.44-5,8.73-8.11,11.77-5.83,5.71-12.86,8.74-19.26,13.83C444.84,139.8,423,156.1,395.17,165.65c-11.85,4.06-26.07,8.72-38.41,10.83-22.66,3.88-45.52,7.1-68.51,7.24-39.65.25-74.43-6.22-113.08-15.07-10.53-2.42-67.55-16.81-83.18-17.31-15.19-.48-29.82,2.31-44.68,4.38-2.69.37-5.42-.5-8.14-1.07-5.08-1.08-10.83-2.44-16-2-3.75.31-8.61.42-11.63,1.51-1.72.62-2.22-.33-3.37,1.49s-.87,3.6-.16,5.53c23.5,4.4,47.52,8.43,71.25,11.36,7.27.9,14.56,1.73,21.89,2.09,6.61.33,13.34.29,19.67,2.25,3.62,1.13,7,2.88,10.58,4.19,8.93,3.29,18.7,3.75,27.65,7,46.14,16.72,95.73,21.83,144.8,22.23a156,156,0,0,0,25.57-1.41,150.19,150.19,0,0,0,24.19-6.4c33.69-11.3,66.1-27,94.49-48.37,16.87-12.69,29.54-28.54,41.07-45.47C491.91,104.63,492.29,99.9,495.28,95.88Z"/><path class="cls-5" d="M495.28,95.88C507,80.64,512.75,61.49,515.2,42.4c9.77,7,21.14,12.62,33,15-7.83,17.81-15.81,36.29-15.65,55.74l-16.34,1.55-24-3Z"/><path class="cls-6" d="M550.17,27.65c.24-1.55,1.58-4.48,1.21-6-.8-3.31-3.88-5.47-6.74-7.32l-11.12-7.2C530.37,5.09,527,3,523.22,3s-7,2.15-9.43,4.91-4,6.14-5.48,9.46c-1,2.22-2,2.84-2.14,5.28s2.89,3.77,5,5,4.39,2,6,4-1.65,7.46-2,10c-1.35,10,28.05,23.72,33,16,1.48-2.31-4.66-6.75-3.35-10.43C547.3,40.29,549.05,35,550.17,27.65Z"/><path class="cls-7" d="M12.41,164.05a3.18,3.18,0,0,1,.64,1.22,3.19,3.19,0,0,1-.5,2,6.88,6.88,0,0,1-1.61,2.36c-.78.65-1.84,1-2.5,1.72a3.38,3.38,0,0,0,0,4A8.82,8.82,0,0,0,11.71,178a13.62,13.62,0,0,1,3.5,2.38,9.61,9.61,0,0,1,2.1,5.94,3,3,0,0,1-.12,1.34,2.22,2.22,0,0,1-2.71,1.05A5.81,5.81,0,0,1,12,186.8a19,19,0,0,1-4.5-7.36,2.37,2.37,0,0,0-.43-1,.7.7,0,0,0-1-.12,1,1,0,0,0-.23.56l-.57,3c-.08.42-.33,1-.75.87a.65.65,0,0,1-.31-.18,3.83,3.83,0,0,1-1-3.43,7.61,7.61,0,0,1,1.61-3.33A10.52,10.52,0,0,0,6,174.22c1.44-3-1.27-6.71.07-9.73a1.63,1.63,0,0,1,.53-.71,4.78,4.78,0,0,1,.62-.26,2.1,2.1,0,0,0,1.24-2.05c-.09-1.13-1.07-2-1.4-3.06a3.19,3.19,0,0,1,.82-3.08,4.15,4.15,0,0,1,3-1.17.6.6,0,0,1,.43.13.57.57,0,0,1,.11.41,9,9,0,0,1-.93,3.11C9.46,160.51,10.88,162,12.41,164.05Z"/></g></g></g></svg>