<svg xmlns="http://www.w3.org/2000/svg" viewBox="0 0 588.44 328.65"><defs><style>.cls-1{fill:#fff;}.cls-2{fill:#d6a300;}.cls-3{fill:#e7be32;}.cls-4{fill:#ffe04d;}.cls-5{fill:#ae9102;}.cls-6{fill:#cd9c19;}.cls-7{fill:#0a0202;}</style></defs><g id="Layer_2" data-name="Layer 2"><g id="Layer_2-2" data-name="Layer 2"><path class="cls-1" d="M327.17,318.65c-24.29,0-45.73-2.42-68.42-5l-9.68-1.08c-37.5-4.15-79.68-15.31-103-23.92-5-1.85-10.43-3.61-16.17-5.47-13.72-4.44-27.91-9-39.75-15.9-8.35-4.85-23.64-14-32.21-20.83L54.88,244C45,236.16,38.41,231,30.48,221.48a23.44,23.44,0,0,0-4.34-3.18,57.88,57.88,0,0,1-7.91-5.83c-2.63-2.4-8.8-8-8.19-16.5a20.28,20.28,0,0,1,2-7l.3-.69c0-.3-.09-.69-.13-1a30.15,30.15,0,0,1-.35-3.67,16.34,16.34,0,0,1,2-8.45,13.2,13.2,0,0,1,3.78-9.8A14.2,14.2,0,0,1,27,161.18a55.1,55.1,0,0,1,10.11-1.34l2.24-.16c.93-.08,1.9-.12,2.89-.12a71.13,71.13,0,0,1,14.93,2.07l1.09.24,1.73.38a18.79,18.79,0,0,0,3,.56c2.66-.37,5.33-.77,8-1.16,11.12-1.65,22.6-3.36,34.53-3.36,1.27,0,2.55,0,3.83.06,12.39.39,44.16,7.7,76.66,15.53,3.79.92,6.73,1.63,8.44,2,40,9.16,72.07,14.83,108.67,14.83h2.11c23.2-.14,46.83-3.67,66.89-7.09,11.19-1.92,24.33-6.15,36.85-10.44,26.34-9,47.18-24.61,69.76-42.54a99.13,99.13,0,0,1,9.05-6.24,56.19,56.19,0,0,0,9.44-6.91,31.69,31.69,0,0,0,3.42-5,59.82,59.82,0,0,1,3.77-5.71C513.49,95,519.46,79,522.13,59.22a15.26,15.26,0,0,1,.13-1.93,20,20,0,0,1,1-3.92l-.81-.46c-2.68-1.5-9.8-5.47-9.28-13.88a16.63,16.63,0,0,1,2.56-8,9.32,9.32,0,0,0,.47-.87c1.63-3.55,3.66-8,7-11.83C527.79,13.09,534,10,540.15,10h.14c6.81,0,12.14,3.45,15.67,5.74l11.12,7.2c3.23,2.09,9.24,6,11,13.36.88,3.65-.11,6.9-.84,9.27-.08.28-.17.55-.23.8a98.56,98.56,0,0,1-4.84,18.52c1.55,2.41,5.54,8.7,1.4,15.15v0c-6.26,14.25-13.17,30.3-14,46.32l-.06,2.1c0,.51,0,1,0,1.53.05,6,1.83,12.22,3.72,18.8,1.26,4.39,2.56,8.93,3.47,13.76,2.78,14.83-1.39,29.76-5.84,42.41-5.18,14.72-18.19,26.94-28.65,36.77l-.2.18c-23.43,22-48,38.48-73,48.94l-4.38,1.84c-12.26,5.17-21.12,8.91-36.38,11.84-7.16,1.38-14.26,3.22-21.79,5.17s-15.25,3.95-23,5.45C361,317.56,340.74,318.65,327.17,318.65Z"/><path d="M540.3,20c3.72,0,7.09,2.1,10.22,4.13l11.12,7.2c2.86,1.85,5.94,4,6.74,7.32.37,1.52-1,4.45-1.21,6-1.12,7.34-2.87,12.64-5.35,19.57-1.31,3.68,4.83,8.12,3.35,10.43-.08.13-.2.24-.3.37-7.18,16.34-14.39,33.25-15.26,51,0,.64,0,1.24-.05,1.8,0,.77,0,1.55,0,2.32.1,11.75,5.16,22.61,7.36,34.31,2.32,12.36-1.33,25.54-5.44,37.25-4.4,12.5-16.61,23.91-26.27,33-20.4,19.17-44.17,36.19-70,47-14.9,6.23-22.92,10-38.79,13.08-14.94,2.87-29.88,7.75-44.82,10.62-11.68,2.24-31.39,3.3-44.39,3.3-27,0-50.12-3-77-6-36.42-4-78-15-100.63-23.36-17-6.29-38.66-11.53-54.37-20.64-8.63-5-23.19-13.78-31-20-11.52-9.19-18-14-26-23.59-3.12-3.72-8.54-5.76-13.19-10-2.49-2.26-5.19-5-4.94-8.37.17-2.39,1.83-4.42,2.24-6.78.38-2.17-.35-4.37-.41-6.57s1-4.8,3.16-5.17a10.1,10.1,0,0,1-.47-1.68,5.22,5.22,0,0,1-.53-1.09,3.19,3.19,0,0,1,.82-3.08,4.19,4.19,0,0,1,3-1.17h.07a.61.61,0,0,1,.37.1l.3-.1c3-1.09,7.88-1.2,11.63-1.51.68-.06,1.37-.09,2.06-.09,4.61,0,9.53,1.15,13.94,2.09A33.54,33.54,0,0,0,63,172.81a10.35,10.35,0,0,0,1.36-.09c13.71-1.91,27.23-4.43,41.17-4.43,1.17,0,2.34,0,3.52.05,15.62.5,72.65,14.89,83.17,17.31,37.94,8.69,72.16,15.08,110.91,15.08h2.17c23-.14,45.85-3.36,68.51-7.24,12.35-2.11,26.57-6.77,38.41-10.83,27.87-9.55,49.67-25.85,72.74-44.17,6.41-5.09,13.43-8.12,19.26-13.83,3.1-3,5.46-8.33,8.11-11.77,11.7-15.15,17.4-34.17,19.87-53.15a4.87,4.87,0,0,1,0-1.08c.35-2.54,3.59-8,2-10s-3.76-2.7-6-4-5.15-2.56-5-5,1.12-3.06,2.14-5.28c1.53-3.32,3.08-6.7,5.48-9.46S536.57,20,540.23,20h.07m0-20h-.17c-9.11.06-18,4.37-24.46,11.82a56,56,0,0,0-8.44,14l-.1.17a26.33,26.33,0,0,0-3.92,12.41,23.26,23.26,0,0,0,7.88,18.77c.36.32.72.62,1.07.91,0,.12,0,.23,0,.35-2.47,17.72-7.75,31.93-15.7,42.23a70.2,70.2,0,0,0-4.4,6.64c-.64,1-1.58,2.61-2.06,3.24a51.94,51.94,0,0,1-7.62,5.43,112.24,112.24,0,0,0-9.9,6.84c-21.84,17.35-42,32.41-66.78,40.92-12.13,4.15-24.8,8.24-35.3,10-20.65,3.53-42.85,6.81-65.26,6.95h-2.05c-35.67,0-67.17-5.58-106.44-14.58-1.62-.37-4.58-1.08-8.33-2-38.15-9.2-66.13-15.41-78.68-15.81-1.36,0-2.76-.06-4.15-.06-12.66,0-24.53,1.76-36,3.46L63,152.7l-.8-.19-1.91-.43-1.07-.22a79.72,79.72,0,0,0-17-2.3c-1.26,0-2.52.06-3.72.16l-2.09.15a67,67,0,0,0-11,1.41,24.18,24.18,0,0,0-14.83,7.06A23.28,23.28,0,0,0,4,172.68a26.73,26.73,0,0,0-2.1,11.16c0,1.11.11,2.12.21,3a27.89,27.89,0,0,0-2,8.4c-1,13.35,8.36,21.84,11.43,24.63a68.42,68.42,0,0,0,9.23,6.84c.83.53,1.92,1.23,2.45,1.62,8.43,10,15.6,15.69,25.48,23.53l3.05,2.43c9.06,7.22,24.83,16.67,33.42,21.65,12.77,7.41,28.13,12.39,41.69,16.78,5.64,1.83,11,3.55,15.79,5.33,23.87,8.82,67,20.24,105.36,24.48l9.64,1.08c23,2.59,44.7,5,69.56,5,14,0,35.08-1.15,48.17-3.66,8.09-1.56,16-3.61,23.65-5.59,7.36-1.91,14.32-3.71,21.17-5,16.29-3.13,25.55-7,38.37-12.44l4.36-1.83c26.11-10.93,51.68-28.05,76-50.88l.2-.19c10.65-10,25.25-23.72,31.23-40.74,4.89-13.9,9.45-30.42,6.23-47.57-1-5.29-2.36-10.06-3.68-14.66-1.77-6.17-3.29-11.49-3.33-16.13,0-.38,0-.76,0-1.14v-.45l0-1.33v-.21c.72-14,7-28.83,12.87-42.11a21.89,21.89,0,0,0,1.2-19.53c-.19-.46-.38-.9-.58-1.31a102.52,102.52,0,0,0,3.71-15.26l0-.1c.88-2.87,2.51-8.23,1-14.53-2.71-11.26-11.54-17-15.3-19.41L567,10.94l-5.56-3.6C557.43,4.78,550.06,0,540.3,0Z"/><g id="Banana"><path class="cls-2" d="M565.16,74.36c-7.83,17.81-15.81,36.29-15.64,55.74.1,11.75,5.16,22.61,7.36,34.31,2.32,12.36-1.33,25.54-5.44,37.25-4.4,12.5-16.61,23.91-26.27,33-20.4,19.17-44.17,36.19-70,47-14.9,6.23-22.92,10-38.79,13.08-14.94,2.87-29.88,7.75-44.82,10.62-11.68,2.24-31.39,3.3-44.39,3.3-27,0-50.12-3-77-6-36.42-4-78-15-100.63-23.36-17-6.29-38.66-11.53-54.37-20.64-8.63-5-23.19-13.78-31-20-11.52-9.19-18-14-26-23.59-3.12-3.72-8.54-5.75-13.19-10-2.49-2.26-5.19-5-4.94-8.37.17-2.39,1.83-4.42,2.24-6.77.38-2.18-.35-4.38-.41-6.58s1-4.8,3.16-5.17c-.7-1.93-.93-3.8.16-5.53s1.65-.87,3.37-1.49c3-1.09,7.88-1.2,11.63-1.51,5.17-.44,10.93.92,16,2,2.72.57,5.45,1.44,8.14,1.07,14.86-2.07,29.5-4.86,44.69-4.38,15.62.5,72.65,14.89,83.17,17.31,38.65,8.85,73.44,15.32,113.08,15.07,23-.14,45.85-3.36,68.51-7.24,12.35-2.11,26.57-6.77,38.41-10.83,27.87-9.55,49.67-25.85,72.74-44.17,6.41-5.09,13.85-8.22,19.69-13.93,3.1-3,5-8.23,7.68-11.67C524,97.64,529.75,78.49,532.2,59.4,542,66.44,553.34,72,565.16,74.36Z"/><path class="cls-3" d="M549.52,130.1c.1,11.75,5.16,22.61,7.36,34.31,2.32,12.36-1.33,25.54-5.44,37.25-4.4,12.5-16.61,23.91-26.27,33-20.4,19.17-44.17,36.19-70,47-14.9,6.23-22.92,10-38.79,13.08-14.94,2.87-29.88,7.75-44.82,10.62-11.68,2.24-31.39,3.3-44.39,3.3-27,0-50.12-3-77-6-36.42-4-78-15-100.63-23.36-17-6.29-38.66-11.53-54.37-20.64-8.63-5-23.19-13.78-31-20-11.52-9.19-18-14-26-23.59-3.12-3.72-8.54-5.75-13.19-10-2.49-2.26-5.19-5-4.94-8.37,16.54,12.44,33.36,24.74,49.9,37.18a166.89,166.89,0,0,0,15.13,10.53,142.31,142.31,0,0,0,16.4,8.05,507.55,507.55,0,0,0,84.82,28.07c14.32,3.37,28.85,8.33,43.5,9.74q47.68,4.58,95.57,6.68c9.5.42,19.05.76,28.51-.24,12.25-1.28,24.14-4.78,35.95-8.26,27.7-8.17,55.64-16.44,81-30.28a100,100,0,0,0,19.54-13.34c9.87-9,16.77-20.7,23.51-32.22,9.82-16.77,19.86-34.24,21.71-53.59,1.26-13.17-1.38-26.6,1-39.61.73-4,2.91-8.66,6.94-8.71,2.94,0,5.32,2.68,5.93,5.56S549.49,127.17,549.52,130.1Z"/><path class="cls-4" d="M512.28,112.88c-2.65,3.44-5,8.73-8.11,11.77-5.83,5.71-12.85,8.74-19.26,13.83C461.84,156.8,440,173.1,412.17,182.65c-11.84,4.06-26.06,8.72-38.41,10.83-22.66,3.88-45.52,7.1-68.51,7.24-39.64.25-74.43-6.22-113.08-15.07-10.52-2.42-67.55-16.81-83.17-17.31-15.19-.48-29.83,2.31-44.69,4.38-2.69.37-5.42-.5-8.14-1.07-5.07-1.08-10.83-2.44-16-2-3.75.31-8.61.42-11.63,1.51-1.72.62-2.22-.33-3.37,1.49s-.86,3.6-.16,5.53c23.5,4.4,47.52,8.43,71.25,11.36,7.28.9,14.57,1.73,21.89,2.09,6.61.33,13.35.29,19.67,2.25,3.62,1.13,7,2.88,10.58,4.19,8.93,3.29,18.71,3.75,27.66,7,46.13,16.72,95.72,21.83,144.8,22.23a155.91,155.91,0,0,0,25.56-1.41,150.19,150.19,0,0,0,24.19-6.4c33.7-11.3,66.1-27,94.5-48.37,16.86-12.69,29.53-28.54,41.06-45.47C508.91,121.63,509.3,116.9,512.28,112.88Z"/><path class="cls-5" d="M512.28,112.88C524,97.64,529.75,78.49,532.2,59.4c9.77,7,21.14,12.62,33,15-7.83,17.81-15.81,36.29-15.64,55.74l-16.35,1.55-24-3Z"/><path class="cls-6" d="M567.17,44.65c.24-1.55,1.58-4.48,1.21-6-.8-3.31-3.88-5.47-6.74-7.32l-11.12-7.2c-3.15-2-6.54-4.16-10.29-4.13s-7.05,2.15-9.44,4.91-3.95,6.14-5.48,9.46c-1,2.22-2,2.84-2.14,5.28s2.89,3.77,5,5,4.4,2,6,4-1.65,7.46-2,10c-1.35,9.95,28.05,23.72,33,16,1.48-2.31-4.66-6.75-3.35-10.43C564.3,57.29,566.05,52,567.17,44.65Z"/><path class="cls-7" d="M29.41,181.05a3.35,3.35,0,0,1,.65,1.22,3.25,3.25,0,0,1-.5,2,7.05,7.05,0,0,1-1.62,2.36c-.78.65-1.84,1-2.5,1.72a3.41,3.41,0,0,0,0,4A8.9,8.9,0,0,0,28.71,195a13.62,13.62,0,0,1,3.5,2.38,9.61,9.61,0,0,1,2.1,5.94,3,3,0,0,1-.12,1.34,2.22,2.22,0,0,1-2.71,1.05A5.81,5.81,0,0,1,29,203.8a19,19,0,0,1-4.5-7.36,2.24,2.24,0,0,0-.43-1,.7.7,0,0,0-1-.12,1,1,0,0,0-.23.56l-.57,3c-.08.42-.32,1-.74.87a.65.65,0,0,1-.31-.18,3.81,3.81,0,0,1-1.05-3.43,7.61,7.61,0,0,1,1.61-3.33A10.52,10.52,0,0,0,23,191.22c1.44-3-1.26-6.71.07-9.73a1.65,1.65,0,0,1,.54-.71,4.14,4.14,0,0,1,.61-.26,2.1,2.1,0,0,0,1.24-2.05c-.09-1.13-1.07-2-1.4-3.06a3.19,3.19,0,0,1,.82-3.08,4.15,4.15,0,0,1,3-1.17.6.6,0,0,1,.43.13.57.57,0,0,1,.12.41,9.45,9.45,0,0,1-.93,3.11C26.46,177.51,27.89,179,29.41,181.05Z"/></g></g></g></svg>