<svg xmlns="http://www.w3.org/2000/svg" viewBox="0 0 54 27"><defs><style>.cls-1{fill:none;}.cls-2{fill:#007ea7;}.cls-3{fill:#00bbf9;}</style></defs><g id="Layer_2" data-name="Layer 2"><g id="background-beach"><g id="beach--wave"><path class="cls-1" d="M53,17.17a22.62,22.62,0,0,1,1-2.11V0H26C38.26,0,48.77,7.13,53,17.17Z"/><path class="cls-1" d="M26,0H0V15.06C4.74,6.15,14.61,0,26,0Z"/><path class="cls-2" d="M54,20V15.06a22.62,22.62,0,0,0-1,2.11A24.65,24.65,0,0,1,54,20Z"/><path class="cls-2" d="M54,20a24.65,24.65,0,0,0-1-2.81V27h1Z"/><path class="cls-3" d="M26,4C12.21,4,1,14.32,1,27H51C51,14.32,39.79,4,26,4Z"/><path class="cls-2" d="M26,0C14.61,0,4.74,6.15,0,15.06V20a25.13,25.13,0,0,1,1,7C1,14.32,12.21,4,26,4S51,14.32,51,27h2V17.17C48.77,7.13,38.26,0,26,0Z"/><path class="cls-2" d="M0,20v7H1A25.13,25.13,0,0,0,0,20Z"/></g></g></g></svg>