<svg xmlns="http://www.w3.org/2000/svg" viewBox="0 0 155 126"><defs><style>.cls-1{fill:#fff;stroke:#bdccd4;stroke-miterlimit:10;stroke-width:3px;}</style></defs><g id="Layer_2" data-name="Layer 2"><g id="beach"><path class="cls-1" d="M153.5,42A37.5,37.5,0,0,0,92.39,12.87,45,45,0,0,0,17.54,44.75,13.26,13.26,0,0,0,15,44.5a13.5,13.5,0,0,0,0,27c.42,0,.83,0,1.24-.06A25,25,0,0,0,40.5,102.5,24.89,24.89,0,0,0,53,99.14,45,45,0,0,0,138.5,79.5a46.27,46.27,0,0,0-.56-7.1A37.43,37.43,0,0,0,153.5,42Z"/></g></g></svg>