<svg xmlns="http://www.w3.org/2000/svg" viewBox="0 0 193.08 285.16"><defs><style>.cls-1{fill:#c8691c;stroke:#78380c;stroke-miterlimit:10;stroke-width:3px;}.cls-2{fill:#a2c41e;}.cls-3{fill:#43580b;}</style></defs><g id="Layer_2" data-name="Layer 2"><g id="Mountains"><g id="mountain--pine"><rect class="cls-1" x="84.77" y="206.66" width="22" height="77"/><rect class="cls-2" x="20.88" y="205.89" width="88.03" height="3.77" transform="translate(-114.32 84.22) rotate(-38.07)"/><rect class="cls-2" x="82.61" y="193.76" width="30.24" height="3.77" transform="translate(-108.26 269.1) rotate(-83.08)"/><rect class="cls-2" x="82.66" y="163.69" width="3.77" height="30.24" transform="translate(-103.17 241.16) rotate(-83.07)"/><rect class="cls-3" x="77.7" y="167.57" width="3.77" height="30.24" transform="translate(-111.37 239.65) rotate(-83.07)"/><rect class="cls-3" x="77.66" y="197.63" width="30.24" height="3.77" transform="translate(-116.47 267.59) rotate(-83.08)"/><rect class="cls-3" x="67.76" y="205.39" width="30.24" height="3.77" transform="translate(-132.87 264.58) rotate(-83.08)"/><rect class="cls-3" x="57.85" y="213.14" width="30.24" height="3.77" transform="translate(-149.28 261.58) rotate(-83.08)"/><rect class="cls-3" x="47.95" y="220.9" width="30.24" height="3.77" transform="translate(-165.69 258.57) rotate(-83.08)"/><rect class="cls-3" x="38.05" y="228.65" width="30.23" height="3.77" transform="translate(-182.09 255.56) rotate(-83.08)"/><rect class="cls-3" x="28.15" y="236.41" width="30.23" height="3.77" transform="translate(-198.5 252.55) rotate(-83.08)"/><rect class="cls-3" x="18.25" y="244.16" width="30.23" height="3.77" transform="translate(-214.91 249.54) rotate(-83.08)"/><rect class="cls-3" x="13.33" y="247.5" width="21.34" height="3.77" transform="translate(-226.46 243.18) rotate(-83.08)"/><rect class="cls-3" x="12.81" y="226.84" width="3.77" height="21.34" transform="translate(-222.85 223.44) rotate(-83.07)"/><rect class="cls-3" x="67.8" y="175.33" width="3.77" height="30.24" transform="translate(-127.77 236.64) rotate(-83.07)"/><rect class="cls-3" x="57.9" y="183.08" width="3.77" height="30.24" transform="translate(-144.18 233.63) rotate(-83.07)"/><rect class="cls-3" x="48" y="190.83" width="3.77" height="30.24" transform="translate(-160.58 230.62) rotate(-83.07)"/><rect class="cls-3" x="38.1" y="198.59" width="3.77" height="30.24" transform="translate(-176.98 227.61) rotate(-83.07)"/><rect class="cls-3" x="28.2" y="206.34" width="3.77" height="30.24" transform="translate(-193.39 224.6) rotate(-83.07)"/><rect class="cls-3" x="18.3" y="214.1" width="3.77" height="30.24" transform="translate(-209.79 221.59) rotate(-83.07)"/><rect class="cls-2" x="72.75" y="171.45" width="3.77" height="30.24" transform="translate(-119.57 238.15) rotate(-83.07)"/><rect class="cls-2" x="62.85" y="179.2" width="3.77" height="30.24" transform="translate(-135.97 235.14) rotate(-83.07)"/><rect class="cls-2" x="52.95" y="186.96" width="3.77" height="30.24" transform="translate(-152.38 232.13) rotate(-83.07)"/><rect class="cls-2" x="43.05" y="194.71" width="3.77" height="30.24" transform="translate(-168.78 229.12) rotate(-83.07)"/><rect class="cls-2" x="33.15" y="202.47" width="3.77" height="30.24" transform="translate(-185.19 226.11) rotate(-83.07)"/><rect class="cls-2" x="23.25" y="210.22" width="3.77" height="30.24" transform="translate(-201.59 223.1) rotate(-83.07)"/><rect class="cls-2" x="13.35" y="217.98" width="3.77" height="30.24" transform="translate(-217.99 220.09) rotate(-83.07)"/><rect class="cls-2" x="72.71" y="201.51" width="30.24" height="3.77" transform="translate(-124.67 266.09) rotate(-83.08)"/><rect class="cls-2" x="62.8" y="209.27" width="30.24" height="3.77" transform="translate(-141.08 263.08) rotate(-83.08)"/><rect class="cls-2" x="52.9" y="217.02" width="30.24" height="3.77" transform="translate(-157.48 260.07) rotate(-83.08)"/><rect class="cls-2" x="43" y="224.77" width="30.23" height="3.77" transform="translate(-173.89 257.06) rotate(-83.08)"/><rect class="cls-2" x="33.1" y="232.53" width="30.23" height="3.77" transform="matrix(0.12, -0.99, 0.99, 0.12, -190.3, 254.05)"/><rect class="cls-2" x="23.2" y="240.28" width="30.23" height="3.77" transform="matrix(0.12, -0.99, 0.99, 0.12, -206.7, 251.05)"/><rect class="cls-2" x="13.3" y="248.04" width="30.23" height="3.77" transform="translate(-223.11 248.04) rotate(-83.08)"/><rect class="cls-2" x="10.09" y="248.29" width="18.68" height="3.77" transform="translate(-231.27 239.33) rotate(-83.08)"/><rect class="cls-2" x="8.8" y="231.71" width="3.77" height="18.67" transform="translate(-229.89 222.57) rotate(-83.07)"/><rect class="cls-3" x="-8.73" y="215.48" width="120.73" height="3.77" transform="translate(-123.05 78.09) rotate(-38.07)"/><rect class="cls-2" x="98.89" y="179.28" width="2.86" height="66.64" transform="translate(-54.28 35.51) rotate(-15.86)"/><rect class="cls-2" x="99.78" y="174.68" width="2.86" height="22.89" transform="translate(-110.64 183.93) rotate(-60.87)"/><rect class="cls-2" x="74.2" y="189.11" width="22.89" height="2.86" transform="translate(-122.48 172.55) rotate(-60.86)"/><rect class="cls-3" x="75.5" y="193.69" width="22.89" height="2.86" transform="translate(-125.81 176.03) rotate(-60.86)"/><rect class="cls-3" x="101.08" y="179.25" width="2.86" height="22.89" transform="translate(-113.97 187.42) rotate(-60.87)"/><rect class="cls-3" x="103.69" y="188.41" width="2.86" height="22.89" transform="translate(-120.63 194.39) rotate(-60.87)"/><rect class="cls-3" x="106.29" y="197.57" width="2.86" height="22.89" transform="translate(-127.3 201.36) rotate(-60.87)"/><rect class="cls-3" x="108.89" y="206.73" width="2.86" height="22.89" transform="translate(-133.96 208.33) rotate(-60.87)"/><rect class="cls-3" x="111.49" y="215.88" width="2.86" height="22.89" transform="translate(-140.63 215.3) rotate(-60.87)"/><rect class="cls-3" x="114.09" y="225.04" width="2.86" height="22.89" transform="translate(-147.29 222.27) rotate(-60.87)"/><rect class="cls-3" x="116.69" y="234.2" width="2.86" height="22.89" transform="translate(-153.95 229.24) rotate(-60.87)"/><rect class="cls-3" x="116.35" y="245.08" width="2.86" height="16.16" transform="translate(-160.7 232.81) rotate(-60.87)"/><rect class="cls-3" x="98.71" y="254.85" width="16.16" height="2.86" transform="translate(-169.05 224.74) rotate(-60.86)"/><rect class="cls-3" x="78.1" y="202.85" width="22.89" height="2.86" transform="translate(-132.48 183) rotate(-60.86)"/><rect class="cls-3" x="80.7" y="212.01" width="22.89" height="2.86" transform="translate(-139.14 189.97) rotate(-60.86)"/><rect class="cls-3" x="83.3" y="221.16" width="22.89" height="2.86" transform="translate(-145.81 196.94) rotate(-60.86)"/><rect class="cls-3" x="85.91" y="230.32" width="22.89" height="2.86" transform="translate(-152.47 203.91) rotate(-60.86)"/><rect class="cls-3" x="88.51" y="239.48" width="22.89" height="2.86" transform="translate(-159.13 210.88) rotate(-60.86)"/><rect class="cls-3" x="91.11" y="248.64" width="22.89" height="2.86" transform="translate(-165.8 217.85) rotate(-60.86)"/><rect class="cls-2" x="76.8" y="198.27" width="22.89" height="2.86" transform="translate(-129.15 179.52) rotate(-60.86)"/><rect class="cls-2" x="79.4" y="207.43" width="22.89" height="2.86" transform="translate(-135.81 186.49) rotate(-60.86)"/><rect class="cls-2" x="82" y="216.58" width="22.89" height="2.86" transform="translate(-142.47 193.45) rotate(-60.86)"/><rect class="cls-2" x="84.6" y="225.74" width="22.89" height="2.86" transform="translate(-149.14 200.42) rotate(-60.86)"/><rect class="cls-2" x="87.21" y="234.9" width="22.89" height="2.86" transform="translate(-155.8 207.39) rotate(-60.86)"/><rect class="cls-2" x="89.81" y="244.06" width="22.89" height="2.86" transform="translate(-162.47 214.36) rotate(-60.86)"/><rect class="cls-2" x="92.41" y="253.21" width="22.89" height="2.86" transform="translate(-169.13 221.33) rotate(-60.86)"/><rect class="cls-2" x="102.39" y="183.83" width="2.86" height="22.89" transform="translate(-117.3 190.9) rotate(-60.87)"/><rect class="cls-2" x="104.99" y="192.99" width="2.86" height="22.89" transform="translate(-123.96 197.87) rotate(-60.87)"/><rect class="cls-2" x="107.59" y="202.15" width="2.86" height="22.89" transform="translate(-130.63 204.84) rotate(-60.87)"/><rect class="cls-2" x="110.19" y="211.31" width="2.86" height="22.89" transform="translate(-137.29 211.82) rotate(-60.87)"/><rect class="cls-2" x="112.79" y="220.46" width="2.86" height="22.89" transform="translate(-143.96 218.79) rotate(-60.87)"/><rect class="cls-2" x="115.39" y="229.62" width="2.86" height="22.89" transform="translate(-150.62 225.76) rotate(-60.87)"/><rect class="cls-2" x="117.99" y="238.78" width="2.86" height="22.89" transform="translate(-157.29 232.73) rotate(-60.87)"/><rect class="cls-2" x="115.59" y="249.52" width="2.86" height="14.14" transform="translate(-164.08 233.91) rotate(-60.87)"/><rect class="cls-2" x="101.06" y="258.68" width="14.14" height="2.86" transform="translate(-171.71 227.87) rotate(-60.86)"/><rect class="cls-3" x="101.82" y="178.94" width="2.86" height="91.39" transform="translate(-57.45 36.76) rotate(-15.86)"/><rect class="cls-2" x="128.99" y="155.74" width="3.91" height="91.31" transform="translate(-101.42 140.47) rotate(-42.28)"/><rect class="cls-2" x="113.95" y="152.68" width="3.91" height="31.36" transform="translate(-57.75 276.17) rotate(-87.29)"/><rect class="cls-2" x="83.81" y="181.32" width="31.36" height="3.91" transform="translate(-88.31 273.94) rotate(-87.27)"/><rect class="cls-3" x="88.2" y="186.14" width="31.36" height="3.91" transform="translate(-88.95 282.92) rotate(-87.27)"/><rect class="cls-3" x="118.33" y="157.51" width="3.91" height="31.36" transform="translate(-58.39 285.15) rotate(-87.29)"/><rect class="cls-3" x="127.11" y="167.16" width="3.91" height="31.36" transform="translate(-59.67 303.11) rotate(-87.29)"/><rect class="cls-3" x="135.88" y="176.81" width="3.91" height="31.36" transform="translate(-60.96 321.07) rotate(-87.29)"/><rect class="cls-3" x="144.66" y="186.46" width="3.91" height="31.36" transform="translate(-62.24 339.03) rotate(-87.29)"/><rect class="cls-3" x="153.43" y="196.11" width="3.91" height="31.36" transform="translate(-63.52 356.99) rotate(-87.29)"/><rect class="cls-3" x="162.2" y="205.77" width="3.91" height="31.36" transform="translate(-64.8 374.95) rotate(-87.29)"/><rect class="cls-3" x="170.98" y="215.42" width="3.91" height="31.36" transform="translate(-66.08 392.91) rotate(-87.29)"/><rect class="cls-3" x="175.15" y="229.46" width="3.91" height="22.14" transform="translate(-71.54 406.06) rotate(-87.29)"/><rect class="cls-3" x="154.45" y="249.1" width="22.14" height="3.91" transform="translate(-93.12 404.45) rotate(-87.27)"/><rect class="cls-3" x="96.98" y="195.8" width="31.36" height="3.91" transform="translate(-90.23 300.88) rotate(-87.27)"/><rect class="cls-3" x="105.75" y="205.45" width="31.36" height="3.91" transform="translate(-91.52 318.83) rotate(-87.27)"/><rect class="cls-3" x="114.52" y="215.1" width="31.36" height="3.91" transform="translate(-92.8 336.79) rotate(-87.27)"/><rect class="cls-3" x="123.3" y="224.75" width="31.36" height="3.91" transform="translate(-94.08 354.75) rotate(-87.27)"/><rect class="cls-3" x="132.07" y="234.4" width="31.36" height="3.91" transform="translate(-95.37 372.71) rotate(-87.27)"/><rect class="cls-3" x="140.85" y="244.06" width="31.36" height="3.91" transform="translate(-96.65 390.66) rotate(-87.27)"/><rect class="cls-2" x="92.59" y="190.97" width="31.36" height="3.91" transform="translate(-89.59 291.9) rotate(-87.27)"/><rect class="cls-2" x="101.36" y="200.62" width="31.36" height="3.91" transform="translate(-90.87 309.85) rotate(-87.27)"/><rect class="cls-2" x="110.14" y="210.27" width="31.36" height="3.91" transform="translate(-92.16 327.81) rotate(-87.27)"/><rect class="cls-2" x="118.91" y="219.93" width="31.36" height="3.91" transform="matrix(0.05, -1, 1, 0.05, -93.44, 345.77)"/><rect class="cls-2" x="127.69" y="229.58" width="31.36" height="3.91" transform="translate(-94.73 363.73) rotate(-87.27)"/><rect class="cls-2" x="136.46" y="239.23" width="31.36" height="3.91" transform="translate(-96.01 381.68) rotate(-87.27)"/><rect class="cls-2" x="145.23" y="248.88" width="31.36" height="3.91" transform="translate(-97.29 399.64) rotate(-87.27)"/><rect class="cls-2" x="122.72" y="162.33" width="3.91" height="31.36" transform="translate(-59.03 294.13) rotate(-87.29)"/><rect class="cls-2" x="131.49" y="171.98" width="3.91" height="31.36" transform="translate(-60.32 312.09) rotate(-87.29)"/><rect class="cls-2" x="140.27" y="181.63" width="3.91" height="31.36" transform="translate(-61.6 330.05) rotate(-87.29)"/><rect class="cls-2" x="149.04" y="191.29" width="3.91" height="31.36" transform="translate(-62.88 348.01) rotate(-87.29)"/><rect class="cls-2" x="157.82" y="200.94" width="3.91" height="31.36" transform="translate(-64.16 365.97) rotate(-87.29)"/><rect class="cls-2" x="166.59" y="210.59" width="3.91" height="31.36" transform="translate(-65.44 383.93) rotate(-87.29)"/><rect class="cls-2" x="175.37" y="220.24" width="3.91" height="31.36" transform="translate(-66.73 401.89) rotate(-87.29)"/><rect class="cls-2" x="176.31" y="235.52" width="3.91" height="19.37" transform="translate(-75.1 411.67) rotate(-87.29)"/><rect class="cls-2" x="159.81" y="252.98" width="19.37" height="3.91" transform="translate(-93.22 412.12) rotate(-87.27)"/><rect class="cls-3" x="139.92" y="151.77" width="3.91" height="125.22" transform="translate(-107.32 151.2) rotate(-42.28)"/><rect class="cls-2" x="125.1" y="133.37" width="3.36" height="78.5" transform="translate(-86.24 194.85) rotate(-59.66)"/><rect class="cls-2" x="92.47" y="147.7" width="26.96" height="3.36" transform="translate(-34.39 31.71) rotate(-14.67)"/><rect class="cls-2" x="94.64" y="152.36" width="3.36" height="26.96" transform="translate(-38.83 29.78) rotate(-14.66)"/><rect class="cls-3" x="99.48" y="155.19" width="3.36" height="26.96" transform="translate(-39.39 31.09) rotate(-14.66)"/><rect class="cls-3" x="97.31" y="150.53" width="26.96" height="3.36" transform="translate(-34.95 33.03) rotate(-14.67)"/><rect class="cls-3" x="106.99" y="156.2" width="26.96" height="3.36" transform="translate(-36.07 35.67) rotate(-14.67)"/><rect class="cls-3" x="116.66" y="161.86" width="26.96" height="3.36" transform="translate(-37.19 38.3) rotate(-14.67)"/><rect class="cls-3" x="126.34" y="167.53" width="26.96" height="3.36" transform="translate(-38.31 40.94) rotate(-14.67)"/><rect class="cls-3" x="136.02" y="173.19" width="26.96" height="3.36" transform="translate(-39.42 43.58) rotate(-14.67)"/><rect class="cls-3" x="145.7" y="178.86" width="26.96" height="3.36" transform="translate(-40.54 46.21) rotate(-14.67)"/><rect class="cls-3" x="155.37" y="184.52" width="26.96" height="3.36" transform="translate(-41.66 48.85) rotate(-14.67)"/><rect class="cls-3" x="165.18" y="191.19" width="19.03" height="3.36" transform="translate(-43.16 50.55) rotate(-14.67)"/><rect class="cls-3" x="166.22" y="194.97" width="3.36" height="19.03" transform="matrix(0.97, -0.25, 0.25, 0.97, -46.29, 49.15)"/><rect class="cls-3" x="109.15" y="160.85" width="3.36" height="26.96" transform="matrix(0.97, -0.25, 0.25, 0.97, -40.51, 33.73)"/><rect class="cls-3" x="118.83" y="166.52" width="3.36" height="26.96" transform="translate(-41.63 36.36) rotate(-14.66)"/><rect class="cls-3" x="128.51" y="172.18" width="3.36" height="26.96" transform="translate(-42.75 38.99) rotate(-14.66)"/><rect class="cls-3" x="138.19" y="177.85" width="3.36" height="26.96" transform="matrix(0.97, -0.25, 0.25, 0.97, -43.87, 41.63)"/><rect class="cls-3" x="147.86" y="183.51" width="3.36" height="26.96" transform="translate(-44.99 44.26) rotate(-14.66)"/><rect class="cls-3" x="157.54" y="189.18" width="3.36" height="26.96" transform="translate(-46.11 46.89) rotate(-14.66)"/><rect class="cls-2" x="104.31" y="158.02" width="3.36" height="26.96" transform="translate(-39.95 32.41) rotate(-14.66)"/><rect class="cls-2" x="113.99" y="163.69" width="3.36" height="26.96" transform="translate(-41.07 35.04) rotate(-14.66)"/><rect class="cls-2" x="123.67" y="169.35" width="3.36" height="26.96" transform="translate(-42.19 37.68) rotate(-14.66)"/><rect class="cls-2" x="133.35" y="175.01" width="3.36" height="26.96" transform="translate(-43.31 40.31) rotate(-14.66)"/><rect class="cls-2" x="143.03" y="180.68" width="3.36" height="26.96" transform="translate(-44.43 42.94) rotate(-14.66)"/><rect class="cls-2" x="152.7" y="186.34" width="3.36" height="26.96" transform="translate(-45.55 45.58) rotate(-14.66)"/><rect class="cls-2" x="162.38" y="192.01" width="3.36" height="26.96" transform="translate(-46.66 48.21) rotate(-14.66)"/><rect class="cls-2" x="102.15" y="153.37" width="26.96" height="3.36" transform="translate(-35.51 34.35) rotate(-14.67)"/><rect class="cls-2" x="111.82" y="159.03" width="26.96" height="3.36" transform="translate(-36.63 36.99) rotate(-14.67)"/><rect class="cls-2" x="121.5" y="164.7" width="26.96" height="3.36" transform="translate(-37.75 39.62) rotate(-14.67)"/><rect class="cls-2" x="131.18" y="170.36" width="26.96" height="3.36" transform="translate(-38.86 42.26) rotate(-14.67)"/><rect class="cls-2" x="140.86" y="176.02" width="26.96" height="3.36" transform="matrix(0.97, -0.25, 0.25, 0.97, -39.98, 44.9)"/><rect class="cls-2" x="150.54" y="181.69" width="26.96" height="3.36" transform="translate(-41.1 47.53) rotate(-14.67)"/><rect class="cls-2" x="160.21" y="187.35" width="26.96" height="3.36" transform="translate(-42.22 50.17) rotate(-14.67)"/><rect class="cls-2" x="168.52" y="194.72" width="16.65" height="3.36" transform="translate(-43.99 51.21) rotate(-14.67)"/><rect class="cls-2" x="170.47" y="198.32" width="3.36" height="16.65" transform="translate(-46.7 50.3) rotate(-14.66)"/><rect class="cls-3" x="137.4" y="126.64" width="3.36" height="107.65" transform="translate(-86.93 209.35) rotate(-59.66)"/><rect class="cls-2" x="31.15" y="166.98" width="77.68" height="3.33" transform="translate(-54.18 34.77) rotate(-20.31)"/><rect class="cls-2" x="87.5" y="165.63" width="26.68" height="3.33" transform="translate(-93.28 189.06) rotate(-65.32)"/><rect class="cls-2" x="92.63" y="136.26" width="3.33" height="26.68" transform="translate(-81.02 172.76) rotate(-65.3)"/><rect class="cls-3" x="87.43" y="138.18" width="3.33" height="26.68" transform="translate(-85.8 169.16) rotate(-65.3)"/><rect class="cls-3" x="82.3" y="167.55" width="26.68" height="3.33" transform="translate(-98.06 185.45) rotate(-65.32)"/><rect class="cls-3" x="71.89" y="171.4" width="26.68" height="3.33" transform="translate(-107.62 178.24) rotate(-65.32)"/><rect class="cls-3" x="61.48" y="175.25" width="26.68" height="3.33" transform="translate(-117.18 171.02) rotate(-65.32)"/><rect class="cls-3" x="51.07" y="179.1" width="26.68" height="3.33" transform="translate(-126.74 163.81) rotate(-65.32)"/><rect class="cls-3" x="40.67" y="182.95" width="26.68" height="3.33" transform="translate(-136.3 156.59) rotate(-65.32)"/><rect class="cls-3" x="30.26" y="186.8" width="26.68" height="3.33" transform="translate(-145.86 149.38) rotate(-65.32)"/><rect class="cls-3" x="19.85" y="190.65" width="26.68" height="3.33" transform="translate(-155.42 142.17) rotate(-65.32)"/><rect class="cls-3" x="15" y="190.94" width="18.83" height="3.33" transform="translate(-160.79 134.36) rotate(-65.32)"/><rect class="cls-3" x="18.14" y="170.7" width="3.33" height="18.83" transform="translate(-152.11 122.85) rotate(-65.3)"/><rect class="cls-3" x="77.02" y="142.03" width="3.33" height="26.68" transform="translate(-95.35 161.94) rotate(-65.3)"/><rect class="cls-3" x="66.61" y="145.88" width="3.33" height="26.68" transform="translate(-104.91 154.73) rotate(-65.3)"/><rect class="cls-3" x="56.2" y="149.73" width="3.33" height="26.68" transform="translate(-114.47 147.51) rotate(-65.3)"/><rect class="cls-3" x="45.79" y="153.59" width="3.33" height="26.68" transform="translate(-124.03 140.3) rotate(-65.3)"/><rect class="cls-3" x="35.39" y="157.44" width="3.33" height="26.68" transform="translate(-133.58 133.08) rotate(-65.3)"/><rect class="cls-3" x="24.98" y="161.29" width="3.33" height="26.68" transform="translate(-143.14 125.87) rotate(-65.3)"/><rect class="cls-2" x="82.22" y="140.11" width="3.33" height="26.68" transform="translate(-90.58 165.55) rotate(-65.3)"/><rect class="cls-2" x="71.81" y="143.96" width="3.33" height="26.68" transform="translate(-100.13 158.33) rotate(-65.3)"/><rect class="cls-2" x="61.41" y="147.81" width="3.33" height="26.68" transform="translate(-109.69 151.12) rotate(-65.3)"/><rect class="cls-2" x="51" y="151.66" width="3.33" height="26.68" transform="translate(-119.25 143.91) rotate(-65.3)"/><rect class="cls-2" x="40.59" y="155.51" width="3.33" height="26.68" transform="translate(-128.81 136.69) rotate(-65.3)"/><rect class="cls-2" x="30.18" y="159.36" width="3.33" height="26.68" transform="translate(-138.36 129.48) rotate(-65.3)"/><rect class="cls-2" x="19.77" y="163.21" width="3.33" height="26.68" transform="translate(-147.92 122.26) rotate(-65.3)"/><rect class="cls-2" x="77.09" y="169.48" width="26.68" height="3.33" transform="translate(-102.84 181.84) rotate(-65.32)"/><rect class="cls-2" x="66.68" y="173.33" width="26.68" height="3.33" transform="translate(-112.4 174.63) rotate(-65.32)"/><rect class="cls-2" x="56.28" y="177.18" width="26.68" height="3.33" transform="translate(-121.96 167.42) rotate(-65.32)"/><rect class="cls-2" x="45.87" y="181.03" width="26.68" height="3.33" transform="translate(-131.52 160.2) rotate(-65.32)"/><rect class="cls-2" x="35.46" y="184.88" width="26.68" height="3.33" transform="translate(-141.08 152.99) rotate(-65.32)"/><rect class="cls-2" x="25.05" y="188.73" width="26.68" height="3.33" transform="translate(-150.64 145.77) rotate(-65.32)"/><rect class="cls-2" x="14.65" y="192.58" width="26.68" height="3.33" transform="translate(-160.2 138.56) rotate(-65.32)"/><rect class="cls-2" x="12.12" y="190.37" width="16.48" height="3.33" transform="translate(-162.63 130.35) rotate(-65.32)"/><rect class="cls-2" x="13.81" y="173.77" width="3.33" height="16.48" transform="translate(-156.36 120.02) rotate(-65.3)"/><rect class="cls-3" x="3" y="171.47" width="106.53" height="3.33" transform="translate(-56.59 30.28) rotate(-20.31)"/><rect class="cls-2" x="34.02" y="138.46" width="71.64" height="3.07" transform="translate(-44.24 32.94) rotate(-20.31)"/><rect class="cls-2" x="85.99" y="137.21" width="24.6" height="3.07" transform="translate(-68.82 170.12) rotate(-65.32)"/><rect class="cls-2" x="90.72" y="110.13" width="3.07" height="24.6" transform="translate(-57.52 155.1) rotate(-65.3)"/><rect class="cls-3" x="85.93" y="111.9" width="3.07" height="24.6" transform="translate(-61.93 151.77) rotate(-65.3)"/><rect class="cls-3" x="81.2" y="138.99" width="24.6" height="3.07" transform="translate(-73.23 166.8) rotate(-65.32)"/><rect class="cls-3" x="71.6" y="142.54" width="24.6" height="3.07" transform="translate(-82.05 160.14) rotate(-65.32)"/><rect class="cls-3" x="62" y="146.09" width="24.6" height="3.07" transform="translate(-90.86 153.49) rotate(-65.32)"/><rect class="cls-3" x="52.4" y="149.64" width="24.6" height="3.07" transform="translate(-99.68 146.84) rotate(-65.32)"/><rect class="cls-3" x="42.8" y="153.19" width="24.6" height="3.07" transform="translate(-108.5 140.18) rotate(-65.32)"/><rect class="cls-3" x="33.2" y="156.74" width="24.6" height="3.07" transform="translate(-117.31 133.53) rotate(-65.32)"/><rect class="cls-3" x="23.61" y="160.29" width="24.6" height="3.07" transform="translate(-126.13 126.88) rotate(-65.32)"/><rect class="cls-3" x="19.14" y="160.56" width="17.37" height="3.07" transform="translate(-131.08 119.68) rotate(-65.32)"/><rect class="cls-3" x="22.03" y="141.89" width="3.07" height="17.37" transform="translate(-123.09 109.07) rotate(-65.3)"/><rect class="cls-3" x="76.33" y="115.46" width="3.07" height="24.6" transform="translate(-70.74 145.12) rotate(-65.3)"/><rect class="cls-3" x="66.73" y="119.01" width="3.07" height="24.6" transform="translate(-79.56 138.47) rotate(-65.3)"/><rect class="cls-3" x="57.13" y="122.56" width="3.07" height="24.6" transform="translate(-88.37 131.81) rotate(-65.3)"/><rect class="cls-3" x="47.53" y="126.11" width="3.07" height="24.6" transform="translate(-97.18 125.16) rotate(-65.3)"/><rect class="cls-3" x="37.93" y="129.66" width="3.07" height="24.6" transform="translate(-106 118.51) rotate(-65.3)"/><rect class="cls-3" x="28.34" y="133.21" width="3.07" height="24.6" transform="translate(-114.81 111.85) rotate(-65.3)"/><rect class="cls-2" x="81.13" y="113.68" width="3.07" height="24.6" transform="translate(-66.33 148.44) rotate(-65.3)"/><rect class="cls-2" x="71.53" y="117.23" width="3.07" height="24.6" transform="translate(-75.15 141.79) rotate(-65.3)"/><rect class="cls-2" x="61.93" y="120.78" width="3.07" height="24.6" transform="translate(-83.96 135.14) rotate(-65.3)"/><rect class="cls-2" x="52.33" y="124.33" width="3.07" height="24.6" transform="translate(-92.78 128.49) rotate(-65.3)"/><rect class="cls-2" x="42.73" y="127.88" width="3.07" height="24.6" transform="translate(-101.59 121.83) rotate(-65.3)"/><rect class="cls-2" x="33.14" y="131.44" width="3.07" height="24.6" transform="translate(-110.4 115.18) rotate(-65.3)"/><rect class="cls-2" x="23.54" y="134.99" width="3.07" height="24.6" transform="translate(-119.22 108.53) rotate(-65.3)"/><rect class="cls-2" x="76.4" y="140.76" width="24.6" height="3.07" transform="translate(-77.64 163.47) rotate(-65.32)"/><rect class="cls-2" x="66.8" y="144.32" width="24.6" height="3.07" transform="translate(-86.46 156.82) rotate(-65.32)"/><rect class="cls-2" x="57.2" y="147.87" width="24.6" height="3.07" transform="translate(-95.27 150.16) rotate(-65.32)"/><rect class="cls-2" x="47.6" y="151.42" width="24.6" height="3.07" transform="translate(-104.09 143.51) rotate(-65.32)"/><rect class="cls-2" x="38" y="154.97" width="24.6" height="3.07" transform="translate(-112.91 136.86) rotate(-65.32)"/><rect class="cls-2" x="28.41" y="158.52" width="24.6" height="3.07" transform="translate(-121.72 130.2) rotate(-65.32)"/><rect class="cls-2" x="18.81" y="162.07" width="24.6" height="3.07" transform="translate(-130.54 123.55) rotate(-65.32)"/><rect class="cls-2" x="16.48" y="160.03" width="15.2" height="3.07" transform="translate(-132.78 115.98) rotate(-65.32)"/><rect class="cls-2" x="18.04" y="144.73" width="3.07" height="15.2" transform="translate(-127 106.46) rotate(-65.3)"/><rect class="cls-3" x="8.06" y="142.6" width="98.25" height="3.07" transform="translate(-46.47 28.8) rotate(-20.31)"/><rect class="cls-2" x="103.19" y="122.47" width="3.07" height="71.64" transform="translate(-31.49 26.12) rotate(-12.37)"/><rect class="cls-2" x="105.88" y="117.64" width="3.07" height="24.6" transform="translate(-59.93 150.38) rotate(-57.39)"/><rect class="cls-2" x="78.11" y="132.13" width="24.6" height="3.07" transform="translate(-70.91 137.74) rotate(-57.37)"/><rect class="cls-3" x="79.21" y="137.13" width="24.6" height="3.07" transform="translate(-74.61 140.97) rotate(-57.37)"/><rect class="cls-3" x="106.97" y="122.64" width="3.07" height="24.6" transform="translate(-63.64 153.61) rotate(-57.39)"/><rect class="cls-3" x="109.16" y="132.63" width="3.07" height="24.6" transform="translate(-71.05 160.06) rotate(-57.39)"/><rect class="cls-3" x="111.36" y="142.63" width="3.07" height="24.6" transform="translate(-78.45 166.52) rotate(-57.39)"/><rect class="cls-3" x="113.55" y="152.62" width="3.07" height="24.6" transform="translate(-85.86 172.97) rotate(-57.39)"/><rect class="cls-3" x="115.74" y="162.62" width="3.07" height="24.6" transform="translate(-93.27 179.43) rotate(-57.39)"/><rect class="cls-3" x="117.93" y="172.62" width="3.07" height="24.6" transform="translate(-100.68 185.88) rotate(-57.39)"/><rect class="cls-3" x="120.13" y="182.61" width="3.07" height="24.6" transform="translate(-108.09 192.34) rotate(-57.39)"/><rect class="cls-3" x="119.27" y="194.28" width="3.07" height="17.37" transform="translate(-115.26 195.33) rotate(-57.39)"/><rect class="cls-3" x="100.13" y="204.06" width="17.37" height="3.07" transform="translate(-123 186.38) rotate(-57.37)"/><rect class="cls-3" x="81.4" y="147.13" width="24.6" height="3.07" transform="translate(-82.02 147.42) rotate(-57.37)"/><rect class="cls-3" x="83.6" y="157.12" width="24.6" height="3.07" transform="translate(-89.43 153.88) rotate(-57.37)"/><rect class="cls-3" x="85.79" y="167.12" width="24.6" height="3.07" transform="matrix(0.54, -0.84, 0.84, 0.54, -96.84, 160.33)"/><rect class="cls-3" x="87.98" y="177.11" width="24.6" height="3.07" transform="translate(-104.24 166.78) rotate(-57.37)"/><rect class="cls-3" x="90.17" y="187.11" width="24.6" height="3.07" transform="matrix(0.54, -0.84, 0.84, 0.54, -111.65, 173.24)"/><rect class="cls-3" x="92.37" y="197.11" width="24.6" height="3.07" transform="translate(-119.06 179.69) rotate(-57.37)"/><rect class="cls-2" x="80.31" y="142.13" width="24.6" height="3.07" transform="translate(-78.32 144.2) rotate(-57.37)"/><rect class="cls-2" x="82.5" y="152.12" width="24.6" height="3.07" transform="translate(-85.72 150.65) rotate(-57.37)"/><rect class="cls-2" x="84.69" y="162.12" width="24.6" height="3.07" transform="translate(-93.13 157.1) rotate(-57.37)"/><rect class="cls-2" x="86.88" y="172.12" width="24.6" height="3.07" transform="translate(-100.54 163.56) rotate(-57.37)"/><rect class="cls-2" x="89.08" y="182.11" width="24.6" height="3.07" transform="translate(-107.95 170.01) rotate(-57.37)"/><rect class="cls-2" x="91.27" y="192.11" width="24.6" height="3.07" transform="translate(-115.36 176.46) rotate(-57.37)"/><rect class="cls-2" x="93.46" y="202.11" width="24.6" height="3.07" transform="translate(-122.77 182.91) rotate(-57.37)"/><rect class="cls-2" x="108.07" y="127.63" width="3.07" height="24.6" transform="translate(-67.34 156.84) rotate(-57.39)"/><rect class="cls-2" x="110.26" y="137.63" width="3.07" height="24.6" transform="translate(-74.75 163.29) rotate(-57.39)"/><rect class="cls-2" x="112.45" y="147.63" width="3.07" height="24.6" transform="translate(-82.16 169.75) rotate(-57.39)"/><rect class="cls-2" x="114.65" y="157.62" width="3.07" height="24.6" transform="matrix(0.54, -0.84, 0.84, 0.54, -89.57, 176.2)"/><rect class="cls-2" x="116.84" y="167.62" width="3.07" height="24.6" transform="translate(-96.98 182.66) rotate(-57.39)"/><rect class="cls-2" x="119.03" y="177.62" width="3.07" height="24.6" transform="translate(-104.39 189.11) rotate(-57.39)"/><rect class="cls-2" x="121.22" y="187.61" width="3.07" height="24.6" transform="matrix(0.54, -0.84, 0.84, 0.54, -111.8, 195.57)"/><rect class="cls-2" x="118.24" y="198.99" width="3.07" height="15.2" transform="matrix(0.54, -0.84, 0.84, 0.54, -118.8, 196.13)"/><rect class="cls-2" x="102.4" y="208.25" width="15.2" height="3.07" transform="translate(-125.99 189.31) rotate(-57.37)"/><rect class="cls-3" x="105.54" y="122.27" width="3.07" height="98.25" transform="translate(-34.24 26.93) rotate(-12.37)"/><rect class="cls-2" x="121" y="96.05" width="3.07" height="71.64" transform="translate(-57.23 141.43) rotate(-50.15)"/><rect class="cls-2" x="94.99" y="106.28" width="24.6" height="3.07" transform="translate(-9.26 10.08) rotate(-5.16)"/><rect class="cls-2" x="94.6" y="108.87" width="3.07" height="24.6" transform="translate(-10.48 9.11) rotate(-5.14)"/><rect class="cls-3" x="98.53" y="112.15" width="3.07" height="24.6" transform="translate(-10.76 9.47) rotate(-5.14)"/><rect class="cls-3" x="98.91" y="109.56" width="24.6" height="3.07" transform="translate(-9.54 10.45) rotate(-5.16)"/><rect class="cls-3" x="106.77" y="116.12" width="24.6" height="3.07" transform="translate(-10.1 11.18) rotate(-5.16)"/><rect class="cls-3" x="114.63" y="122.68" width="24.6" height="3.07" transform="translate(-10.65 11.92) rotate(-5.16)"/><rect class="cls-3" x="122.48" y="129.23" width="24.6" height="3.07" transform="translate(-11.21 12.65) rotate(-5.16)"/><rect class="cls-3" x="130.34" y="135.79" width="24.6" height="3.07" transform="translate(-11.77 13.38) rotate(-5.16)"/><rect class="cls-3" x="138.19" y="142.35" width="24.6" height="3.07" transform="translate(-12.33 14.11) rotate(-5.16)"/><rect class="cls-3" x="146.05" y="148.91" width="24.6" height="3.07" transform="translate(-12.89 14.85) rotate(-5.16)"/><rect class="cls-3" x="153.92" y="155.79" width="17.37" height="3.07" transform="translate(-13.49 15.26) rotate(-5.16)"/><rect class="cls-3" x="153.2" y="158.07" width="3.07" height="17.37" transform="translate(-14.33 14.55) rotate(-5.14)"/><rect class="cls-3" x="106.39" y="118.71" width="3.07" height="24.6" transform="translate(-11.31 10.2) rotate(-5.14)"/><rect class="cls-3" x="114.24" y="125.26" width="3.07" height="24.6" transform="translate(-11.87 10.93) rotate(-5.14)"/><rect class="cls-3" x="122.1" y="131.82" width="3.07" height="24.6" transform="translate(-12.42 11.67) rotate(-5.14)"/><rect class="cls-3" x="129.96" y="138.38" width="3.07" height="24.6" transform="translate(-12.98 12.4) rotate(-5.14)"/><rect class="cls-3" x="137.81" y="144.94" width="3.07" height="24.6" transform="matrix(1, -0.09, 0.09, 1, -13.54, 13.13)"/><rect class="cls-3" x="145.67" y="151.5" width="3.07" height="24.6" transform="translate(-14.09 13.86) rotate(-5.14)"/><rect class="cls-2" x="102.46" y="115.43" width="3.07" height="24.6" transform="translate(-11.03 9.84) rotate(-5.14)"/><rect class="cls-2" x="110.32" y="121.98" width="3.07" height="24.6" transform="translate(-11.59 10.57) rotate(-5.14)"/><rect class="cls-2" x="118.17" y="128.54" width="3.07" height="24.6" transform="translate(-12.15 11.3) rotate(-5.14)"/><rect class="cls-2" x="126.03" y="135.1" width="3.07" height="24.6" transform="translate(-12.7 12.03) rotate(-5.14)"/><rect class="cls-2" x="133.88" y="141.66" width="3.07" height="24.6" transform="translate(-13.26 12.76) rotate(-5.14)"/><rect class="cls-2" x="141.74" y="148.22" width="3.07" height="24.6" transform="translate(-13.82 13.49) rotate(-5.14)"/><rect class="cls-2" x="149.6" y="154.78" width="3.07" height="24.6" transform="translate(-14.37 14.22) rotate(-5.14)"/><rect class="cls-2" x="102.84" y="112.84" width="24.6" height="3.07" transform="translate(-9.82 10.82) rotate(-5.16)"/><rect class="cls-2" x="110.7" y="119.4" width="24.6" height="3.07" transform="translate(-10.38 11.55) rotate(-5.16)"/><rect class="cls-2" x="118.55" y="125.95" width="24.6" height="3.07" transform="translate(-10.93 12.28) rotate(-5.16)"/><rect class="cls-2" x="126.41" y="132.51" width="24.6" height="3.07" transform="translate(-11.49 13.01) rotate(-5.16)"/><rect class="cls-2" x="134.27" y="139.07" width="24.6" height="3.07" transform="translate(-12.05 13.75) rotate(-5.16)"/><rect class="cls-2" x="142.12" y="145.63" width="24.6" height="3.07" transform="translate(-12.61 14.48) rotate(-5.16)"/><rect class="cls-2" x="149.98" y="152.19" width="24.6" height="3.07" transform="translate(-13.16 15.21) rotate(-5.16)"/><rect class="cls-2" x="156.41" y="159.3" width="15.2" height="3.07" transform="translate(-13.8 15.4) rotate(-5.16)"/><rect class="cls-2" x="156.7" y="161.75" width="3.07" height="15.2" transform="translate(-14.55 14.87) rotate(-5.14)"/><rect class="cls-3" x="130.88" y="91.67" width="3.07" height="98.25" transform="translate(-60.52 152.22) rotate(-50.15)"/><rect class="cls-2" x="118.33" y="69.72" width="2.7" height="62.94" transform="translate(-27.1 156.14) rotate(-60.74)"/><rect class="cls-2" x="91.82" y="81.53" width="21.62" height="2.7" transform="translate(-18.64 30.97) rotate(-15.75)"/><rect class="cls-2" x="93.81" y="85.41" width="2.7" height="21.62" transform="translate(-22.53 29.42) rotate(-15.74)"/><rect class="cls-3" x="97.73" y="87.6" width="2.7" height="21.62" transform="matrix(0.96, -0.27, 0.27, 0.96, -22.98, 30.56)"/><rect class="cls-3" x="95.75" y="83.73" width="21.62" height="2.7" transform="translate(-19.09 32.12) rotate(-15.75)"/><rect class="cls-3" x="103.59" y="88.12" width="21.62" height="2.7" transform="translate(-19.99 34.41) rotate(-15.75)"/><rect class="cls-3" x="111.43" y="92.52" width="21.62" height="2.7" transform="matrix(0.96, -0.27, 0.27, 0.96, -20.89, 36.71)"/><rect class="cls-3" x="119.28" y="96.91" width="21.62" height="2.7" transform="matrix(0.96, -0.27, 0.27, 0.96, -21.79, 39)"/><rect class="cls-3" x="127.12" y="101.31" width="21.62" height="2.7" transform="translate(-22.69 41.3) rotate(-15.75)"/><rect class="cls-3" x="134.97" y="105.7" width="21.62" height="2.7" transform="translate(-23.59 43.59) rotate(-15.75)"/><rect class="cls-3" x="142.81" y="110.1" width="21.62" height="2.7" transform="translate(-24.49 45.89) rotate(-15.75)"/><rect class="cls-3" x="150.77" y="115.36" width="15.26" height="2.7" transform="translate(-25.73 47.38) rotate(-15.75)"/><rect class="cls-3" x="151.78" y="118.49" width="2.7" height="15.26" transform="translate(-28.47 46.26) rotate(-15.74)"/><rect class="cls-3" x="105.58" y="92" width="2.7" height="21.62" transform="translate(-23.88 32.85) rotate(-15.74)"/><rect class="cls-3" x="113.42" y="96.39" width="2.7" height="21.62" transform="matrix(0.96, -0.27, 0.27, 0.96, -24.77, 35.15)"/><rect class="cls-3" x="121.27" y="100.79" width="2.7" height="21.62" transform="translate(-25.67 37.44) rotate(-15.74)"/><rect class="cls-3" x="129.11" y="105.18" width="2.7" height="21.62" transform="translate(-26.57 39.73) rotate(-15.74)"/><rect class="cls-3" x="136.95" y="109.58" width="2.7" height="21.62" transform="translate(-27.47 42.02) rotate(-15.74)"/><rect class="cls-3" x="144.8" y="113.97" width="2.7" height="21.62" transform="translate(-28.37 44.31) rotate(-15.74)"/><rect class="cls-2" x="101.66" y="89.8" width="2.7" height="21.62" transform="translate(-23.43 31.71) rotate(-15.74)"/><rect class="cls-2" x="109.5" y="94.2" width="2.7" height="21.62" transform="translate(-24.32 34) rotate(-15.74)"/><rect class="cls-2" x="117.34" y="98.59" width="2.7" height="21.62" transform="translate(-25.22 36.29) rotate(-15.74)"/><rect class="cls-2" x="125.19" y="102.99" width="2.7" height="21.62" transform="translate(-26.12 38.58) rotate(-15.74)"/><rect class="cls-2" x="133.03" y="107.38" width="2.7" height="21.62" transform="translate(-27.02 40.88) rotate(-15.74)"/><rect class="cls-2" x="140.88" y="111.78" width="2.7" height="21.62" transform="translate(-27.92 43.17) rotate(-15.74)"/><rect class="cls-2" x="148.72" y="116.17" width="2.7" height="21.62" transform="translate(-28.81 45.46) rotate(-15.74)"/><rect class="cls-2" x="99.67" y="85.93" width="21.62" height="2.7" transform="translate(-19.54 33.27) rotate(-15.75)"/><rect class="cls-2" x="107.51" y="90.32" width="21.62" height="2.7" transform="matrix(0.96, -0.27, 0.27, 0.96, -20.44, 35.56)"/><rect class="cls-2" x="115.36" y="94.72" width="21.62" height="2.7" transform="translate(-21.34 37.86) rotate(-15.75)"/><rect class="cls-2" x="123.2" y="99.11" width="21.62" height="2.7" transform="translate(-22.24 40.15) rotate(-15.75)"/><rect class="cls-2" x="131.04" y="103.51" width="21.62" height="2.7" transform="translate(-23.14 42.44) rotate(-15.75)"/><rect class="cls-2" x="138.89" y="107.9" width="21.62" height="2.7" transform="matrix(0.96, -0.27, 0.27, 0.96, -24.04, 44.74)"/><rect class="cls-2" x="146.73" y="112.3" width="21.62" height="2.7" transform="translate(-24.93 47.03) rotate(-15.75)"/><rect class="cls-2" x="153.51" y="118.16" width="13.35" height="2.7" transform="translate(-26.43 47.97) rotate(-15.75)"/><rect class="cls-2" x="155.22" y="121.11" width="2.7" height="13.35" transform="translate(-28.79 47.26) rotate(-15.74)"/><rect class="cls-3" x="128.31" y="64.14" width="2.7" height="86.32" transform="translate(-27.32 167.97) rotate(-60.74)"/><rect class="cls-2" x="43.73" y="114.75" width="62.94" height="2.7" transform="translate(-46.4 50.16) rotate(-28.6)"/><rect class="cls-2" x="88.97" y="110.06" width="21.62" height="2.7" transform="translate(-35.25 175.7) rotate(-73.61)"/><rect class="cls-2" x="91.12" y="87.18" width="2.7" height="21.62" transform="translate(-27.65 159.01) rotate(-73.59)"/><rect class="cls-3" x="87.17" y="89.33" width="2.7" height="21.62" transform="translate(-32.54 156.77) rotate(-73.6)"/><rect class="cls-3" x="85.03" y="112.21" width="21.62" height="2.7" transform="matrix(0.28, -0.96, 0.96, 0.28, -40.15, 173.45)"/><rect class="cls-3" x="77.13" y="116.51" width="21.62" height="2.7" transform="translate(-49.95 168.97) rotate(-73.61)"/><rect class="cls-3" x="69.24" y="120.82" width="21.62" height="2.7" transform="translate(-59.74 164.48) rotate(-73.61)"/><rect class="cls-3" x="61.34" y="125.12" width="21.62" height="2.7" transform="translate(-69.54 160) rotate(-73.61)"/><rect class="cls-3" x="53.45" y="129.42" width="21.62" height="2.7" transform="translate(-79.33 155.51) rotate(-73.61)"/><rect class="cls-3" x="45.55" y="133.73" width="21.62" height="2.7" transform="translate(-89.13 151.03) rotate(-73.61)"/><rect class="cls-3" x="37.66" y="138.03" width="21.62" height="2.7" transform="translate(-98.92 146.54) rotate(-73.61)"/><rect class="cls-3" x="33.84" y="139.28" width="15.26" height="2.7" transform="translate(-105.15 140.73) rotate(-73.61)"/><rect class="cls-3" x="34.96" y="123.53" width="2.7" height="15.26" transform="translate(-99.77 128.95) rotate(-73.6)"/><rect class="cls-3" x="79.28" y="93.63" width="2.7" height="21.62" transform="translate(-42.34 152.29) rotate(-73.59)"/><rect class="cls-3" x="71.38" y="97.94" width="2.7" height="21.62" transform="translate(-52.13 147.8) rotate(-73.6)"/><rect class="cls-3" x="63.49" y="102.24" width="2.7" height="21.62" transform="translate(-61.92 143.31) rotate(-73.59)"/><rect class="cls-3" x="55.59" y="106.54" width="2.7" height="21.62" transform="translate(-71.71 138.83) rotate(-73.59)"/><rect class="cls-3" x="47.7" y="110.85" width="2.7" height="21.62" transform="translate(-81.51 134.34) rotate(-73.6)"/><rect class="cls-3" x="39.8" y="115.15" width="2.7" height="21.62" transform="translate(-91.3 129.86) rotate(-73.59)"/><rect class="cls-2" x="83.22" y="91.48" width="2.7" height="21.62" transform="translate(-37.44 154.53) rotate(-73.59)"/><rect class="cls-2" x="75.33" y="95.78" width="2.7" height="21.62" transform="translate(-47.23 150.04) rotate(-73.6)"/><rect class="cls-2" x="67.43" y="100.09" width="2.7" height="21.62" transform="translate(-57.02 145.56) rotate(-73.59)"/><rect class="cls-2" x="59.54" y="104.39" width="2.7" height="21.62" transform="translate(-66.82 141.07) rotate(-73.6)"/><rect class="cls-2" x="51.64" y="108.69" width="2.7" height="21.62" transform="translate(-76.61 136.59) rotate(-73.59)"/><rect class="cls-2" x="43.75" y="113" width="2.7" height="21.62" transform="translate(-86.4 132.1) rotate(-73.59)"/><rect class="cls-2" x="35.85" y="117.3" width="2.7" height="21.62" transform="translate(-96.2 127.62) rotate(-73.59)"/><rect class="cls-2" x="81.08" y="114.36" width="21.62" height="2.7" transform="translate(-45.05 171.21) rotate(-73.61)"/><rect class="cls-2" x="73.18" y="118.66" width="21.62" height="2.7" transform="translate(-54.84 166.73) rotate(-73.61)"/><rect class="cls-2" x="65.29" y="122.97" width="21.62" height="2.7" transform="translate(-64.64 162.24) rotate(-73.61)"/><rect class="cls-2" x="57.4" y="127.27" width="21.62" height="2.7" transform="matrix(0.28, -0.96, 0.96, 0.28, -74.44, 157.76)"/><rect class="cls-2" x="49.5" y="131.57" width="21.62" height="2.7" transform="translate(-84.23 153.27) rotate(-73.61)"/><rect class="cls-2" x="41.61" y="135.88" width="21.62" height="2.7" transform="translate(-94.03 148.79) rotate(-73.61)"/><rect class="cls-2" x="33.71" y="140.18" width="21.62" height="2.7" transform="translate(-103.82 144.3) rotate(-73.61)"/><rect class="cls-2" x="31.47" y="139.3" width="13.35" height="2.7" transform="translate(-107.55 137.56) rotate(-73.61)"/><rect class="cls-2" x="31.71" y="126.51" width="2.7" height="13.35" transform="matrix(0.28, -0.96, 0.96, 0.28, -104.04, 127.28)"/><rect class="cls-3" x="21.57" y="119.95" width="86.32" height="2.7" transform="translate(-50.16 45.78) rotate(-28.6)"/><rect class="cls-2" x="45.73" y="80.75" width="62.94" height="2.7" transform="translate(-29.88 46.97) rotate(-28.6)"/><rect class="cls-2" x="90.97" y="76.06" width="21.62" height="2.7" transform="translate(-1.2 153.21) rotate(-73.61)"/><rect class="cls-2" x="93.12" y="53.18" width="2.7" height="21.62" transform="translate(6.41 136.53) rotate(-73.59)"/><rect class="cls-3" x="89.17" y="55.33" width="2.7" height="21.62" transform="translate(1.51 134.29) rotate(-73.6)"/><rect class="cls-3" x="87.03" y="78.21" width="21.62" height="2.7" transform="matrix(0.28, -0.96, 0.96, 0.28, -6.1, 150.97)"/><rect class="cls-3" x="79.13" y="82.51" width="21.62" height="2.7" transform="translate(-15.89 146.48) rotate(-73.61)"/><rect class="cls-3" x="71.24" y="86.82" width="21.62" height="2.7" transform="translate(-25.69 142) rotate(-73.61)"/><rect class="cls-3" x="63.34" y="91.12" width="21.62" height="2.7" transform="translate(-35.48 137.51) rotate(-73.61)"/><rect class="cls-3" x="55.45" y="95.42" width="21.62" height="2.7" transform="translate(-45.28 133.03) rotate(-73.61)"/><rect class="cls-3" x="47.55" y="99.73" width="21.62" height="2.7" transform="translate(-55.07 128.54) rotate(-73.61)"/><rect class="cls-3" x="39.66" y="104.03" width="21.62" height="2.7" transform="translate(-64.87 124.06) rotate(-73.61)"/><rect class="cls-3" x="35.84" y="105.28" width="15.26" height="2.7" transform="translate(-71.1 118.25) rotate(-73.61)"/><rect class="cls-3" x="36.96" y="89.53" width="2.7" height="15.26" transform="translate(-65.72 106.47) rotate(-73.6)"/><rect class="cls-3" x="81.28" y="59.63" width="2.7" height="21.62" transform="translate(-8.28 129.81) rotate(-73.59)"/><rect class="cls-3" x="73.38" y="63.94" width="2.7" height="21.62" transform="translate(-18.08 125.32) rotate(-73.6)"/><rect class="cls-3" x="65.49" y="68.24" width="2.7" height="21.62" transform="translate(-27.87 120.84) rotate(-73.59)"/><rect class="cls-3" x="57.59" y="72.54" width="2.7" height="21.62" transform="translate(-37.66 116.35) rotate(-73.59)"/><rect class="cls-3" x="49.7" y="76.85" width="2.7" height="21.62" transform="translate(-47.46 111.87) rotate(-73.6)"/><rect class="cls-3" x="41.8" y="81.15" width="2.7" height="21.62" transform="translate(-57.25 107.38) rotate(-73.59)"/><rect class="cls-2" x="85.22" y="57.48" width="2.7" height="21.62" transform="translate(-3.39 132.05) rotate(-73.59)"/><rect class="cls-2" x="77.33" y="61.78" width="2.7" height="21.62" transform="translate(-13.18 127.56) rotate(-73.6)"/><rect class="cls-2" x="69.43" y="66.09" width="2.7" height="21.62" transform="translate(-22.97 123.08) rotate(-73.59)"/><rect class="cls-2" x="61.54" y="70.39" width="2.7" height="21.62" transform="translate(-32.77 118.59) rotate(-73.6)"/><rect class="cls-2" x="53.64" y="74.69" width="2.7" height="21.62" transform="translate(-42.56 114.11) rotate(-73.59)"/><rect class="cls-2" x="45.75" y="79" width="2.7" height="21.62" transform="translate(-52.35 109.62) rotate(-73.59)"/><rect class="cls-2" x="37.85" y="83.3" width="2.7" height="21.62" transform="translate(-62.15 105.14) rotate(-73.59)"/><rect class="cls-2" x="83.08" y="80.36" width="21.62" height="2.7" transform="translate(-11 148.72) rotate(-73.61)"/><rect class="cls-2" x="75.18" y="84.66" width="21.62" height="2.7" transform="translate(-20.79 144.24) rotate(-73.61)"/><rect class="cls-2" x="67.29" y="88.97" width="21.62" height="2.7" transform="translate(-30.59 139.75) rotate(-73.61)"/><rect class="cls-2" x="59.4" y="93.27" width="21.62" height="2.7" transform="matrix(0.28, -0.96, 0.96, 0.28, -40.38, 135.27)"/><rect class="cls-2" x="51.5" y="97.57" width="21.62" height="2.7" transform="translate(-50.18 130.78) rotate(-73.61)"/><rect class="cls-2" x="43.61" y="101.88" width="21.62" height="2.7" transform="translate(-59.97 126.3) rotate(-73.61)"/><rect class="cls-2" x="35.71" y="106.18" width="21.62" height="2.7" transform="translate(-69.77 121.82) rotate(-73.61)"/><rect class="cls-2" x="33.47" y="105.3" width="13.35" height="2.7" transform="translate(-73.49 115.07) rotate(-73.61)"/><rect class="cls-2" x="33.71" y="92.51" width="2.7" height="13.35" transform="matrix(0.28, -0.96, 0.96, 0.28, -69.99, 104.8)"/><rect class="cls-3" x="23.57" y="85.95" width="86.32" height="2.7" transform="translate(-33.65 42.59) rotate(-28.6)"/><rect class="cls-2" x="70.39" y="81.65" width="44.48" height="1.91" transform="translate(-5.2 158.97) rotate(-79.7)"/><rect class="cls-2" x="100" y="59.36" width="1.91" height="15.28" transform="translate(-20.18 69.41) rotate(-34.71)"/><rect class="cls-2" x="82.69" y="64.11" width="15.28" height="1.91" transform="translate(-20.97 62.99) rotate(-34.7)"/><rect class="cls-3" x="82.12" y="67.24" width="15.28" height="1.91" transform="translate(-22.86 63.22) rotate(-34.7)"/><rect class="cls-3" x="99.44" y="62.48" width="1.91" height="15.28" transform="translate(-22.06 69.65) rotate(-34.71)"/><rect class="cls-3" x="98.3" y="68.74" width="1.91" height="15.28" transform="translate(-25.83 70.11) rotate(-34.71)"/><rect class="cls-3" x="97.16" y="74.99" width="1.91" height="15.28" transform="translate(-29.59 70.58) rotate(-34.71)"/><rect class="cls-3" x="96.03" y="81.24" width="1.91" height="15.28" transform="translate(-33.35 71.04) rotate(-34.71)"/><rect class="cls-3" x="94.89" y="87.49" width="1.91" height="15.28" transform="translate(-37.12 71.51) rotate(-34.71)"/><rect class="cls-3" x="93.75" y="93.75" width="1.91" height="15.28" transform="translate(-40.88 71.98) rotate(-34.71)"/><rect class="cls-3" x="92.62" y="100" width="1.91" height="15.28" transform="translate(-44.64 72.44) rotate(-34.71)"/><rect class="cls-3" x="90.2" y="106.65" width="1.91" height="10.78" transform="translate(-47.58 71.85) rotate(-34.71)"/><rect class="cls-3" x="78.26" y="109.72" width="10.78" height="1.91" transform="translate(-48.13 67.3) rotate(-34.7)"/><rect class="cls-3" x="80.98" y="73.49" width="15.28" height="1.91" transform="translate(-26.62 63.69) rotate(-34.7)"/><rect class="cls-3" x="79.85" y="79.74" width="15.28" height="1.91" transform="translate(-30.38 64.15) rotate(-34.7)"/><rect class="cls-3" x="78.71" y="85.99" width="15.28" height="1.91" transform="translate(-34.14 64.62) rotate(-34.7)"/><rect class="cls-3" x="77.57" y="92.25" width="15.28" height="1.91" transform="translate(-37.9 65.08) rotate(-34.7)"/><rect class="cls-3" x="76.44" y="98.5" width="15.28" height="1.91" transform="translate(-41.66 65.55) rotate(-34.7)"/><rect class="cls-3" x="75.3" y="104.75" width="15.28" height="1.91" transform="translate(-45.42 66.01) rotate(-34.7)"/><rect class="cls-2" x="81.55" y="70.36" width="15.28" height="1.91" transform="translate(-24.74 63.45) rotate(-34.7)"/><rect class="cls-2" x="80.42" y="76.62" width="15.28" height="1.91" transform="translate(-28.5 63.92) rotate(-34.7)"/><rect class="cls-2" x="79.28" y="82.87" width="15.28" height="1.91" transform="translate(-32.26 64.38) rotate(-34.7)"/><rect class="cls-2" x="78.14" y="89.12" width="15.28" height="1.91" transform="translate(-36.02 64.85) rotate(-34.7)"/><rect class="cls-2" x="77.01" y="95.37" width="15.28" height="1.91" transform="translate(-39.78 65.31) rotate(-34.7)"/><rect class="cls-2" x="75.87" y="101.62" width="15.28" height="1.91" transform="translate(-43.54 65.78) rotate(-34.7)"/><rect class="cls-2" x="74.73" y="107.88" width="15.28" height="1.91" transform="translate(-47.3 66.24) rotate(-34.7)"/><rect class="cls-2" x="98.87" y="65.61" width="1.91" height="15.28" transform="translate(-23.95 69.88) rotate(-34.71)"/><rect class="cls-2" x="97.73" y="71.86" width="1.91" height="15.28" transform="translate(-27.71 70.35) rotate(-34.71)"/><rect class="cls-2" x="96.59" y="78.11" width="1.91" height="15.28" transform="translate(-31.47 70.81) rotate(-34.71)"/><rect class="cls-2" x="95.46" y="84.37" width="1.91" height="15.28" transform="translate(-35.23 71.28) rotate(-34.71)"/><rect class="cls-2" x="94.32" y="90.62" width="1.91" height="15.28" transform="translate(-39 71.74) rotate(-34.71)"/><rect class="cls-2" x="93.18" y="96.87" width="1.91" height="15.28" transform="translate(-42.76 72.21) rotate(-34.71)"/><rect class="cls-2" x="92.05" y="103.12" width="1.91" height="15.28" transform="translate(-46.52 72.67) rotate(-34.71)"/><rect class="cls-2" x="88.74" y="109.16" width="1.91" height="9.44" transform="translate(-48.88 71.34) rotate(-34.71)"/><rect class="cls-2" x="78.61" y="112.41" width="9.44" height="1.91" transform="translate(-49.71 67.59) rotate(-34.7)"/><rect class="cls-3" x="60.34" y="89.72" width="61" height="1.91" transform="translate(-14.61 163.84) rotate(-79.7)"/><rect class="cls-2" x="119.7" y="40.91" width="2.35" height="54.84" transform="translate(30.8 173.99) rotate(-79.03)"/><rect class="cls-2" x="92.34" y="56.66" width="18.83" height="2.35" transform="translate(-14.94 66.88) rotate(-34.05)"/><rect class="cls-2" x="98.05" y="61.49" width="2.35" height="18.83" transform="matrix(0.83, -0.56, 0.56, 0.83, -22.69, 67.67)"/><rect class="cls-3" x="101.9" y="62.24" width="2.35" height="18.83" transform="translate(-22.45 69.95) rotate(-34.03)"/><rect class="cls-3" x="96.19" y="57.41" width="18.83" height="2.35" transform="translate(-14.7 69.16) rotate(-34.05)"/><rect class="cls-3" x="103.88" y="58.9" width="18.83" height="2.35" transform="matrix(0.83, -0.56, 0.56, 0.83, -14.21, 73.73)"/><rect class="cls-3" x="111.57" y="60.39" width="18.83" height="2.35" transform="translate(-13.73 78.29) rotate(-34.05)"/><rect class="cls-3" x="119.26" y="61.88" width="18.83" height="2.35" transform="matrix(0.83, -0.56, 0.56, 0.83, -13.24, 82.85)"/><rect class="cls-3" x="126.95" y="63.37" width="18.83" height="2.35" transform="translate(-12.76 87.41) rotate(-34.05)"/><rect class="cls-3" x="134.64" y="64.86" width="18.83" height="2.35" transform="translate(-12.28 91.97) rotate(-34.05)"/><rect class="cls-3" x="142.33" y="66.35" width="18.83" height="2.35" transform="translate(-11.79 96.53) rotate(-34.05)"/><rect class="cls-3" x="150.5" y="69.39" width="13.29" height="2.35" transform="translate(-12.57 100.07) rotate(-34.05)"/><rect class="cls-3" x="154.18" y="73.15" width="2.35" height="13.29" transform="translate(-18.05 100.61) rotate(-34.03)"/><rect class="cls-3" x="109.59" y="63.73" width="2.35" height="18.83" transform="translate(-21.97 74.51) rotate(-34.03)"/><rect class="cls-3" x="117.28" y="65.22" width="2.35" height="18.83" transform="translate(-21.48 79.07) rotate(-34.03)"/><rect class="cls-3" x="124.97" y="66.71" width="2.35" height="18.83" transform="translate(-21 83.63) rotate(-34.03)"/><rect class="cls-3" x="132.66" y="68.2" width="2.35" height="18.83" transform="translate(-20.52 88.19) rotate(-34.03)"/><rect class="cls-3" x="140.35" y="69.69" width="2.35" height="18.83" transform="translate(-20.03 92.75) rotate(-34.03)"/><rect class="cls-3" x="148.04" y="71.18" width="2.35" height="18.83" transform="translate(-19.55 97.31) rotate(-34.03)"/><rect class="cls-2" x="105.74" y="62.98" width="2.35" height="18.83" transform="translate(-22.21 72.23) rotate(-34.03)"/><rect class="cls-2" x="113.43" y="64.48" width="2.35" height="18.83" transform="translate(-21.72 76.79) rotate(-34.03)"/><rect class="cls-2" x="121.12" y="65.97" width="2.35" height="18.83" transform="translate(-21.24 81.35) rotate(-34.03)"/><rect class="cls-2" x="128.82" y="67.46" width="2.35" height="18.83" transform="translate(-20.76 85.91) rotate(-34.03)"/><rect class="cls-2" x="136.51" y="68.95" width="2.35" height="18.83" transform="translate(-20.28 90.47) rotate(-34.03)"/><rect class="cls-2" x="144.2" y="70.44" width="2.35" height="18.83" transform="translate(-19.79 95.03) rotate(-34.03)"/><rect class="cls-2" x="151.89" y="71.93" width="2.35" height="18.83" transform="translate(-19.31 99.59) rotate(-34.03)"/><rect class="cls-2" x="100.04" y="58.15" width="18.83" height="2.35" transform="translate(-14.45 71.45) rotate(-34.05)"/><rect class="cls-2" x="107.73" y="59.64" width="18.83" height="2.35" transform="translate(-13.97 76.01) rotate(-34.05)"/><rect class="cls-2" x="115.42" y="61.13" width="18.83" height="2.35" transform="translate(-13.49 80.57) rotate(-34.05)"/><rect class="cls-2" x="123.11" y="62.62" width="18.83" height="2.35" transform="matrix(0.83, -0.56, 0.56, 0.83, -13, 85.13)"/><rect class="cls-2" x="130.8" y="64.12" width="18.83" height="2.35" transform="translate(-12.52 89.69) rotate(-34.05)"/><rect class="cls-2" x="138.49" y="65.61" width="18.83" height="2.35" transform="translate(-12.04 94.25) rotate(-34.05)"/><rect class="cls-2" x="146.18" y="67.1" width="18.83" height="2.35" transform="translate(-11.55 98.81) rotate(-34.05)"/><rect class="cls-2" x="153.57" y="71.22" width="11.63" height="2.35" transform="matrix(0.83, -0.56, 0.56, 0.83, -13.21, 101.64)"/><rect class="cls-2" x="157.49" y="74.42" width="2.35" height="11.63" transform="translate(-17.73 102.54) rotate(-34.03)"/><rect class="cls-3" x="129.62" y="33.04" width="2.35" height="75.21" transform="translate(36.56 185.62) rotate(-79.03)"/><rect class="cls-2" x="90" y="48.73" width="39.73" height="1.7" transform="translate(-5.9 83.15) rotate(-40.46)"/><rect class="cls-2" x="88.47" y="54.81" width="13.65" height="1.7" transform="translate(32.28 146.26) rotate(-85.47)"/><rect class="cls-2" x="100.7" y="56.18" width="1.7" height="13.65" transform="translate(30.7 159.25) rotate(-85.46)"/><rect class="cls-3" x="102.86" y="54.34" width="1.7" height="13.65" transform="translate(34.52 159.71) rotate(-85.46)"/><rect class="cls-3" x="90.63" y="52.97" width="13.65" height="1.7" transform="matrix(0.08, -1, 1, 0.08, 36.1, 146.72)"/><rect class="cls-3" x="94.95" y="49.29" width="13.65" height="1.7" transform="translate(43.75 147.63) rotate(-85.47)"/><rect class="cls-3" x="99.26" y="45.61" width="13.65" height="1.7" transform="translate(51.4 148.55) rotate(-85.47)"/><rect class="cls-3" x="103.58" y="41.92" width="13.65" height="1.7" transform="translate(59.05 149.46) rotate(-85.47)"/><rect class="cls-3" x="107.9" y="38.24" width="13.65" height="1.7" transform="translate(66.7 150.37) rotate(-85.47)"/><rect class="cls-3" x="112.22" y="34.56" width="13.65" height="1.7" transform="translate(74.35 151.29) rotate(-85.47)"/><rect class="cls-3" x="116.54" y="30.88" width="13.65" height="1.7" transform="translate(81.99 152.2) rotate(-85.47)"/><rect class="cls-3" x="122.71" y="29.19" width="9.63" height="1.7" transform="translate(87.5 154.8) rotate(-85.47)"/><rect class="cls-3" x="131.09" y="30.41" width="1.7" height="9.63" transform="translate(86.38 163.96) rotate(-85.46)"/><rect class="cls-3" x="107.18" y="50.66" width="1.7" height="13.65" transform="translate(42.17 160.62) rotate(-85.46)"/><rect class="cls-3" x="111.5" y="46.98" width="1.7" height="13.65" transform="translate(49.82 161.53) rotate(-85.46)"/><rect class="cls-3" x="115.81" y="43.29" width="1.7" height="13.65" transform="translate(57.47 162.45) rotate(-85.46)"/><rect class="cls-3" x="120.13" y="39.61" width="1.7" height="13.65" transform="translate(65.11 163.36) rotate(-85.46)"/><rect class="cls-3" x="124.45" y="35.93" width="1.7" height="13.65" transform="translate(72.76 164.28) rotate(-85.46)"/><rect class="cls-3" x="128.77" y="32.25" width="1.7" height="13.65" transform="translate(80.41 165.19) rotate(-85.46)"/><rect class="cls-2" x="105.02" y="52.5" width="1.7" height="13.65" transform="translate(38.35 160.16) rotate(-85.46)"/><rect class="cls-2" x="109.34" y="48.82" width="1.7" height="13.65" transform="translate(45.99 161.08) rotate(-85.46)"/><rect class="cls-2" x="113.66" y="45.14" width="1.7" height="13.65" transform="translate(53.64 161.99) rotate(-85.46)"/><rect class="cls-2" x="117.97" y="41.45" width="1.7" height="13.65" transform="translate(61.29 162.9) rotate(-85.46)"/><rect class="cls-2" x="122.29" y="37.77" width="1.7" height="13.65" transform="translate(68.94 163.82) rotate(-85.46)"/><rect class="cls-2" x="126.61" y="34.09" width="1.7" height="13.65" transform="translate(76.59 164.73) rotate(-85.46)"/><rect class="cls-2" x="130.93" y="30.4" width="1.7" height="13.65" transform="translate(84.23 165.65) rotate(-85.46)"/><rect class="cls-2" x="92.79" y="51.13" width="13.65" height="1.7" transform="translate(39.92 147.18) rotate(-85.47)"/><rect class="cls-2" x="97.1" y="47.45" width="13.65" height="1.7" transform="translate(47.57 148.09) rotate(-85.47)"/><rect class="cls-2" x="101.42" y="43.77" width="13.65" height="1.7" transform="translate(55.22 149) rotate(-85.47)"/><rect class="cls-2" x="105.74" y="40.08" width="13.65" height="1.7" transform="translate(62.87 149.92) rotate(-85.47)"/><rect class="cls-2" x="110.06" y="36.4" width="13.65" height="1.7" transform="translate(70.52 150.83) rotate(-85.47)"/><rect class="cls-2" x="114.38" y="32.72" width="13.65" height="1.7" transform="translate(78.17 151.74) rotate(-85.47)"/><rect class="cls-2" x="118.7" y="29.03" width="13.65" height="1.7" transform="translate(85.82 152.65) rotate(-85.47)"/><rect class="cls-2" x="125.36" y="28.75" width="8.43" height="1.7" transform="translate(89.83 156.43) rotate(-85.47)"/><rect class="cls-2" x="132.83" y="29.34" width="1.7" height="8.43" transform="translate(89.65 164.16) rotate(-85.46)"/><rect class="cls-3" x="88.42" y="44.15" width="54.49" height="1.7" transform="translate(-1.54 85.82) rotate(-40.46)"/><rect class="cls-2" x="52.55" y="59.1" width="44.43" height="1.9" transform="translate(-15.55 27.82) rotate(-19.13)"/><rect class="cls-2" x="84.79" y="58.68" width="15.26" height="1.9" transform="translate(-1.55 116.79) rotate(-64.14)"/><rect class="cls-2" x="87.93" y="41.81" width="1.9" height="15.26" transform="translate(5.61 107.84) rotate(-64.13)"/><rect class="cls-3" x="84.94" y="42.85" width="1.9" height="15.26" transform="translate(2.99 105.73) rotate(-64.13)"/><rect class="cls-3" x="81.79" y="59.72" width="15.26" height="1.9" transform="translate(-4.18 114.68) rotate(-64.14)"/><rect class="cls-3" x="75.8" y="61.8" width="15.26" height="1.9" transform="translate(-9.43 110.46) rotate(-64.14)"/><rect class="cls-3" x="69.8" y="63.88" width="15.26" height="1.9" transform="translate(-14.69 106.23) rotate(-64.14)"/><rect class="cls-3" x="63.8" y="65.96" width="15.26" height="1.9" transform="translate(-19.94 102.01) rotate(-64.14)"/><rect class="cls-3" x="57.81" y="68.04" width="15.26" height="1.9" transform="translate(-25.19 97.79) rotate(-64.14)"/><rect class="cls-3" x="51.81" y="70.12" width="15.26" height="1.9" transform="translate(-30.44 93.56) rotate(-64.14)"/><rect class="cls-3" x="45.82" y="72.2" width="15.26" height="1.9" transform="translate(-35.69 89.34) rotate(-64.14)"/><rect class="cls-3" x="43.04" y="72.26" width="10.77" height="1.9" transform="translate(-38.58 84.86) rotate(-64.14)"/><rect class="cls-3" x="44.98" y="60.63" width="1.9" height="10.77" transform="translate(-33.51 78.54) rotate(-64.13)"/><rect class="cls-3" x="78.94" y="44.93" width="1.9" height="15.26" transform="translate(-2.27 101.51) rotate(-64.13)"/><rect class="cls-3" x="72.94" y="47.01" width="1.9" height="15.26" transform="translate(-7.52 97.29) rotate(-64.13)"/><rect class="cls-3" x="66.95" y="49.09" width="1.9" height="15.26" transform="translate(-12.77 93.06) rotate(-64.13)"/><rect class="cls-3" x="60.95" y="51.17" width="1.9" height="15.26" transform="translate(-18.02 88.84) rotate(-64.13)"/><rect class="cls-3" x="54.95" y="53.25" width="1.9" height="15.26" transform="translate(-23.27 84.62) rotate(-64.13)"/><rect class="cls-3" x="48.96" y="55.33" width="1.9" height="15.26" transform="translate(-28.52 80.39) rotate(-64.13)"/><rect class="cls-2" x="81.94" y="43.89" width="1.9" height="15.26" transform="translate(0.36 103.62) rotate(-64.13)"/><rect class="cls-2" x="75.94" y="45.97" width="1.9" height="15.26" transform="translate(-4.89 99.4) rotate(-64.13)"/><rect class="cls-2" x="69.94" y="48.05" width="1.9" height="15.26" transform="translate(-10.14 95.17) rotate(-64.13)"/><rect class="cls-2" x="63.95" y="50.13" width="1.9" height="15.26" transform="translate(-15.39 90.95) rotate(-64.13)"/><rect class="cls-2" x="57.95" y="52.21" width="1.9" height="15.26" transform="translate(-20.64 86.73) rotate(-64.13)"/><rect class="cls-2" x="51.96" y="54.29" width="1.9" height="15.26" transform="translate(-25.89 82.5) rotate(-64.13)"/><rect class="cls-2" x="45.96" y="56.37" width="1.9" height="15.26" transform="translate(-31.14 78.28) rotate(-64.13)"/><rect class="cls-2" x="78.8" y="60.76" width="15.26" height="1.9" transform="translate(-6.81 112.57) rotate(-64.14)"/><rect class="cls-2" x="72.8" y="62.84" width="15.26" height="1.9" transform="translate(-12.06 108.35) rotate(-64.14)"/><rect class="cls-2" x="66.8" y="64.92" width="15.26" height="1.9" transform="translate(-17.31 104.12) rotate(-64.14)"/><rect class="cls-2" x="60.81" y="67" width="15.26" height="1.9" transform="translate(-22.56 99.9) rotate(-64.14)"/><rect class="cls-2" x="54.81" y="69.08" width="15.26" height="1.9" transform="translate(-27.82 95.68) rotate(-64.14)"/><rect class="cls-2" x="48.81" y="71.16" width="15.26" height="1.9" transform="translate(-33.07 91.45) rotate(-64.14)"/><rect class="cls-2" x="42.82" y="73.24" width="15.26" height="1.9" transform="translate(-38.32 87.23) rotate(-64.14)"/><rect class="cls-2" x="41.4" y="71.89" width="9.42" height="1.9" transform="translate(-39.55 82.57) rotate(-64.14)"/><rect class="cls-2" x="42.48" y="62.34" width="1.9" height="9.42" transform="translate(-35.85 76.87) rotate(-64.13)"/><rect class="cls-3" x="36.4" y="61.5" width="60.93" height="1.9" transform="translate(-16.77 25.36) rotate(-19.13)"/><rect class="cls-2" x="83.81" y="32.14" width="1.31" height="30.6" transform="matrix(0.81, -0.59, 0.59, 0.81, -11.76, 58.65)"/><rect class="cls-2" x="87.61" y="53.75" width="1.31" height="10.51" transform="translate(16.14 136.91) rotate(-80.97)"/><rect class="cls-2" x="89.02" y="53.98" width="10.51" height="1.31" transform="translate(25.5 139.16) rotate(-80.96)"/><rect class="cls-3" x="87.74" y="52.21" width="10.51" height="1.31" transform="translate(26.17 136.4) rotate(-80.96)"/><rect class="cls-3" x="86.32" y="51.98" width="1.31" height="10.51" transform="translate(16.81 134.15) rotate(-80.97)"/><rect class="cls-3" x="83.75" y="48.44" width="1.31" height="10.51" transform="matrix(0.16, -0.99, 0.99, 0.16, 18.14, 128.64)"/><rect class="cls-3" x="81.19" y="44.9" width="1.31" height="10.51" transform="translate(19.47 123.12) rotate(-80.97)"/><rect class="cls-3" x="78.62" y="41.36" width="1.31" height="10.51" transform="translate(20.8 117.6) rotate(-80.97)"/><rect class="cls-3" x="76.05" y="37.82" width="1.31" height="10.51" transform="translate(22.13 112.08) rotate(-80.97)"/><rect class="cls-3" x="73.49" y="34.28" width="1.31" height="10.51" transform="translate(23.46 106.56) rotate(-80.97)"/><rect class="cls-3" x="70.92" y="30.75" width="1.31" height="10.51" transform="translate(24.79 101.04) rotate(-80.97)"/><rect class="cls-3" x="69.88" y="29" width="1.31" height="7.42" transform="translate(27.17 97.24) rotate(-80.97)"/><rect class="cls-3" x="71.07" y="28.97" width="7.42" height="1.31" transform="translate(33.77 98.82) rotate(-80.96)"/><rect class="cls-3" x="85.17" y="48.67" width="10.51" height="1.31" transform="translate(27.5 130.88) rotate(-80.96)"/><rect class="cls-3" x="82.6" y="45.14" width="10.51" height="1.31" transform="translate(28.83 125.36) rotate(-80.96)"/><rect class="cls-3" x="80.04" y="41.6" width="10.51" height="1.31" transform="matrix(0.16, -0.99, 0.99, 0.16, 30.16, 119.85)"/><rect class="cls-3" x="77.47" y="38.06" width="10.51" height="1.31" transform="translate(31.49 114.33) rotate(-80.96)"/><rect class="cls-3" x="74.9" y="34.52" width="10.51" height="1.31" transform="translate(32.82 108.81) rotate(-80.96)"/><rect class="cls-3" x="72.34" y="30.98" width="10.51" height="1.31" transform="matrix(0.16, -0.99, 0.99, 0.16, 34.15, 103.29)"/><rect class="cls-2" x="86.45" y="50.44" width="10.51" height="1.31" transform="translate(26.83 133.64) rotate(-80.96)"/><rect class="cls-2" x="83.89" y="46.9" width="10.51" height="1.31" transform="translate(28.17 128.12) rotate(-80.96)"/><rect class="cls-2" x="81.32" y="43.37" width="10.51" height="1.31" transform="translate(29.5 122.6) rotate(-80.96)"/><rect class="cls-2" x="78.75" y="39.83" width="10.51" height="1.31" transform="translate(30.83 117.09) rotate(-80.96)"/><rect class="cls-2" x="76.19" y="36.29" width="10.51" height="1.31" transform="translate(32.16 111.57) rotate(-80.96)"/><rect class="cls-2" x="73.62" y="32.75" width="10.51" height="1.31" transform="translate(33.49 106.05) rotate(-80.96)"/><rect class="cls-2" x="71.05" y="29.21" width="10.51" height="1.31" transform="translate(34.82 100.53) rotate(-80.96)"/><rect class="cls-2" x="85.04" y="50.21" width="1.31" height="10.51" transform="translate(17.47 131.4) rotate(-80.97)"/><rect class="cls-2" x="82.47" y="46.67" width="1.31" height="10.51" transform="translate(18.8 125.88) rotate(-80.97)"/><rect class="cls-2" x="79.9" y="43.13" width="1.31" height="10.51" transform="translate(20.13 120.36) rotate(-80.97)"/><rect class="cls-2" x="77.34" y="39.59" width="1.31" height="10.51" transform="translate(21.47 114.84) rotate(-80.97)"/><rect class="cls-2" x="74.77" y="36.05" width="1.31" height="10.51" transform="translate(22.8 109.32) rotate(-80.97)"/><rect class="cls-2" x="72.2" y="32.52" width="1.31" height="10.51" transform="translate(24.13 103.8) rotate(-80.97)"/><rect class="cls-2" x="69.64" y="28.98" width="1.31" height="10.51" transform="matrix(0.16, -0.99, 0.99, 0.16, 25.46, 98.28)"/><rect class="cls-2" x="69.66" y="27.86" width="1.31" height="6.49" transform="translate(28.57 95.68) rotate(-80.97)"/><rect class="cls-2" x="70.36" y="27.53" width="6.49" height="1.31" transform="translate(34.2 96.44) rotate(-80.96)"/><rect class="cls-3" x="80.65" y="21.73" width="1.31" height="41.97" transform="translate(-9.59 55.89) rotate(-35.96)"/><rect class="cls-2" x="97.6" y="18.26" width="2.1" height="49.11" transform="translate(-0.98 2.32) rotate(-1.34)"/><rect class="cls-2" x="92.07" y="53.1" width="2.1" height="16.87" transform="translate(-15.68 86.45) rotate(-46.35)"/><rect class="cls-2" x="96.61" y="60.21" width="16.87" height="2.1" transform="translate(-11.79 94.96) rotate(-46.34)"/><rect class="cls-3" x="96.53" y="56.7" width="16.87" height="2.1" transform="translate(-9.28 93.82) rotate(-46.34)"/><rect class="cls-3" x="91.99" y="49.6" width="2.1" height="16.87" transform="translate(-13.17 85.3) rotate(-46.35)"/><rect class="cls-3" x="91.82" y="42.58" width="2.1" height="16.87" transform="translate(-8.14 83.01) rotate(-46.35)"/><rect class="cls-3" x="91.66" y="35.57" width="2.1" height="16.87" transform="translate(-3.12 80.72) rotate(-46.35)"/><rect class="cls-3" x="91.5" y="28.56" width="2.1" height="16.87" transform="translate(1.9 78.43) rotate(-46.35)"/><rect class="cls-3" x="91.33" y="21.55" width="2.1" height="16.87" transform="translate(6.93 76.14) rotate(-46.35)"/><rect class="cls-3" x="91.17" y="14.53" width="2.1" height="16.87" transform="translate(11.95 73.85) rotate(-46.35)"/><rect class="cls-3" x="91.01" y="7.52" width="2.1" height="16.87" transform="translate(16.98 71.56) rotate(-46.35)"/><rect class="cls-3" x="92.64" y="4.7" width="2.1" height="11.91" transform="translate(21.32 71.09) rotate(-46.35)"/><rect class="cls-3" x="96.15" y="9.4" width="11.91" height="2.1" transform="translate(24.05 77.1) rotate(-46.34)"/><rect class="cls-3" x="96.37" y="49.69" width="16.87" height="2.1" transform="translate(-4.26 91.53) rotate(-46.34)"/><rect class="cls-3" x="96.2" y="42.67" width="16.87" height="2.1" transform="translate(0.76 89.24) rotate(-46.34)"/><rect class="cls-3" x="96.04" y="35.66" width="16.87" height="2.1" transform="translate(5.79 86.95) rotate(-46.34)"/><rect class="cls-3" x="95.88" y="28.65" width="16.87" height="2.1" transform="translate(10.81 84.66) rotate(-46.34)"/><rect class="cls-3" x="95.71" y="21.63" width="16.87" height="2.1" transform="translate(15.83 82.37) rotate(-46.34)"/><rect class="cls-3" x="95.55" y="14.62" width="16.87" height="2.1" transform="translate(20.85 80.08) rotate(-46.34)"/><rect class="cls-2" x="96.45" y="53.19" width="16.87" height="2.1" transform="translate(-6.77 92.67) rotate(-46.34)"/><rect class="cls-2" x="96.28" y="46.18" width="16.87" height="2.1" transform="translate(-1.75 90.38) rotate(-46.34)"/><rect class="cls-2" x="96.12" y="39.17" width="16.87" height="2.1" transform="translate(3.27 88.09) rotate(-46.34)"/><rect class="cls-2" x="95.96" y="32.15" width="16.87" height="2.1" transform="translate(8.3 85.8) rotate(-46.34)"/><rect class="cls-2" x="95.79" y="25.14" width="16.87" height="2.1" transform="translate(13.32 83.51) rotate(-46.34)"/><rect class="cls-2" x="95.63" y="18.13" width="16.87" height="2.1" transform="translate(18.34 81.22) rotate(-46.34)"/><rect class="cls-2" x="95.47" y="11.11" width="16.87" height="2.1" transform="translate(23.37 78.93) rotate(-46.34)"/><rect class="cls-2" x="91.91" y="46.09" width="2.1" height="16.87" transform="translate(-10.66 84.16) rotate(-46.35)"/><rect class="cls-2" x="91.74" y="39.08" width="2.1" height="16.87" transform="translate(-5.63 81.87) rotate(-46.35)"/><rect class="cls-2" x="91.58" y="32.07" width="2.1" height="16.87" transform="translate(-0.61 79.58) rotate(-46.35)"/><rect class="cls-2" x="91.42" y="25.05" width="2.1" height="16.87" transform="translate(4.42 77.28) rotate(-46.35)"/><rect class="cls-2" x="91.25" y="18.04" width="2.1" height="16.87" transform="translate(9.44 74.99) rotate(-46.35)"/><rect class="cls-2" x="91.09" y="11.03" width="2.1" height="16.87" transform="translate(14.46 72.7) rotate(-46.35)"/><rect class="cls-2" x="90.92" y="4.01" width="2.1" height="16.87" transform="translate(19.49 70.41) rotate(-46.35)"/><rect class="cls-2" x="93.81" y="3.13" width="2.1" height="10.42" transform="translate(23.35 71.23) rotate(-46.35)"/><rect class="cls-2" x="96.65" y="6.43" width="10.42" height="2.1" transform="translate(26.13 76) rotate(-46.34)"/><rect class="cls-3" x="97.74" y="0.02" width="2.1" height="67.35" transform="translate(-0.76 2.32) rotate(-1.34)"/></g></g></g></svg>