<svg xmlns="http://www.w3.org/2000/svg" viewBox="0 0 161.07 220"><defs><style>.cls-1{fill:#ffd6a5;stroke:#d68c45;}.cls-1,.cls-3{stroke-miterlimit:10;stroke-width:2px;}.cls-2{fill:#80ed99;}.cls-3{fill:none;stroke:#57cc99;}</style></defs><g id="Layer_2" data-name="Layer 2"><g id="background-beach"><g id="background--palm--right"><polygon class="cls-1" points="101.6 90.46 94.61 99.08 88.6 79.79 95.58 71.16 101.6 90.46"/><polygon class="cls-1" points="106.6 105.69 97.62 112.87 92.6 92.56 101.58 85.38 106.6 105.69"/><polygon class="cls-1" points="111.07 123.03 99.8 128.35 96.07 107.22 107.33 101.9 111.07 123.03"/><polygon class="cls-1" points="115.57 143.45 102.09 146.51 99.57 124.8 113.05 121.73 115.57 143.45"/><polygon class="cls-1" points="117.57 162.32 102.03 163.85 100.57 141.93 116.1 140.39 117.57 162.32"/><rect class="cls-1" x="100.57" y="159" width="18" height="22"/><rect class="cls-1" x="100.07" y="178" width="19" height="22"/><rect class="cls-1" x="99.57" y="197" width="20" height="22"/><path class="cls-2" d="M91.07,78.63c-4.74,4-22.69-7.81-44.5-7.12C24.75,70.82,6.8,82.58,2.07,78.63-3.54,75.31,13.21,49,46.57,48.88S96.67,75.31,91.07,78.63Z"/><path class="cls-3" d="M91.07,78.63c-4.74,4-22.69-7.81-44.5-7.12C24.75,70.82,6.8,82.58,2.07,78.63-3.54,75.31,13.21,49,46.57,48.88S96.67,75.31,91.07,78.63Z"/><line class="cls-3" x1="18.07" y1="66" x2="23.07" y2="75"/><line class="cls-3" x1="25.07" y1="64" x2="31.07" y2="73"/><line class="cls-3" x1="33.07" y1="61" x2="39.07" y2="72"/><line class="cls-3" x1="38.07" y1="56" x2="47.07" y2="72"/><line class="cls-3" x1="46.07" y1="57" x2="54.07" y2="72"/><line class="cls-3" x1="54.07" y1="58" x2="61.07" y2="73"/><line class="cls-3" x1="63.07" y1="60" x2="68.07" y2="74"/><line class="cls-3" x1="70.07" y1="64" x2="75.07" y2="76"/><line class="cls-3" x1="79.07" y1="67" x2="83.07" y2="79"/><line class="cls-3" x1="12.07" y1="71" x2="16.07" y2="77"/><path class="cls-2" d="M94.25,76.59c-6.06,1.13-15.94-17.93-35.29-28C40.29,37.27,18.88,38.72,16.69,33,13.43,27.3,41,12.55,70.06,28.85S100.77,76.45,94.25,76.59Z"/><path class="cls-3" d="M94.25,76.59c-6.06,1.13-15.94-17.93-35.29-28C40.29,37.27,18.88,38.72,16.69,33,13.43,27.3,41,12.55,70.06,28.85S100.77,76.45,94.25,76.59Z"/><line class="cls-3" x1="36.83" y1="29.79" x2="36.77" y2="40.08"/><line class="cls-3" x1="43.91" y1="31.48" x2="44.72" y2="42.26"/><line class="cls-3" x1="52.35" y1="32.79" x2="52.19" y2="45.31"/><line class="cls-3" x1="59.16" y1="30.88" x2="59.16" y2="49.24"/><line class="cls-3" x1="65.64" y1="35.68" x2="65.26" y2="52.67"/><line class="cls-3" x1="72.13" y1="40.47" x2="70.87" y2="56.98"/><line class="cls-3" x1="78.99" y1="46.63" x2="76.48" y2="61.28"/><line class="cls-3" x1="83.13" y1="53.55" x2="81.6" y2="66.46"/><line class="cls-3" x1="89.5" y1="60.57" x2="87.1" y2="72.99"/><line class="cls-3" x1="29.15" y1="31.2" x2="29.69" y2="38.39"/><path class="cls-2" d="M141,104.65c-4.09.76-10.76-12.1-23.82-18.91-12.6-7.63-27-6.65-28.53-10.55-2.19-3.8,16.38-13.76,36-2.76S145.35,104.55,141,104.65Z"/><path class="cls-3" d="M141,104.65c-4.09.76-10.76-12.1-23.82-18.91-12.6-7.63-27-6.65-28.53-10.55-2.19-3.8,16.38-13.76,36-2.76S145.35,104.55,141,104.65Z"/><line class="cls-3" x1="102.2" y1="73.06" x2="102.16" y2="80.01"/><line class="cls-3" x1="106.97" y1="74.2" x2="107.52" y2="81.48"/><line class="cls-3" x1="112.67" y1="75.09" x2="112.56" y2="83.54"/><line class="cls-3" x1="117.27" y1="73.8" x2="117.27" y2="86.19"/><line class="cls-3" x1="121.64" y1="77.04" x2="121.38" y2="88.51"/><line class="cls-3" x1="126.02" y1="80.27" x2="125.17" y2="91.41"/><line class="cls-3" x1="130.65" y1="84.43" x2="128.95" y2="94.32"/><line class="cls-3" x1="133.44" y1="89.1" x2="132.41" y2="97.81"/><line class="cls-3" x1="137.74" y1="93.84" x2="136.12" y2="102.22"/><line class="cls-3" x1="97.01" y1="74.02" x2="97.38" y2="78.87"/><path class="cls-2" d="M139.56,4c1,5.7-17,14.78-26.61,32.83-10.77,17.4-9.61,37.49-15,39.49-5.32,3-18.9-22.95-3.35-50.09S139.49-2.1,139.56,4Z"/><path class="cls-3" d="M139.56,4c1,5.7-17,14.78-26.61,32.83-10.77,17.4-9.61,37.49-15,39.49-5.32,3-18.9-22.95-3.35-50.09S139.49-2.1,139.56,4Z"/><line class="cls-3" x1="95.14" y1="57.41" x2="104.79" y2="57.56"/><line class="cls-3" x1="96.79" y1="50.79" x2="106.91" y2="50.13"/><line class="cls-3" x1="98.09" y1="42.89" x2="109.84" y2="43.16"/><line class="cls-3" x1="96.37" y1="36.48" x2="113.58" y2="36.66"/><line class="cls-3" x1="100.93" y1="30.45" x2="116.86" y2="30.97"/><line class="cls-3" x1="105.48" y1="24.42" x2="120.95" y2="25.75"/><line class="cls-3" x1="111.32" y1="18.04" x2="125.04" y2="20.53"/><line class="cls-3" x1="117.85" y1="14.23" x2="129.94" y2="15.78"/><line class="cls-3" x1="124.5" y1="8.32" x2="136.12" y2="10.68"/><line class="cls-3" x1="96.39" y1="64.63" x2="103.14" y2="64.19"/><path class="cls-2" d="M159.53,58.78c-3.1,3.88-19.16-2.49-36.24,1.59-17.32,3-29.57,15.16-33.94,12.81-5-1.71,4-25.21,30.27-30.66S163.41,55.25,159.53,58.78Z"/><path class="cls-3" d="M159.53,58.78c-3.1,3.88-19.16-2.49-36.24,1.59-17.32,3-29.57,15.16-33.94,12.81-5-1.71,4-25.21,30.27-30.66S163.41,55.25,159.53,58.78Z"/><line class="cls-3" x1="99.92" y1="60.63" x2="105.32" y2="66.92"/><line class="cls-3" x1="105.12" y1="57.92" x2="111.3" y2="64.05"/><line class="cls-3" x1="110.94" y1="54.26" x2="117.45" y2="61.96"/><line class="cls-3" x1="114.07" y1="49.51" x2="123.76" y2="60.67"/><line class="cls-3" x1="120.54" y1="49" x2="129.28" y2="59.54"/><line class="cls-3" x1="127.01" y1="48.5" x2="134.96" y2="59.19"/><line class="cls-3" x1="134.43" y1="48.62" x2="140.64" y2="58.85"/><line class="cls-3" x1="140.6" y1="50.64" x2="146.49" y2="59.29"/><line class="cls-3" x1="148.18" y1="51.55" x2="153.28" y2="60.37"/><line class="cls-3" x1="96" y1="65.54" x2="100.12" y2="69.63"/><path class="cls-2" d="M94.21,76.82C93,81.33,76.83,82,63.73,92,50,101.21,44.17,116.34,39.52,116c-4.91.43-6.22-23.14,14.25-37.86S96.19,72.31,94.21,76.82Z"/><path class="cls-3" d="M94.21,76.82C93,81.33,76.83,82,63.73,92,50,101.21,44.17,116.34,39.52,116c-4.91.43-6.22-23.14,14.25-37.86S96.19,72.31,94.21,76.82Z"/><line class="cls-3" x1="43.79" y1="101.19" x2="50.83" y2="104.52"/><line class="cls-3" x1="47.21" y1="96.88" x2="54.86" y2="99.77"/><line class="cls-3" x1="50.81" y1="91.52" x2="59.34" y2="95.63"/><line class="cls-3" x1="51.68" y1="86.24" x2="64.25" y2="92.11"/><line class="cls-3" x1="57.04" y1="83.34" x2="68.55" y2="89.03"/><line class="cls-3" x1="62.39" y1="80.43" x2="73.3" y2="86.57"/><line class="cls-3" x1="68.8" y1="77.7" x2="78.04" y2="84.1"/><line class="cls-3" x1="74.86" y1="77.07" x2="83.22" y2="82.25"/><line class="cls-3" x1="81.72" y1="74.96" x2="89.46" y2="80.57"/><line class="cls-3" x1="42.31" y1="106.9" x2="47.4" y2="108.83"/></g></g></g></svg>