<svg xmlns="http://www.w3.org/2000/svg" viewBox="0 0 161.07 220"><defs><style>.cls-1{fill:#ffd6a5;stroke:#d68c45;}.cls-1,.cls-3{stroke-miterlimit:10;stroke-width:2px;}.cls-2{fill:#80ed99;}.cls-3{fill:none;stroke:#57cc99;}</style></defs><g id="Layer_2" data-name="Layer 2"><g id="background-beach"><g id="background--palm--right"><polygon class="cls-1" points="59.47 90.46 66.45 99.08 72.47 79.79 65.48 71.16 59.47 90.46"/><polygon class="cls-1" points="54.47 105.69 63.45 112.87 68.47 92.56 59.48 85.38 54.47 105.69"/><polygon class="cls-1" points="50 123.03 61.27 128.35 65 107.22 53.73 101.9 50 123.03"/><polygon class="cls-1" points="45.5 143.45 58.98 146.51 61.5 124.8 48.02 121.73 45.5 143.45"/><polygon class="cls-1" points="43.5 162.32 59.04 163.85 60.5 141.93 44.96 140.39 43.5 162.32"/><rect class="cls-1" x="42.5" y="159" width="18" height="22" transform="translate(103 340) rotate(180)"/><rect class="cls-1" x="42" y="178" width="19" height="22" transform="translate(103 378) rotate(180)"/><rect class="cls-1" x="41.5" y="197" width="20" height="22" transform="translate(103 416) rotate(180)"/><path class="cls-2" d="M70,78.63c4.74,4,22.69-7.81,44.5-7.12,21.81-.69,39.76,11.07,44.5,7.12,5.61-3.32-11.14-29.68-44.5-29.75S64.39,75.31,70,78.63Z"/><path class="cls-3" d="M70,78.63c4.74,4,22.69-7.81,44.5-7.12,21.81-.69,39.76,11.07,44.5,7.12,5.61-3.32-11.14-29.68-44.5-29.75S64.39,75.31,70,78.63Z"/><line class="cls-3" x1="143" y1="66" x2="138" y2="75"/><line class="cls-3" x1="136" y1="64" x2="130" y2="73"/><line class="cls-3" x1="128" y1="61" x2="122" y2="72"/><line class="cls-3" x1="123" y1="56" x2="114" y2="72"/><line class="cls-3" x1="115" y1="57" x2="107" y2="72"/><line class="cls-3" x1="107" y1="58" x2="100" y2="73"/><line class="cls-3" x1="98" y1="60" x2="93" y2="74"/><line class="cls-3" x1="91" y1="64" x2="86" y2="76"/><line class="cls-3" x1="82" y1="67" x2="78" y2="79"/><line class="cls-3" x1="149" y1="71" x2="145" y2="77"/><path class="cls-2" d="M66.81,76.59c6.07,1.13,16-17.93,35.29-28,18.68-11.3,40.09-9.85,42.28-15.62,3.25-5.65-24.27-20.4-53.37-4.1S60.3,76.45,66.81,76.59Z"/><path class="cls-3" d="M66.81,76.59c6.07,1.13,16-17.93,35.29-28,18.68-11.3,40.09-9.85,42.28-15.62,3.25-5.65-24.27-20.4-53.37-4.1S60.3,76.45,66.81,76.59Z"/><line class="cls-3" x1="124.24" y1="29.79" x2="124.29" y2="40.08"/><line class="cls-3" x1="117.16" y1="31.48" x2="116.34" y2="42.26"/><line class="cls-3" x1="108.71" y1="32.79" x2="108.88" y2="45.31"/><line class="cls-3" x1="101.9" y1="30.88" x2="101.91" y2="49.24"/><line class="cls-3" x1="95.42" y1="35.68" x2="95.81" y2="52.67"/><line class="cls-3" x1="88.94" y1="40.47" x2="90.2" y2="56.98"/><line class="cls-3" x1="82.08" y1="46.63" x2="84.59" y2="61.28"/><line class="cls-3" x1="77.94" y1="53.55" x2="79.47" y2="66.46"/><line class="cls-3" x1="71.57" y1="60.57" x2="73.97" y2="72.99"/><line class="cls-3" x1="131.92" y1="31.2" x2="131.38" y2="38.39"/><path class="cls-2" d="M20.12,104.65c4.09.76,10.76-12.1,23.81-18.91C56.53,78.11,71,79.09,72.46,75.19c2.2-3.8-16.38-13.76-36-2.76S15.72,104.55,20.12,104.65Z"/><path class="cls-3" d="M20.12,104.65c4.09.76,10.76-12.1,23.81-18.91C56.53,78.11,71,79.09,72.46,75.19c2.2-3.8-16.38-13.76-36-2.76S15.72,104.55,20.12,104.65Z"/><line class="cls-3" x1="58.87" y1="73.06" x2="58.91" y2="80.01"/><line class="cls-3" x1="54.09" y1="74.2" x2="53.54" y2="81.48"/><line class="cls-3" x1="48.39" y1="75.09" x2="48.51" y2="83.54"/><line class="cls-3" x1="43.8" y1="73.8" x2="43.8" y2="86.19"/><line class="cls-3" x1="39.42" y1="77.04" x2="39.68" y2="88.51"/><line class="cls-3" x1="35.05" y1="80.27" x2="35.9" y2="91.41"/><line class="cls-3" x1="30.42" y1="84.43" x2="32.11" y2="94.32"/><line class="cls-3" x1="27.63" y1="89.1" x2="28.66" y2="97.81"/><line class="cls-3" x1="23.33" y1="93.84" x2="24.94" y2="102.22"/><line class="cls-3" x1="64.05" y1="74.02" x2="63.69" y2="78.87"/><path class="cls-2" d="M21.5,4c-1,5.7,17,14.78,26.61,32.83,10.77,17.4,9.62,37.49,15,39.49,5.32,3,18.9-22.95,3.34-50.09S21.58-2.1,21.5,4Z"/><path class="cls-3" d="M21.5,4c-1,5.7,17,14.78,26.61,32.83,10.77,17.4,9.62,37.49,15,39.49,5.32,3,18.9-22.95,3.34-50.09S21.58-2.1,21.5,4Z"/><line class="cls-3" x1="65.93" y1="57.41" x2="56.28" y2="57.56"/><line class="cls-3" x1="64.28" y1="50.79" x2="54.16" y2="50.13"/><line class="cls-3" x1="62.97" y1="42.89" x2="51.23" y2="43.16"/><line class="cls-3" x1="64.7" y1="36.48" x2="47.48" y2="36.66"/><line class="cls-3" x1="60.14" y1="30.45" x2="44.21" y2="30.97"/><line class="cls-3" x1="55.58" y1="24.42" x2="40.12" y2="25.75"/><line class="cls-3" x1="49.75" y1="18.04" x2="36.03" y2="20.53"/><line class="cls-3" x1="43.22" y1="14.23" x2="31.13" y2="15.78"/><line class="cls-3" x1="36.57" y1="8.32" x2="24.95" y2="10.68"/><line class="cls-3" x1="64.68" y1="64.63" x2="57.93" y2="64.19"/><path class="cls-2" d="M1.54,58.78c3.09,3.88,19.15-2.49,36.24,1.59,17.31,3,29.56,15.16,33.94,12.81,5-1.71-4-25.21-30.28-30.66S-2.34,55.25,1.54,58.78Z"/><path class="cls-3" d="M1.54,58.78c3.09,3.88,19.15-2.49,36.24,1.59,17.31,3,29.56,15.16,33.94,12.81,5-1.71-4-25.21-30.28-30.66S-2.34,55.25,1.54,58.78Z"/><line class="cls-3" x1="61.15" y1="60.63" x2="55.75" y2="66.92"/><line class="cls-3" x1="55.95" y1="57.92" x2="49.76" y2="64.05"/><line class="cls-3" x1="50.13" y1="54.26" x2="43.62" y2="61.96"/><line class="cls-3" x1="46.99" y1="49.51" x2="37.31" y2="60.67"/><line class="cls-3" x1="40.52" y1="49" x2="31.79" y2="59.54"/><line class="cls-3" x1="34.05" y1="48.5" x2="26.11" y2="59.19"/><line class="cls-3" x1="26.63" y1="48.62" x2="20.42" y2="58.85"/><line class="cls-3" x1="20.47" y1="50.64" x2="14.58" y2="59.29"/><line class="cls-3" x1="12.88" y1="51.55" x2="7.79" y2="60.37"/><line class="cls-3" x1="65.07" y1="65.54" x2="60.94" y2="69.63"/><path class="cls-2" d="M66.86,76.82C68,81.33,84.24,82,97.34,92c13.7,9.18,19.56,24.31,24.21,24,4.9.43,6.21-23.14-14.25-37.86S64.88,72.31,66.86,76.82Z"/><path class="cls-3" d="M66.86,76.82C68,81.33,84.24,82,97.34,92c13.7,9.18,19.56,24.31,24.21,24,4.9.43,6.21-23.14-14.25-37.86S64.88,72.31,66.86,76.82Z"/><line class="cls-3" x1="117.28" y1="101.19" x2="110.24" y2="104.52"/><line class="cls-3" x1="113.85" y1="96.88" x2="106.21" y2="99.77"/><line class="cls-3" x1="110.26" y1="91.52" x2="101.73" y2="95.63"/><line class="cls-3" x1="109.39" y1="86.24" x2="96.81" y2="92.11"/><line class="cls-3" x1="104.03" y1="83.34" x2="92.51" y2="89.03"/><line class="cls-3" x1="98.67" y1="80.43" x2="87.77" y2="86.57"/><line class="cls-3" x1="92.26" y1="77.7" x2="83.03" y2="84.1"/><line class="cls-3" x1="86.2" y1="77.07" x2="77.85" y2="82.25"/><line class="cls-3" x1="79.35" y1="74.96" x2="71.61" y2="80.57"/><line class="cls-3" x1="118.76" y1="106.9" x2="113.66" y2="108.83"/></g></g></g></svg>