<svg xmlns="http://www.w3.org/2000/svg" viewBox="0 0 159.07 218"><defs><style>.cls-1{fill:#ba9e85;}.cls-2{fill:#97a583;}.cls-3{fill:none;}</style></defs><g id="Layer_2" data-name="Layer 2"><g id="beach"><g id="background--palm--right"><polygon class="cls-1" points="58.47 89.46 65.45 98.08 71.47 78.79 64.48 70.16 58.47 89.46"/><polygon class="cls-1" points="53.47 104.69 62.45 111.87 67.47 91.56 58.48 84.38 53.47 104.69"/><polygon class="cls-1" points="49 122.03 60.27 127.35 64 106.22 52.73 100.9 49 122.03"/><polygon class="cls-1" points="44.5 142.45 57.98 145.51 60.5 123.8 47.02 120.73 44.5 142.45"/><polygon class="cls-1" points="42.5 161.32 58.04 162.85 59.5 140.93 43.96 139.39 42.5 161.32"/><rect class="cls-1" x="41.5" y="158" width="18" height="22" transform="translate(101 338) rotate(180)"/><rect class="cls-1" x="41" y="177" width="19" height="22" transform="translate(101 376) rotate(180)"/><rect class="cls-1" x="40.5" y="196" width="20" height="22" transform="translate(101 414) rotate(180)"/><path class="cls-2" d="M69,77.63c4.74,4,22.69-7.81,44.5-7.12,21.81-.69,39.76,11.07,44.5,7.12,5.61-3.32-11.14-29.68-44.5-29.75S63.39,74.31,69,77.63Z"/><path class="cls-3" d="M69,77.63c4.74,4,22.69-7.81,44.5-7.12,21.81-.69,39.76,11.07,44.5,7.12,5.61-3.32-11.14-29.68-44.5-29.75S63.39,74.31,69,77.63Z"/><line class="cls-3" x1="142" y1="65" x2="137" y2="74"/><line class="cls-3" x1="135" y1="63" x2="129" y2="72"/><line class="cls-3" x1="127" y1="60" x2="121" y2="71"/><line class="cls-3" x1="122" y1="55" x2="113" y2="71"/><line class="cls-3" x1="114" y1="56" x2="106" y2="71"/><line class="cls-3" x1="106" y1="57" x2="99" y2="72"/><line class="cls-3" x1="97" y1="59" x2="92" y2="73"/><line class="cls-3" x1="90" y1="63" x2="85" y2="75"/><line class="cls-3" x1="81" y1="66" x2="77" y2="78"/><line class="cls-3" x1="148" y1="70" x2="144" y2="76"/><path class="cls-2" d="M65.81,75.59c6.07,1.13,16-17.93,35.29-28,18.68-11.3,40.09-9.85,42.28-15.62,3.25-5.65-24.27-20.4-53.37-4.1S59.3,75.45,65.81,75.59Z"/><path class="cls-3" d="M65.81,75.59c6.07,1.13,16-17.93,35.29-28,18.68-11.3,40.09-9.85,42.28-15.62,3.25-5.65-24.27-20.4-53.37-4.1S59.3,75.45,65.81,75.59Z"/><line class="cls-3" x1="123.24" y1="28.79" x2="123.29" y2="39.08"/><line class="cls-3" x1="116.16" y1="30.48" x2="115.34" y2="41.26"/><line class="cls-3" x1="107.71" y1="31.79" x2="107.88" y2="44.31"/><line class="cls-3" x1="100.9" y1="29.88" x2="100.91" y2="48.24"/><line class="cls-3" x1="94.42" y1="34.68" x2="94.81" y2="51.67"/><line class="cls-3" x1="87.94" y1="39.47" x2="89.2" y2="55.98"/><line class="cls-3" x1="81.08" y1="45.63" x2="83.59" y2="60.28"/><line class="cls-3" x1="76.94" y1="52.55" x2="78.47" y2="65.46"/><line class="cls-3" x1="70.57" y1="59.57" x2="72.97" y2="71.99"/><line class="cls-3" x1="130.92" y1="30.2" x2="130.38" y2="37.39"/><path class="cls-2" d="M19.12,103.65c4.09.76,10.76-12.1,23.81-18.91C55.53,77.11,70,78.09,71.46,74.19c2.2-3.8-16.38-13.76-36-2.76S14.72,103.55,19.12,103.65Z"/><path class="cls-3" d="M19.12,103.65c4.09.76,10.76-12.1,23.81-18.91C55.53,77.11,70,78.09,71.46,74.19c2.2-3.8-16.38-13.76-36-2.76S14.72,103.55,19.12,103.65Z"/><line class="cls-3" x1="57.87" y1="72.06" x2="57.91" y2="79.01"/><line class="cls-3" x1="53.09" y1="73.2" x2="52.54" y2="80.48"/><line class="cls-3" x1="47.39" y1="74.09" x2="47.51" y2="82.54"/><line class="cls-3" x1="42.8" y1="72.8" x2="42.8" y2="85.19"/><line class="cls-3" x1="38.42" y1="76.04" x2="38.68" y2="87.51"/><line class="cls-3" x1="34.05" y1="79.27" x2="34.9" y2="90.41"/><line class="cls-3" x1="29.42" y1="83.43" x2="31.11" y2="93.32"/><line class="cls-3" x1="26.63" y1="88.1" x2="27.66" y2="96.81"/><line class="cls-3" x1="22.33" y1="92.84" x2="23.94" y2="101.22"/><line class="cls-3" x1="63.05" y1="73.02" x2="62.69" y2="77.87"/><path class="cls-2" d="M20.5,3c-1,5.7,17,14.78,26.61,32.83,10.77,17.4,9.62,37.49,15,39.49,5.32,3,18.9-22.95,3.34-50.09S20.58-3.1,20.5,3Z"/><path class="cls-3" d="M20.5,3c-1,5.7,17,14.78,26.61,32.83,10.77,17.4,9.62,37.49,15,39.49,5.32,3,18.9-22.95,3.34-50.09S20.58-3.1,20.5,3Z"/><line class="cls-3" x1="64.93" y1="56.41" x2="55.28" y2="56.56"/><line class="cls-3" x1="63.28" y1="49.79" x2="53.16" y2="49.13"/><line class="cls-3" x1="61.97" y1="41.89" x2="50.23" y2="42.16"/><line class="cls-3" x1="63.7" y1="35.48" x2="46.48" y2="35.66"/><line class="cls-3" x1="59.14" y1="29.45" x2="43.21" y2="29.97"/><line class="cls-3" x1="54.58" y1="23.42" x2="39.12" y2="24.75"/><line class="cls-3" x1="48.75" y1="17.04" x2="35.03" y2="19.53"/><line class="cls-3" x1="42.22" y1="13.23" x2="30.13" y2="14.78"/><line class="cls-3" x1="35.57" y1="7.32" x2="23.95" y2="9.68"/><line class="cls-3" x1="63.68" y1="63.63" x2="56.93" y2="63.19"/><path class="cls-2" d="M.54,57.78c3.09,3.88,19.15-2.49,36.24,1.59,17.31,3,29.56,15.16,33.94,12.81,5-1.71-4-25.21-30.28-30.66S-3.34,54.25.54,57.78Z"/><path class="cls-3" d="M.54,57.78c3.09,3.88,19.15-2.49,36.24,1.59,17.31,3,29.56,15.16,33.94,12.81,5-1.71-4-25.21-30.28-30.66S-3.34,54.25.54,57.78Z"/><line class="cls-3" x1="60.15" y1="59.63" x2="54.75" y2="65.92"/><line class="cls-3" x1="54.95" y1="56.92" x2="48.76" y2="63.05"/><line class="cls-3" x1="49.13" y1="53.26" x2="42.62" y2="60.96"/><line class="cls-3" x1="45.99" y1="48.51" x2="36.31" y2="59.67"/><line class="cls-3" x1="39.52" y1="48" x2="30.79" y2="58.54"/><line class="cls-3" x1="33.05" y1="47.5" x2="25.11" y2="58.19"/><line class="cls-3" x1="25.63" y1="47.62" x2="19.42" y2="57.85"/><line class="cls-3" x1="19.47" y1="49.64" x2="13.58" y2="58.29"/><line class="cls-3" x1="11.88" y1="50.55" x2="6.79" y2="59.37"/><line class="cls-3" x1="64.07" y1="64.54" x2="59.94" y2="68.63"/><path class="cls-2" d="M65.86,75.82C67,80.33,83.24,81,96.34,91c13.7,9.18,19.56,24.31,24.21,24,4.9.43,6.21-23.14-14.25-37.86S63.88,71.31,65.86,75.82Z"/><path class="cls-3" d="M65.86,75.82C67,80.33,83.24,81,96.34,91c13.7,9.18,19.56,24.31,24.21,24,4.9.43,6.21-23.14-14.25-37.86S63.88,71.31,65.86,75.82Z"/><line class="cls-3" x1="116.28" y1="100.19" x2="109.24" y2="103.52"/><line class="cls-3" x1="112.85" y1="95.88" x2="105.21" y2="98.77"/><line class="cls-3" x1="109.26" y1="90.52" x2="100.73" y2="94.63"/><line class="cls-3" x1="108.39" y1="85.24" x2="95.81" y2="91.11"/><line class="cls-3" x1="103.03" y1="82.34" x2="91.51" y2="88.03"/><line class="cls-3" x1="97.67" y1="79.43" x2="86.77" y2="85.57"/><line class="cls-3" x1="91.26" y1="76.7" x2="82.03" y2="83.1"/><line class="cls-3" x1="85.2" y1="76.07" x2="76.85" y2="81.25"/><line class="cls-3" x1="78.35" y1="73.96" x2="70.61" y2="79.57"/><line class="cls-3" x1="117.76" y1="105.9" x2="112.66" y2="107.83"/></g></g></g></svg>