<svg xmlns="http://www.w3.org/2000/svg" viewBox="0 0 159.07 218"><defs><style>.cls-1{fill:#ba9e85;}.cls-2{fill:#97a583;}.cls-3{fill:none;}</style></defs><g id="Layer_2" data-name="Layer 2"><g id="beach"><g id="background--palm--right"><polygon class="cls-1" points="100.6 89.46 93.61 98.08 87.6 78.79 94.58 70.16 100.6 89.46"/><polygon class="cls-1" points="105.6 104.69 96.62 111.87 91.6 91.56 100.58 84.38 105.6 104.69"/><polygon class="cls-1" points="110.07 122.03 98.8 127.35 95.07 106.22 106.33 100.9 110.07 122.03"/><polygon class="cls-1" points="114.57 142.45 101.09 145.51 98.57 123.8 112.05 120.73 114.57 142.45"/><polygon class="cls-1" points="116.57 161.32 101.03 162.85 99.57 140.93 115.1 139.39 116.57 161.32"/><rect class="cls-1" x="99.57" y="158" width="18" height="22"/><rect class="cls-1" x="99.07" y="177" width="19" height="22"/><rect class="cls-1" x="98.57" y="196" width="20" height="22"/><path class="cls-2" d="M90.07,77.63c-4.74,4-22.69-7.81-44.5-7.12C23.75,69.82,5.8,81.58,1.07,77.63-4.54,74.31,12.21,48,45.57,47.88S95.67,74.31,90.07,77.63Z"/><path class="cls-3" d="M90.07,77.63c-4.74,4-22.69-7.81-44.5-7.12C23.75,69.82,5.8,81.58,1.07,77.63-4.54,74.31,12.21,48,45.57,47.88S95.67,74.31,90.07,77.63Z"/><line class="cls-3" x1="17.07" y1="65" x2="22.07" y2="74"/><line class="cls-3" x1="24.07" y1="63" x2="30.07" y2="72"/><line class="cls-3" x1="32.07" y1="60" x2="38.07" y2="71"/><line class="cls-3" x1="37.07" y1="55" x2="46.07" y2="71"/><line class="cls-3" x1="45.07" y1="56" x2="53.07" y2="71"/><line class="cls-3" x1="53.07" y1="57" x2="60.07" y2="72"/><line class="cls-3" x1="62.07" y1="59" x2="67.07" y2="73"/><line class="cls-3" x1="69.07" y1="63" x2="74.07" y2="75"/><line class="cls-3" x1="78.07" y1="66" x2="82.07" y2="78"/><line class="cls-3" x1="11.07" y1="70" x2="15.07" y2="76"/><path class="cls-2" d="M93.25,75.59c-6.06,1.13-15.94-17.93-35.29-28C39.29,36.27,17.88,37.72,15.69,32,12.43,26.3,40,11.55,69.06,27.85S99.77,75.45,93.25,75.59Z"/><path class="cls-3" d="M93.25,75.59c-6.06,1.13-15.94-17.93-35.29-28C39.29,36.27,17.88,37.72,15.69,32,12.43,26.3,40,11.55,69.06,27.85S99.77,75.45,93.25,75.59Z"/><line class="cls-3" x1="35.83" y1="28.79" x2="35.77" y2="39.08"/><line class="cls-3" x1="42.91" y1="30.48" x2="43.72" y2="41.26"/><line class="cls-3" x1="51.35" y1="31.79" x2="51.19" y2="44.31"/><line class="cls-3" x1="58.16" y1="29.88" x2="58.16" y2="48.24"/><line class="cls-3" x1="64.64" y1="34.68" x2="64.26" y2="51.67"/><line class="cls-3" x1="71.13" y1="39.47" x2="69.87" y2="55.98"/><line class="cls-3" x1="77.99" y1="45.63" x2="75.48" y2="60.28"/><line class="cls-3" x1="82.13" y1="52.55" x2="80.6" y2="65.46"/><line class="cls-3" x1="88.5" y1="59.57" x2="86.1" y2="71.99"/><line class="cls-3" x1="28.15" y1="30.2" x2="28.69" y2="37.39"/><path class="cls-2" d="M140,103.65c-4.09.76-10.76-12.1-23.82-18.91-12.6-7.63-27-6.65-28.53-10.55-2.19-3.8,16.38-13.76,36-2.76S144.35,103.55,140,103.65Z"/><path class="cls-3" d="M140,103.65c-4.09.76-10.76-12.1-23.82-18.91-12.6-7.63-27-6.65-28.53-10.55-2.19-3.8,16.38-13.76,36-2.76S144.35,103.55,140,103.65Z"/><line class="cls-3" x1="101.2" y1="72.06" x2="101.16" y2="79.01"/><line class="cls-3" x1="105.97" y1="73.2" x2="106.52" y2="80.48"/><line class="cls-3" x1="111.67" y1="74.09" x2="111.56" y2="82.54"/><line class="cls-3" x1="116.27" y1="72.8" x2="116.27" y2="85.19"/><line class="cls-3" x1="120.64" y1="76.04" x2="120.38" y2="87.51"/><line class="cls-3" x1="125.02" y1="79.27" x2="124.17" y2="90.41"/><line class="cls-3" x1="129.65" y1="83.43" x2="127.95" y2="93.32"/><line class="cls-3" x1="132.44" y1="88.1" x2="131.41" y2="96.81"/><line class="cls-3" x1="136.74" y1="92.84" x2="135.12" y2="101.22"/><line class="cls-3" x1="96.01" y1="73.02" x2="96.38" y2="77.87"/><path class="cls-2" d="M138.56,3c1,5.7-17,14.78-26.61,32.83-10.77,17.4-9.61,37.49-15,39.49-5.32,3-18.9-22.95-3.35-50.09S138.49-3.1,138.56,3Z"/><path class="cls-3" d="M138.56,3c1,5.7-17,14.78-26.61,32.83-10.77,17.4-9.61,37.49-15,39.49-5.32,3-18.9-22.95-3.35-50.09S138.49-3.1,138.56,3Z"/><line class="cls-3" x1="94.14" y1="56.41" x2="103.79" y2="56.56"/><line class="cls-3" x1="95.79" y1="49.79" x2="105.91" y2="49.13"/><line class="cls-3" x1="97.09" y1="41.89" x2="108.84" y2="42.16"/><line class="cls-3" x1="95.37" y1="35.48" x2="112.58" y2="35.66"/><line class="cls-3" x1="99.93" y1="29.45" x2="115.86" y2="29.97"/><line class="cls-3" x1="104.48" y1="23.42" x2="119.95" y2="24.75"/><line class="cls-3" x1="110.32" y1="17.04" x2="124.04" y2="19.53"/><line class="cls-3" x1="116.85" y1="13.23" x2="128.94" y2="14.78"/><line class="cls-3" x1="123.5" y1="7.32" x2="135.12" y2="9.68"/><line class="cls-3" x1="95.39" y1="63.63" x2="102.14" y2="63.19"/><path class="cls-2" d="M158.53,57.78c-3.1,3.88-19.16-2.49-36.24,1.59-17.32,3-29.57,15.16-33.94,12.81-5-1.71,4-25.21,30.27-30.66S162.41,54.25,158.53,57.78Z"/><path class="cls-3" d="M158.53,57.78c-3.1,3.88-19.16-2.49-36.24,1.59-17.32,3-29.57,15.16-33.94,12.81-5-1.71,4-25.21,30.27-30.66S162.41,54.25,158.53,57.78Z"/><line class="cls-3" x1="98.92" y1="59.63" x2="104.32" y2="65.92"/><line class="cls-3" x1="104.12" y1="56.92" x2="110.3" y2="63.05"/><line class="cls-3" x1="109.94" y1="53.26" x2="116.45" y2="60.96"/><line class="cls-3" x1="113.07" y1="48.51" x2="122.76" y2="59.67"/><line class="cls-3" x1="119.54" y1="48" x2="128.28" y2="58.54"/><line class="cls-3" x1="126.01" y1="47.5" x2="133.96" y2="58.19"/><line class="cls-3" x1="133.43" y1="47.62" x2="139.64" y2="57.85"/><line class="cls-3" x1="139.6" y1="49.64" x2="145.49" y2="58.29"/><line class="cls-3" x1="147.18" y1="50.55" x2="152.28" y2="59.37"/><line class="cls-3" x1="95" y1="64.54" x2="99.12" y2="68.63"/><path class="cls-2" d="M93.21,75.82C92,80.33,75.83,81,62.73,91,49,100.21,43.17,115.34,38.52,115c-4.91.43-6.22-23.14,14.25-37.86S95.19,71.31,93.21,75.82Z"/><path class="cls-3" d="M93.21,75.82C92,80.33,75.83,81,62.73,91,49,100.21,43.17,115.34,38.52,115c-4.91.43-6.22-23.14,14.25-37.86S95.19,71.31,93.21,75.82Z"/><line class="cls-3" x1="42.79" y1="100.19" x2="49.83" y2="103.52"/><line class="cls-3" x1="46.21" y1="95.88" x2="53.86" y2="98.77"/><line class="cls-3" x1="49.81" y1="90.52" x2="58.34" y2="94.63"/><line class="cls-3" x1="50.68" y1="85.24" x2="63.25" y2="91.11"/><line class="cls-3" x1="56.04" y1="82.34" x2="67.55" y2="88.03"/><line class="cls-3" x1="61.39" y1="79.43" x2="72.3" y2="85.57"/><line class="cls-3" x1="67.8" y1="76.7" x2="77.04" y2="83.1"/><line class="cls-3" x1="73.86" y1="76.07" x2="82.22" y2="81.25"/><line class="cls-3" x1="80.72" y1="73.96" x2="88.46" y2="79.57"/><line class="cls-3" x1="41.31" y1="105.9" x2="46.4" y2="107.83"/></g></g></g></svg>