<svg xmlns="http://www.w3.org/2000/svg" viewBox="0 0 54 27"><defs><style>.cls-1{fill:#539696;}</style></defs><g id="Layer_2" data-name="Layer 2"><g id="beach"><g id="beach--wave"><path class="cls-1" d="M53,9.83a22.62,22.62,0,0,0,1,2.11V27H26C38.26,27,48.77,19.87,53,9.83Z"/><path class="cls-1" d="M26,27H0V11.94C4.74,20.85,14.61,27,26,27Z"/><path class="cls-1" d="M54,7v4.92a22.62,22.62,0,0,1-1-2.11A24.65,24.65,0,0,0,54,7Z"/><path class="cls-1" d="M54,7a24.65,24.65,0,0,1-1,2.81V0h1Z"/><path class="cls-1" d="M51,0c0,12.68-11.21,23-25,23S1,12.68,1,0H0V11.94C4.74,20.85,14.61,27,26,27c12.26,0,22.77-7.13,27-17.17V0Z"/></g></g></g></svg>