<svg xmlns="http://www.w3.org/2000/svg" viewBox="0 0 25 25"><defs><style>.cls-1{fill:none;}.cls-2{fill:#00f5d4;}</style></defs><g id="Layer_2" data-name="Layer 2"><g id="Checkers"><polygon class="cls-1" points="11.05 6.27 11.27 6.05 17.32 0 5 0 0 5 0 17.32 2.32 15 11.05 6.27"/><polygon class="cls-1" points="20 22.32 25 17.32 25 5 20 10 17.61 12.39 17.61 12.39 15 15 5 25 17.32 25 20 22.32"/><polygon class="cls-2" points="0 0 0 5 5 0 0 0"/><polygon class="cls-2" points="20 22.32 17.32 25 20 25 25 25 25 17.32 20 22.32"/><polygon class="cls-2" points="20 0 17.32 0 11.27 6.05 11.05 6.27 2.32 15 0 17.32 0 25 5 25 15 15 17.61 12.39 20 10 25 5 25 0 20 0"/></g></g></svg>