<svg xmlns="http://www.w3.org/2000/svg" viewBox="0 0 310 538"><defs><style>.cls-1{fill:none;}.cls-2{fill:blue;}</style></defs><g id="Layer_2" data-name="Layer 2"><g id="Layer_4" data-name="Layer 4"><polygon class="cls-1" points="154.88 537.65 154.72 538 238.88 538 239.03 537.65 310 537.65 310 352.39 228.88 537.65 154.88 537.65"/><polygon class="cls-1" points="80.88 0.65 154.88 0.65 0 354.33 0 538 80.72 538 80.88 537.65 154.88 537.65 310 183.41 310 7.57 77.88 537.65 3.88 537.65 239.03 0.65 310 0.65 310 0 0 0 0 185.34 80.88 0.65"/><polygon class="cls-2" points="238.88 538 310 538 310 537.65 239.03 537.65 238.88 538"/><polygon class="cls-2" points="80.88 537.65 80.72 538 154.72 538 154.88 537.65 80.88 537.65"/><polygon class="cls-2" points="3.88 537.65 77.88 537.65 310 7.57 310 0.65 239.03 0.65 3.88 537.65"/><polygon class="cls-2" points="228.88 537.65 310 352.39 310 183.41 154.88 537.65 228.88 537.65"/><polygon class="cls-2" points="80.88 0.65 0 185.34 0 354.33 154.88 0.65 80.88 0.65"/></g></g></svg>